<svg width="14" height="15" viewBox="0 0 14 15" fill="none" xmlns="http://www.w3.org/2000/svg">
<path fill-rule="evenodd" clip-rule="evenodd" d="M13.0231 6.21253H0.587709C0.298872 6.21253 0.0644531 5.97811 0.0644531 5.68927C0.0644531 5.40043 0.298872 5.16602 0.587709 5.16602H13.0231C13.3119 5.16602 13.5463 5.40043 13.5463 5.68927C13.5463 5.97811 13.3119 6.21253 13.0231 6.21253Z" fill="#5B5B5B"/>
<path fill-rule="evenodd" clip-rule="evenodd" d="M9.90788 8.93714C9.61905 8.93714 9.38184 8.70272 9.38184 8.41388C9.38184 8.12504 9.61277 7.89062 9.9016 7.89062H9.90788C10.1967 7.89062 10.4311 8.12504 10.4311 8.41388C10.4311 8.70272 10.1967 8.93714 9.90788 8.93714Z" fill="#5B5B5B"/>
<path fill-rule="evenodd" clip-rule="evenodd" d="M6.81218 8.93714C6.52334 8.93714 6.28613 8.70272 6.28613 8.41388C6.28613 8.12504 6.51706 7.89062 6.8059 7.89062H6.81218C7.10102 7.89062 7.33544 8.12504 7.33544 8.41388C7.33544 8.70272 7.10102 8.93714 6.81218 8.93714Z" fill="#5B5B5B"/>
<path fill-rule="evenodd" clip-rule="evenodd" d="M3.70936 8.93714C3.42052 8.93714 3.18262 8.70272 3.18262 8.41388C3.18262 8.12504 3.41425 7.89062 3.70308 7.89062H3.70936C3.9982 7.89062 4.23262 8.12504 4.23262 8.41388C4.23262 8.70272 3.9982 8.93714 3.70936 8.93714Z" fill="#5B5B5B"/>
<path fill-rule="evenodd" clip-rule="evenodd" d="M9.90788 11.6486C9.61905 11.6486 9.38184 11.4141 9.38184 11.1253C9.38184 10.8365 9.61277 10.6021 9.9016 10.6021H9.90788C10.1967 10.6021 10.4311 10.8365 10.4311 11.1253C10.4311 11.4141 10.1967 11.6486 9.90788 11.6486Z" fill="#5B5B5B"/>
<path fill-rule="evenodd" clip-rule="evenodd" d="M6.81218 11.6486C6.52334 11.6486 6.28613 11.4141 6.28613 11.1253C6.28613 10.8365 6.51706 10.6021 6.8059 10.6021H6.81218C7.10102 10.6021 7.33544 10.8365 7.33544 11.1253C7.33544 11.4141 7.10102 11.6486 6.81218 11.6486Z" fill="#5B5B5B"/>
<path fill-rule="evenodd" clip-rule="evenodd" d="M3.70936 11.6486C3.42052 11.6486 3.18262 11.4141 3.18262 11.1253C3.18262 10.8365 3.41425 10.6021 3.70308 10.6021H3.70936C3.9982 10.6021 4.23262 10.8365 4.23262 11.1253C4.23262 11.4141 3.9982 11.6486 3.70936 11.6486Z" fill="#5B5B5B"/>
<path fill-rule="evenodd" clip-rule="evenodd" d="M9.62384 3.34256C9.335 3.34256 9.10059 3.10814 9.10059 2.8193V0.523256C9.10059 0.234419 9.335 0 9.62384 0C9.91268 0 10.1471 0.234419 10.1471 0.523256V2.8193C10.1471 3.10814 9.91268 3.34256 9.62384 3.34256Z" fill="#5B5B5B"/>
<path fill-rule="evenodd" clip-rule="evenodd" d="M3.98712 3.34256C3.69829 3.34256 3.46387 3.10814 3.46387 2.8193V0.523256C3.46387 0.234419 3.69829 0 3.98712 0C4.27596 0 4.51038 0.234419 4.51038 0.523256V2.8193C4.51038 3.10814 4.27596 3.34256 3.98712 3.34256Z" fill="#5B5B5B"/>
<mask id="mask0_3878_5847" style="mask-type:luminance" maskUnits="userSpaceOnUse" x="0" y="1" width="14" height="14">
<path fill-rule="evenodd" clip-rule="evenodd" d="M0 1.10156H13.6047V14.9999H0V1.10156Z" fill="white"/>
</mask>
<g mask="url(#mask0_3878_5847)">
<path fill-rule="evenodd" clip-rule="evenodd" d="M3.85186 2.14798C2.04279 2.14798 1.04651 3.11286 1.04651 4.86472V11.178C1.04651 12.9682 2.04279 13.9533 3.85186 13.9533H9.75279C11.5619 13.9533 12.5581 12.9863 12.5581 11.231V4.86472C12.5609 4.00309 12.3293 3.33332 11.8695 2.87286C11.3965 2.39844 10.6674 2.14798 9.75907 2.14798H3.85186ZM9.75279 14.9999H3.85186C1.47628 14.9999 0 13.5355 0 11.1781V4.86482C0 2.54296 1.47628 1.10156 3.85186 1.10156H9.75907C10.9514 1.10156 11.9372 1.45877 12.6105 2.13342C13.2642 2.78993 13.6081 3.73389 13.6047 4.86621V11.2311C13.6047 13.5557 12.1284 14.9999 9.75279 14.9999Z" fill="#5B5B5B"/>
</g>
</svg>
