<svg width="32" height="24" viewBox="0 0 32 24" fill="none" xmlns="http://www.w3.org/2000/svg">
<path fill-rule="evenodd" clip-rule="evenodd" d="M23.175 2.2848C23.2709 1.70057 23.8222 1.30467 24.4065 1.40054C26.8669 1.8043 28.7439 3.937 28.7439 6.51202L28.7439 6.51424C28.7385 9.12667 26.8023 11.281 24.2877 11.6344C23.7014 11.7167 23.1593 11.3082 23.077 10.7219C22.9946 10.1356 23.4031 9.59357 23.9894 9.5112C25.4623 9.30425 26.5962 8.04019 26.5999 6.51088C26.5993 5.0042 25.5006 3.75279 24.0593 3.51626C23.475 3.42038 23.0792 2.86904 23.175 2.2848Z" fill="#5B5B5B"/>
<path fill-rule="evenodd" clip-rule="evenodd" d="M25.7092 15.2076C25.7967 14.622 26.3424 14.2183 26.9279 14.3059C27.9512 14.4589 28.9511 14.7297 29.7209 15.2346C30.5447 15.7748 31.1203 16.6035 31.1203 17.7245C31.1203 18.4658 30.8659 19.1138 30.406 19.6342C29.9658 20.1322 29.3799 20.4671 28.7696 20.7C28.2165 20.9111 27.597 20.6338 27.3859 20.0806C27.1748 19.5275 27.4521 18.908 28.0052 18.6969C28.4213 18.5381 28.6658 18.3656 28.7995 18.2143C28.9134 18.0854 28.9763 17.9423 28.9763 17.7245C28.9763 17.452 28.8781 17.2458 28.5451 17.0274C28.1582 16.7736 27.5187 16.5621 26.6109 16.4263C26.0254 16.3388 25.6216 15.7931 25.7092 15.2076Z" fill="#5B5B5B"/>
<path fill-rule="evenodd" clip-rule="evenodd" d="M9.23787 15.6364C10.9656 15.057 13.2403 14.8853 15.5602 14.8853C17.8937 14.8853 20.1693 15.0629 21.895 15.6494C22.7635 15.9446 23.5709 16.3689 24.1705 16.9972C24.7949 17.6515 25.1482 18.4817 25.1482 19.4577C25.1482 20.4361 24.7916 21.2659 24.1632 21.9176C23.5604 22.5427 22.75 22.962 21.8809 23.2527C20.1536 23.8303 17.8793 24.0002 15.5602 24.0002C13.2269 24.0002 10.9511 23.8233 9.22532 23.238C8.35683 22.9435 7.54915 22.52 6.94923 21.8925C6.32446 21.2389 5.9707 20.4093 5.9707 19.4334C5.9707 18.4552 6.32753 17.6254 6.95561 16.9736C7.55826 16.3482 8.3686 15.928 9.23787 15.6364ZM8.49948 18.4613C8.24834 18.7219 8.11472 19.0216 8.11472 19.4334C8.11472 19.8469 8.24837 20.1487 8.49902 20.4109C8.77453 20.6991 9.2303 20.9757 9.9139 21.2076C11.2923 21.675 13.2753 21.8562 15.5602 21.8562C17.8349 21.8562 19.8186 21.6816 21.2009 21.2193C21.8866 20.99 22.3438 20.7157 22.6199 20.4293C22.8705 20.1694 23.0042 19.8701 23.0042 19.4577C23.0042 19.043 22.8702 18.7402 22.6194 18.4774C22.3439 18.1887 21.8883 17.9116 21.205 17.6794C19.8273 17.2111 17.8448 17.0293 15.5602 17.0293C13.2861 17.0293 11.3021 17.2055 9.91957 17.6692C9.23372 17.8992 8.77605 18.1743 8.49948 18.4613Z" fill="#5B5B5B"/>
<path fill-rule="evenodd" clip-rule="evenodd" d="M9.03129 6.52862C9.03239 2.92303 11.9561 0 15.562 0C19.1685 0 22.0926 2.92413 22.0926 6.53067C22.0926 10.1388 19.1683 13.0613 15.562 13.0613H15.5219L15.5184 13.0613C11.922 13.0493 9.01871 10.1241 9.03129 6.52862ZM9.03129 6.52862C9.03129 6.52794 9.0313 6.52727 9.0313 6.52659L10.1033 6.53067H9.03129C9.03129 6.52999 9.03129 6.5293 9.03129 6.52862ZM15.562 2.14401C13.1395 2.14401 11.1753 4.10824 11.1753 6.53067V6.53475H11.1753C11.1661 8.9467 13.1126 10.9083 15.5238 10.9173H15.562C17.9846 10.9173 19.9486 8.95434 19.9486 6.53067C19.9486 4.10824 17.9844 2.14401 15.562 2.14401Z" fill="#5B5B5B"/>
<path fill-rule="evenodd" clip-rule="evenodd" d="M7.94581 2.2848C8.04169 2.86904 7.64579 3.42038 7.06155 3.51626C5.62018 3.75279 4.52151 5.00421 4.52097 6.51091C4.52468 8.04052 5.65743 9.30424 7.13134 9.51118C7.71765 9.5935 8.12621 10.1355 8.04389 10.7218C7.96157 11.3081 7.41955 11.7167 6.83324 11.6344C4.31679 11.2811 2.38236 9.12635 2.37696 6.51424L2.37695 6.51202C2.37695 3.937 4.25398 1.8043 6.71436 1.40054C7.2986 1.30467 7.84994 1.70057 7.94581 2.2848Z" fill="#5B5B5B"/>
<path fill-rule="evenodd" clip-rule="evenodd" d="M5.41114 15.2076C5.49869 15.7931 5.09499 16.3388 4.50944 16.4263C3.60161 16.5621 2.96212 16.7736 2.57524 17.0274C2.24228 17.2458 2.14401 17.452 2.14401 17.7245C2.14401 17.9423 2.20693 18.0854 2.32083 18.2143C2.45458 18.3656 2.69906 18.5381 3.11511 18.6969C3.66826 18.908 3.94555 19.5275 3.73446 20.0806C3.52337 20.6338 2.90384 20.9111 2.35069 20.7C1.74047 20.4671 1.15451 20.1322 0.71438 19.6342C0.254402 19.1138 0 18.4658 0 17.7245C0 16.6035 0.575673 15.7748 1.39941 15.2346C2.16922 14.7297 3.16918 14.4589 4.19239 14.3059C4.77794 14.2183 5.32359 14.622 5.41114 15.2076Z" fill="#5B5B5B"/>
</svg>
