<svg width="840" height="1024" viewBox="0 0 840 1024" fill="none" xmlns="http://www.w3.org/2000/svg">
<mask id="mask0_4022_13977" style="mask-type:alpha" maskUnits="userSpaceOnUse" x="0" y="0" width="840" height="1024">
<rect width="840" height="1024" fill="#F6F7FF"/>
</mask>
<g mask="url(#mask0_4022_13977)">
<path d="M712.382 1020.68H-22.8248C-41.9609 991.437 -131.941 735.827 -76.4259 704.87C-14.6265 670.409 -220.712 342.069 -84.3019 260.941C205.659 88.4523 155.644 351.716 324.404 413.529C493.183 475.322 530.67 351.616 644.076 424.708C798.494 524.245 603.387 646.884 724.689 728.798C852.095 814.84 749.506 1000.68 712.382 1020.7V1020.68Z" fill="#F1F0FF"/>
<g style="mix-blend-mode:multiply" opacity="0.18">
<path d="M206.081 972.24C119.908 929.682 66.307 828.554 117.793 773.488C180.035 706.942 110.259 622.893 268.162 556.146C392.969 503.396 636.803 479.569 686.274 305.148C735.766 130.726 825.182 104.24 825.182 104.24L882.147 331.23L365.836 964.869L206.101 972.22L206.081 972.24Z" fill="#D2D0FF" fill-opacity="0.15"/>
</g>
<path d="M337.423 396.812C337.423 396.812 395.415 439.773 498.608 397.718C601.802 355.644 296.753 359.611 337.423 396.812Z" fill="#D2D0FF" fill-opacity="0.15"/>
<g style="mix-blend-mode:multiply" opacity="0.18">
<path d="M370.134 403.076C344.995 380.095 451.774 369.803 512.768 375.201C475.281 359.45 306.501 368.534 337.421 396.812C337.421 396.812 358.31 412.281 397.307 415.564C379.46 410.005 370.114 403.076 370.114 403.076H370.134Z" fill="#AFDDFD"/>
</g>
<g style="mix-blend-mode:multiply" opacity="0.18">
<path d="M644.96 743.319C545.03 670.167 692.78 445.413 499.002 495.383C305.205 545.353 212.445 485.171 141.581 367.527C95.1513 290.467 45.2969 239.067 0.498413 218.705C197.237 144.444 174.395 358.564 324.421 413.509C493.201 475.302 530.688 351.595 644.094 424.687C798.511 524.225 603.404 646.864 724.707 728.778C852.113 814.82 749.523 1000.66 712.399 1020.68H652.957C733.711 892.263 737.88 811.336 644.98 743.319H644.96Z" fill="#AFDDFD"/>
</g>
<path d="M320.63 919.534C372.805 919.534 415.101 916.468 415.101 912.686C415.101 908.904 372.805 905.838 320.63 905.838C268.455 905.838 226.158 908.904 226.158 912.686C226.158 916.468 268.455 919.534 320.63 919.534Z" fill="#D4ECFF"/>
<path d="M496.862 917.721C549.037 917.721 591.334 914.655 591.334 910.873C591.334 907.091 549.037 904.025 496.862 904.025C444.687 904.025 402.391 907.091 402.391 910.873C402.391 914.655 444.687 917.721 496.862 917.721Z" fill="#D4ECFF"/>
<path d="M681.376 917.721C733.551 917.721 775.847 914.655 775.847 910.873C775.847 907.091 733.551 904.025 681.376 904.025C629.201 904.025 586.904 907.091 586.904 910.873C586.904 914.655 629.201 917.721 681.376 917.721Z" fill="#D4ECFF"/>
<path d="M591.008 582.776C589.438 577.734 592.247 572.379 597.289 570.809C602.332 569.239 607.688 572.048 609.258 577.089C610.829 582.13 608.02 587.485 602.977 589.055C597.935 590.625 592.578 587.817 591.008 582.776Z" fill="white"/>
<path d="M600.133 590.346C598.476 590.346 596.818 589.945 595.317 589.16C592.857 587.869 591.043 585.689 590.205 583.037C589.368 580.386 589.629 577.56 590.921 575.1C592.212 572.641 594.393 570.827 597.045 569.989C599.697 569.152 602.523 569.414 604.984 570.704C607.444 571.995 609.258 574.176 610.096 576.827C611.806 582.305 608.735 588.166 603.256 589.875C602.227 590.189 601.18 590.346 600.133 590.346ZM600.151 571.228C599.278 571.228 598.406 571.367 597.551 571.629C595.335 572.327 593.52 573.844 592.439 575.885C591.357 577.944 591.147 580.299 591.845 582.514C592.543 584.729 594.061 586.543 596.103 587.625C598.161 588.706 600.517 588.916 602.733 588.218C607.304 586.788 609.869 581.903 608.438 577.316C607.74 575.1 606.222 573.286 604.181 572.205C602.925 571.542 601.546 571.21 600.151 571.21V571.228Z" fill="#D1D1D1"/>
<path d="M443.185 935.385C653.12 935.385 823.307 924.744 823.307 911.618C823.307 898.492 653.12 887.852 443.185 887.852C233.249 887.852 63.0625 898.492 63.0625 911.618C63.0625 924.744 233.249 935.385 443.185 935.385Z" fill="#E6E5FF"/>
<path d="M699.099 620.185H679.662V646.089H699.099V620.185Z" fill="#D1D1D1"/>
<path d="M699.099 646.944H679.662C679.191 646.944 678.807 646.56 678.807 646.089V620.185C678.807 619.714 679.191 619.33 679.662 619.33H699.099C699.57 619.33 699.954 619.714 699.954 620.185V646.089C699.954 646.56 699.57 646.944 699.099 646.944ZM680.517 645.234H698.244V621.057H680.517V645.234Z" fill="#D1D1D1"/>
<path d="M733.804 659.704H714.367C713.896 659.704 713.512 659.32 713.512 658.849V608.523C713.512 608.052 713.896 607.668 714.367 607.668H733.804C734.275 607.668 734.659 608.052 734.659 608.523V658.849C734.659 659.32 734.275 659.704 733.804 659.704ZM715.222 657.994H732.949V609.378H715.222V657.994Z" fill="#D1D1D1"/>
<path d="M356.977 796.753H232.936V908.214H356.977V796.753Z" fill="#5C87C7"/>
<path d="M347.672 832.584V806.059H242.242V832.584H347.672Z" fill="#AFDDFD"/>
<path d="M347.65 865.998V839.473H242.221V865.998H347.65Z" fill="#AFDDFD"/>
<path d="M347.672 900.782V874.256H242.242V900.782H347.672Z" fill="#AFDDFD"/>
<path d="M294.936 825.354C297.85 825.354 300.213 822.991 300.213 820.077C300.213 817.162 297.85 814.8 294.936 814.8C292.021 814.8 289.658 817.162 289.658 820.077C289.658 822.991 292.021 825.354 294.936 825.354Z" fill="#6A99DE"/>
<path d="M300.213 853.35C300.213 856.25 297.856 858.627 294.936 858.627C292.015 858.627 289.658 856.27 289.658 853.35C289.658 850.429 292.015 848.073 294.936 848.073C297.856 848.073 300.213 850.429 300.213 853.35Z" fill="#6A99DE"/>
<path d="M300.213 890.128C300.213 893.028 297.856 895.404 294.936 895.404C292.015 895.404 289.658 893.048 289.658 890.128C289.658 887.207 292.015 884.851 294.936 884.851C297.856 884.851 300.213 887.207 300.213 890.128Z" fill="#6A99DE"/>
<path d="M356.433 472.281H155.082C147.45 472.281 141.264 478.467 141.264 486.098V614.537C141.264 622.168 147.45 628.354 155.082 628.354H356.433C364.065 628.354 370.252 622.168 370.252 614.537V486.098C370.252 478.467 364.065 472.281 356.433 472.281Z" fill="white"/>
<path d="M361.287 484.728V615.907C361.287 617.84 359.716 619.411 357.782 619.411H153.711C151.778 619.411 150.207 617.84 150.207 615.907V484.748C150.207 482.815 151.778 481.244 153.711 481.244H357.782C359.716 481.244 361.287 482.815 361.287 484.748V484.728Z" fill="#D4ECFF"/>
<path d="M358.246 481.224H298.643C301.865 496.712 314.012 547.548 339.352 572.886H361.308V484.265C361.308 482.593 359.938 481.224 358.266 481.224H358.246Z" fill="#6A99DE"/>
<path d="M339.332 572.886V586.36H360.926L361.288 572.886H339.332Z" fill="#5C87C7"/>
<path d="M361.287 616.35V586.561L360.925 586.36H339.331C339.331 586.36 329.038 613.006 328.434 619.23L328.796 619.391H358.245C359.917 619.391 361.287 618.022 361.287 616.35Z" fill="#6A99DE"/>
<path d="M153.712 481.224H213.316C210.093 496.712 197.947 547.548 172.606 572.886H150.65V484.265C150.65 482.593 152.02 481.224 153.692 481.224H153.712Z" fill="#6A99DE"/>
<path d="M172.626 572.886V586.36H151.033L150.67 572.886H172.626Z" fill="#5C87C7"/>
<path d="M150.67 616.35V586.561L151.033 586.36H172.626C172.626 586.36 182.919 613.006 183.523 619.23L183.161 619.391H153.712C152.04 619.391 150.67 618.022 150.67 616.35Z" fill="#6A99DE"/>
<path d="M550.452 479.37H450.844C447.073 479.37 444.016 482.427 444.016 486.198V549.743C444.016 553.514 447.073 556.571 450.844 556.571H550.452C554.224 556.571 557.281 553.514 557.281 549.743V486.198C557.281 482.427 554.224 479.37 550.452 479.37Z" fill="#6A99DE"/>
<path d="M557.281 490.589V485.292C557.281 482.009 554.623 479.35 551.339 479.35H449.938C446.655 479.35 443.996 482.009 443.996 485.292V490.589H557.261H557.281Z" fill="#5C87C7"/>
<path d="M467.443 501.405H452.315C451.414 501.405 450.684 502.135 450.684 503.036V518.122C450.684 519.023 451.414 519.753 452.315 519.753H467.443C468.344 519.753 469.074 519.023 469.074 518.122V503.036C469.074 502.135 468.344 501.405 467.443 501.405Z" fill="#AFDDFD"/>
<path d="M494.716 501.405H479.589C478.688 501.405 477.957 502.135 477.957 503.036V518.122C477.957 519.023 478.688 519.753 479.589 519.753H494.716C495.617 519.753 496.348 519.023 496.348 518.122V503.036C496.348 502.135 495.617 501.405 494.716 501.405Z" fill="white"/>
<path d="M521.849 501.405H506.721C505.82 501.405 505.09 502.135 505.09 503.036V518.122C505.09 519.023 505.82 519.753 506.721 519.753H521.849C522.75 519.753 523.481 519.023 523.481 518.122V503.036C523.481 502.135 522.75 501.405 521.849 501.405Z" fill="#C9515B"/>
<path d="M548.056 501.405H532.928C532.027 501.405 531.297 502.135 531.297 503.036V518.122C531.297 519.023 532.027 519.753 532.928 519.753H548.056C548.957 519.753 549.688 519.023 549.688 518.122V503.036C549.688 502.135 548.957 501.405 548.056 501.405Z" fill="#AFDDFD"/>
<path d="M467.443 526.984H452.315C451.414 526.984 450.684 527.714 450.684 528.615V543.701C450.684 544.602 451.414 545.332 452.315 545.332H467.443C468.344 545.332 469.074 544.602 469.074 543.701V528.615C469.074 527.714 468.344 526.984 467.443 526.984Z" fill="#C9515B"/>
<path d="M494.716 526.984H479.589C478.688 526.984 477.957 527.714 477.957 528.615V543.701C477.957 544.602 478.688 545.332 479.589 545.332H494.716C495.617 545.332 496.348 544.602 496.348 543.701V528.615C496.348 527.714 495.617 526.984 494.716 526.984Z" fill="#AFDDFD"/>
<path d="M521.849 526.984H506.721C505.82 526.984 505.09 527.714 505.09 528.615V543.701C505.09 544.602 505.82 545.332 506.721 545.332H521.849C522.75 545.332 523.481 544.602 523.481 543.701V528.615C523.481 527.714 522.75 526.984 521.849 526.984Z" fill="white"/>
<path d="M548.056 526.984H532.928C532.027 526.984 531.297 527.714 531.297 528.615V543.701C531.297 544.602 532.027 545.332 532.928 545.332H548.056C548.957 545.332 549.688 544.602 549.688 543.701V528.615C549.688 527.714 548.957 526.984 548.056 526.984Z" fill="#AFDDFD"/>
<path d="M667.961 503.959C683.811 488.11 683.811 462.413 667.961 446.564C652.11 430.715 626.411 430.715 610.56 446.564C594.709 462.413 594.709 488.11 610.56 503.959C626.411 519.808 652.11 519.808 667.961 503.959Z" fill="#5C87C7"/>
<path d="M639.264 505.151C655.773 505.151 669.156 491.769 669.156 475.261C669.156 458.754 655.773 445.372 639.264 445.372C622.754 445.372 609.371 458.754 609.371 475.261C609.371 491.769 622.754 505.151 639.264 505.151Z" fill="white"/>
<path d="M629.857 488.333C629.474 488.333 629.111 488.172 628.849 487.87C628.366 487.306 628.426 486.48 628.99 485.996L638.256 478V456.933C638.256 456.188 638.861 455.604 639.586 455.604C640.311 455.604 640.915 456.208 640.915 456.933V478.605C640.915 478.987 640.754 479.37 640.452 479.612L630.723 488.011C630.481 488.232 630.159 488.333 629.857 488.333Z" fill="#6A99DE"/>
<path d="M537.46 596.39H423.248C416.462 596.39 410.961 601.891 410.961 608.676V670.187C410.961 676.972 416.462 682.473 423.248 682.473H537.46C544.246 682.473 549.748 676.972 549.748 670.187V608.676C549.748 601.891 544.246 596.39 537.46 596.39Z" fill="#6A99DE"/>
<path d="M542.697 597.035C538.587 598.525 535.646 602.432 535.646 607.045V671.798C535.646 676.411 538.587 680.338 542.697 681.808C546.806 680.318 549.747 676.411 549.747 671.798V607.045C549.747 602.432 546.806 598.505 542.697 597.035Z" fill="#5C87C7"/>
<path d="M503.901 704.89H488.693V646.481H457.914V704.89C457.914 709.865 461.963 713.913 466.938 713.913H504.163C506.741 713.913 508.796 711.758 508.675 709.16C508.554 706.723 506.358 704.89 503.921 704.89H503.901Z" fill="#6A99DE"/>
<path d="M508.676 709.402C508.676 706.904 506.662 704.89 504.164 704.89H488.694V646.481H478.26V704.89C478.26 709.865 482.309 713.913 487.284 713.913H504.164C506.662 713.913 508.676 711.899 508.676 709.402Z" fill="#5C87C7"/>
<path d="M509.259 602.855H440.792C439.141 602.855 437.791 604.205 437.791 605.856C437.791 607.508 439.141 608.858 440.792 608.858H509.259C510.911 608.858 512.26 607.508 512.26 605.856C512.26 604.205 510.911 602.855 509.259 602.855Z" fill="#5C87C7"/>
<path d="M679.994 687.166H564.715V714.8H679.994V687.166Z" fill="#6A99DE"/>
<path d="M672.5 667.851H553.635V687.166H672.5V667.851Z" fill="#5C87C7"/>
<path d="M679.149 643.621H565.219V667.811H679.149V643.621Z" fill="#5C87C7"/>
<path d="M679.149 659.331H565.219V667.81H679.149V659.331Z" fill="#6A99DE"/>
<path d="M121.1 821.245L123.114 821.668C125.471 815.344 127.606 805.596 124.142 795.364C118.24 777.902 115.4 755.928 104.099 739.412C88.6695 716.854 84.9632 667.831 84.9632 667.831C84.9632 667.831 66.1696 706.723 78.9807 743.4C91.7917 780.077 106.939 789.684 114.594 796.834C122.772 804.488 122.611 814.397 121.1 821.245Z" fill="#5C87C7"/>
<path d="M121.524 821.346L123.095 821.668C125.452 815.344 127.587 805.596 124.122 795.364C118.22 777.902 115.38 755.928 104.08 739.412C88.6501 716.854 84.9438 667.831 84.9438 667.831C84.9438 667.831 74.5499 720.258 86.5955 738.727C98.621 757.197 99.1649 752.705 107.826 770.248C116.468 787.791 119.207 792.766 121.826 802.977C123.518 809.503 122.491 816.875 121.524 821.366V821.346Z" fill="#6A99DE"/>
<path d="M131.07 835.566C131.07 835.566 134.917 829.845 132.661 808.456C130.405 787.066 124.262 766.623 127.706 743.299C131.151 719.976 156.591 660.842 156.712 656.934C156.853 653.027 163.44 724.991 150.327 753.652C137.193 782.313 135.542 792.202 135.904 807.126C136.287 822.051 135.421 834.095 133.971 837.6L131.05 835.545L131.07 835.566Z" fill="#5C87C7"/>
<path d="M133.951 792.423C135.321 801.95 135.905 825.918 133.447 831.698C133.226 832.242 132.904 831.94 132.521 830.953C133.286 826.965 133.85 820.016 132.642 808.475C130.386 787.086 124.242 766.642 127.686 743.319C131.131 719.996 156.572 660.861 156.693 656.954C156.693 656.954 152.342 705.877 139.39 739.774C130.104 764.024 132.581 782.896 133.931 792.423H133.951Z" fill="#6A99DE"/>
<path d="M144.849 831.034C144.849 831.034 133.71 800.339 152.323 773.873C170.935 747.408 200.727 713.45 201.271 699.956C201.271 699.956 209.187 764.065 184.894 782.111C160.601 800.157 143.54 802.977 147.871 830.913L144.849 831.014V831.034Z" fill="#5C87C7"/>
<path d="M170.895 769.2C143.823 791.074 141.687 816.371 145.938 828.133C146.26 829.04 146.884 829.604 147.71 829.906C143.984 802.957 160.904 799.956 184.874 782.131C209.167 764.085 201.251 699.976 201.251 699.976C201.251 699.976 197.967 747.327 170.895 769.2Z" fill="#6A99DE"/>
<path d="M111.552 838.506L105.428 816.371C82.6261 735.505 18.8125 732.806 18.8125 732.806C25.4799 734.135 60.1262 760.54 65.4843 784.024C68.0022 795.062 79.2824 802.897 89.2331 808.073C96.4041 811.819 101.722 818.425 103.938 826.2C105.831 832.867 106.838 838.768 106.838 838.768L111.552 838.486V838.506Z" fill="#5C87C7"/>
<path d="M76.8456 785.152C84.2986 799.473 93.9069 805.273 102.528 807.247C77.6917 735.343 18.793 732.806 18.793 732.806C20.1023 733.067 22.5396 734.336 25.6014 736.351C37.8686 743.198 63.6519 759.875 76.8255 785.152H76.8456Z" fill="#6A99DE"/>
<path d="M159.695 819.09H92.9812C85.0246 819.09 78.9817 826.281 80.3716 834.116L92.3568 901.649C93.2028 906.402 97.3321 909.866 102.167 909.866H150.51C155.345 909.866 159.474 906.402 160.32 901.649L172.305 834.116C173.695 826.281 167.672 819.09 159.695 819.09Z" fill="#AFDDFD"/>
<path opacity="0.56" d="M172.003 828.416C171.842 827.812 171.6 827.248 171.358 826.684C171.298 826.563 171.258 826.462 171.197 826.341C170.653 825.234 169.969 824.206 169.143 823.3C169.062 823.199 168.961 823.099 168.861 822.998C168.438 822.555 167.995 822.132 167.511 821.769C167.028 821.407 166.524 821.084 166 820.782C165.88 820.702 165.739 820.641 165.618 820.581C165.074 820.299 164.51 820.037 163.926 819.836C163.926 819.836 163.926 819.836 163.906 819.836C163.321 819.634 162.717 819.493 162.113 819.373C161.952 819.352 161.79 819.312 161.649 819.292C161.025 819.191 160.38 819.131 159.716 819.131H93.0015C87.0592 819.131 82.1846 823.139 80.6738 828.456H155.002C155.506 830.249 155.627 832.182 155.284 834.176L143.299 901.709C142.453 906.463 138.324 909.927 133.489 909.927H150.51C155.345 909.927 159.474 906.463 160.32 901.709L172.305 834.176C172.648 832.202 172.527 830.249 172.023 828.456L172.003 828.416Z" fill="#5C87C7"/>
<path d="M823 714H390V722H823V714Z" fill="#5C87C7"/>
<path d="M405.623 905.294L472.498 721.486H478.763L411.908 905.294H405.623Z" fill="#5C87C7"/>
<path d="M499.209 905.294L432.354 721.486H438.618L505.473 905.294H499.209Z" fill="#5C87C7"/>
<path d="M425.928 721.486H485.189V725.575C485.189 728.334 482.933 730.59 480.173 730.59H430.943C428.184 730.59 425.928 728.334 425.928 725.575V721.486Z" fill="#5C87C7"/>
<path d="M485.168 724.165C485.168 724.165 485.168 724.105 485.168 724.085V721.486H425.906V724.085C425.906 724.085 425.906 724.145 425.906 724.165H485.147H485.168Z" fill="#366DBF"/>
<path d="M692.199 905.294L759.054 721.486H765.339L698.464 905.294H692.199Z" fill="#5C87C7"/>
<path d="M785.763 905.294L718.908 721.486H725.173L792.048 905.294H785.763Z" fill="#5C87C7"/>
<path d="M712.484 721.486H771.746V725.575C771.746 728.334 769.49 730.59 766.73 730.59H717.5C714.74 730.59 712.484 728.334 712.484 725.575V721.486Z" fill="#5C87C7"/>
<path d="M771.746 724.165C771.746 724.165 771.746 724.105 771.746 724.085V721.486H712.484V724.085C712.484 724.085 712.484 724.145 712.484 724.165H771.726H771.746Z" fill="#366DBF"/>
<path d="M604.376 593.933C610.117 594.919 637.451 599.592 642.789 603.298C647.381 606.501 669.62 671.516 664.926 674.9C660.233 678.283 632.375 681.405 632.375 681.405L635.497 704.87L603.61 712.12C595.956 713.853 588.02 714.034 580.305 712.624L553.474 707.73L558.933 639.995L523.219 660.499C520.62 661.848 517.418 660.882 516.008 658.324L477.957 592.543L488.714 587.467L521.446 626.722L552.95 601.727C552.95 601.727 560.041 596.772 586.146 594.557L604.376 593.912V593.933Z" fill="#C9515B"/>
<path d="M487.907 588.172C487.907 588.172 482.388 576.833 480.394 576.269C478.42 575.705 480.213 580.841 480.213 580.841C480.213 580.841 473.324 575.564 467.885 576.309C462.446 577.054 477.936 586.863 479.467 592.14C479.467 592.14 488.23 588.213 487.907 588.172Z" fill="#EDBC9C"/>
<path d="M518.766 672.966H573.777C577.303 672.966 580.162 670.107 580.162 666.581V634.577C580.162 631.051 577.303 628.192 573.777 628.192H518.766C515.239 628.192 512.38 631.051 512.38 634.577V666.581C512.38 670.107 515.239 672.966 518.766 672.966Z" fill="white"/>
<path d="M548.438 672.946H596.419C598.997 672.946 601.112 670.851 601.112 668.253V668.756C601.112 666.178 599.017 664.063 596.419 664.063H548.438C545.859 664.063 543.744 666.158 543.744 668.756V668.253C543.744 670.831 545.839 672.946 548.438 672.946Z" fill="white"/>
<path d="M585.642 664.104V667.427C585.642 670.469 583.185 672.946 580.143 672.966H574.664C577.706 672.946 580.163 670.469 580.163 667.427V664.104H585.642Z" fill="#E3DFED"/>
<path d="M535.848 653.308C535.848 649.038 539.312 645.574 543.583 645.574C547.853 645.574 551.318 649.038 551.318 653.308C551.318 657.578 547.853 661.043 543.583 661.043C539.312 661.043 535.848 657.578 535.848 653.308Z" fill="#C9515B"/>
<path d="M631.125 651.516L624.659 623.641L637.108 656.128C638.236 658.948 636.503 662.09 633.522 662.634L600.971 670.005L626.432 660.056C629.997 658.888 632.052 655.141 631.125 651.516Z" fill="#983F46"/>
<path d="M631.912 681.566L593.881 684.87L593.357 671.798L633.523 662.634L631.912 681.566Z" fill="#C9515B"/>
<path d="M617.187 687.186C618.073 687.589 619.14 698.525 619.926 708.475L635.033 705.031L631.911 681.566L593.881 684.87C593.881 684.87 615.535 686.441 617.187 687.186Z" fill="#983F46"/>
<path d="M593.781 681.688C593.781 681.688 587.093 683.863 578.754 675.484C577.867 674.598 578.492 673.067 579.741 673.047L593.237 672.946L593.76 681.688H593.781Z" fill="#EDBC9C"/>
<path d="M632.416 891.114L613.582 890.832C609.996 877.841 592.028 740.922 592.028 740.922L568.602 790.912L580.104 890.792L562.519 890.893C562.519 890.893 534.902 804.568 534.902 786.602C534.902 772.906 548.7 728.616 555.267 708.314L555.791 708.173L580.325 712.644C588.04 714.054 595.956 713.893 603.631 712.14L632.335 705.615H632.395C635.236 743.138 632.436 891.114 632.436 891.114H632.416Z" fill="#5750E4"/>
<path d="M632.416 891.114C632.416 891.114 633.766 823.541 633.685 768.757C633.685 768.717 633.685 768.676 633.685 768.616C633.685 767.428 633.685 766.219 633.685 765.051C633.685 764.547 633.685 764.064 633.685 763.561C633.685 762.835 633.685 762.11 633.685 761.385C633.604 737.619 633.242 716.793 632.376 705.635L619.947 708.455L625.809 890.812L632.194 891.074H632.436L632.416 891.114Z" fill="#2F28BA"/>
<path d="M575.269 890.933L580.084 890.771L568.582 790.892L592.028 740.922L557.725 789.724L575.269 890.933Z" fill="#2F28BA"/>
<path d="M563.928 890.792C559.718 899.231 539.998 903.34 539.998 903.34C539.998 903.34 538.547 905.837 540.783 909.019C542.999 912.202 563.726 910.449 566.325 909.885C568.923 909.342 570.736 907.247 570.736 907.247C570.736 907.247 572.469 909.16 573.435 909.624C574.402 910.087 579.7 909.08 579.7 909.08C580.969 905.716 579.841 892.826 579.498 890.771H563.948L563.928 890.792Z" fill="#0B3E8A"/>
<path d="M614.75 890.792C610.54 899.231 590.82 903.34 590.82 903.34C590.82 903.34 589.37 905.837 591.606 909.019C593.821 912.202 614.549 910.449 617.147 909.885C619.746 909.342 621.558 907.247 621.558 907.247C621.558 907.247 623.291 909.16 624.258 909.624C625.224 910.107 630.522 909.08 630.522 909.08C631.791 905.716 630.663 892.826 630.321 890.771H614.77L614.75 890.792Z" fill="#0B3E8A"/>
<path d="M602.078 577.981V593.751L592.792 600.398L586.527 594.355L586.668 587.89C587.454 588.051 588.26 588.132 589.086 588.132C595.128 588.132 600.225 583.801 601.695 577.94C601.836 577.961 601.957 577.961 602.078 577.961V577.981Z" fill="#EDBC9C"/>
<path d="M605.845 567.809C604.012 565.856 601.876 567.427 601.876 567.427C601.876 567.427 601.856 567.467 601.796 567.528C596.337 566.238 588.743 560.458 588.743 560.458C583.606 563.56 576.053 566.339 576.053 566.339V574.516C576.053 582.049 581.874 588.152 589.085 588.152C595.148 588.152 600.225 583.822 601.695 577.961C606.187 578.585 607.657 569.743 605.845 567.809Z" fill="#EDBC9C"/>
<path d="M602.098 584.144H602.078V577.981C606.248 578.061 607.597 569.683 605.825 567.789C603.992 565.836 601.857 567.407 601.857 567.407C601.857 567.407 601.837 567.447 601.776 567.508C596.337 566.218 588.764 563.238 588.764 563.238C582.197 567.105 576.033 566.319 576.033 566.319C574.119 565.856 566.707 563.379 567.009 553.791C567.311 544.104 593.397 532.784 607.819 548.615C613.459 554.778 616.783 581.586 602.098 584.144Z" fill="#5750E4"/>
<path d="M589.086 588.132C588.26 588.132 587.454 588.031 586.668 587.87L586.527 594.355L590.556 598.243V590.629C600.97 590.629 601.695 577.94 601.695 577.94C600.245 583.801 595.149 588.132 589.086 588.132Z" fill="#DD9F80"/>
<path d="M601.856 567.427C601.856 567.427 601.836 567.467 601.775 567.528C601.03 567.346 600.244 567.084 599.419 566.762C599.68 570.065 599.781 578.303 595.35 582.734C594.282 581.364 591.784 578.464 589.468 578.001C587.272 577.578 583.989 577.88 582.277 578.102C581.572 578.182 580.927 578.484 580.403 578.988L578.127 581.123C577.563 580.378 577.039 579.511 576.576 578.484C578.188 584.084 583.163 588.172 589.065 588.172C594.967 588.172 600.204 583.842 601.675 577.981C602.057 578.041 602.42 577.981 602.762 577.92L601.856 567.447V567.427ZM591.341 583.036C585.943 585.554 582.196 583.54 581.189 582.271C580.947 581.969 580.988 581.566 581.229 581.284L582.156 580.277C583.203 579.129 586.547 579.552 587.957 579.552C589.448 579.552 590.556 580.821 591.381 581.687C591.724 582.049 591.764 582.835 591.341 583.036Z" fill="#5750E4"/>
<path d="M442.687 890.772C440.35 821.749 431.245 695.343 431.245 695.343H362.416C362.416 695.343 353.311 821.749 350.975 890.772H370.554C370.554 890.772 392.792 742.312 397.103 728.717C401.413 742.312 423.087 890.772 423.087 890.772H442.666H442.687Z" fill="#5750E4"/>
<path d="M442.686 890.772H436.563L416.561 695.343H431.265C431.265 695.343 440.39 821.749 442.706 890.772H442.686Z" fill="#275CAB"/>
<path d="M442.686 890.772H436.563L416.561 695.343H431.265C431.265 695.343 440.39 821.749 442.706 890.772H442.686Z" fill="#2F28BA"/>
<path d="M353.15 890.792C348.94 899.231 329.22 903.34 329.22 903.34C329.22 903.34 327.77 905.838 330.006 909.02C332.222 912.202 352.949 910.45 355.547 909.886C358.146 909.342 359.959 907.247 359.959 907.247C359.959 907.247 361.691 909.161 362.658 909.624C363.625 910.107 368.923 909.08 368.923 909.08C370.192 905.717 369.064 892.826 368.721 890.772H353.171L353.15 890.792Z" fill="#0B3E8A"/>
<path d="M440.188 890.792C444.398 899.231 464.119 903.34 464.119 903.34C464.119 903.34 465.569 905.838 463.333 909.02C461.117 912.202 440.39 910.45 437.791 909.886C435.193 909.342 433.38 907.247 433.38 907.247C433.38 907.247 431.648 909.161 430.681 909.624C429.714 910.087 424.416 909.08 424.416 909.08C423.147 905.717 424.275 892.826 424.618 890.772H440.168L440.188 890.792Z" fill="#0B3E8A"/>
<path d="M411.284 586.017L406.611 584.647H399.379H397.385H390.154L385.481 586.017L373.838 694.96H397.385H399.379H422.927L411.284 586.017Z" fill="white"/>
<path d="M385.481 586.017C385.481 586.017 356.596 594.053 351.943 600.76C347.592 607.024 330.933 641.204 332.041 661.566C332.162 663.782 334.116 665.413 336.311 665.131L358.328 660.277L350.371 704.185C350.371 704.185 373.053 708.737 385.864 707.971L385.481 586.017Z" fill="#6863CC"/>
<path d="M411.284 586.017C411.284 586.017 440.169 594.053 444.823 600.76C449.173 607.024 466.295 639.854 465.167 660.217C465.046 662.432 463.092 664.064 460.897 663.782L438.417 660.297L446.374 704.205C446.374 704.205 423.874 709.341 411.062 708.576L411.264 586.057L411.284 586.017Z" fill="#6863CC"/>
<path d="M406.551 595.947L398.474 591.435L390.98 595.947L395.754 602.553C395.754 602.553 391.182 670.106 391.001 677.317C390.98 678.404 393.821 681.929 396.439 684.93C397.164 685.756 397.849 686.541 398.474 687.226C399.078 686.541 399.783 685.756 400.508 684.93C403.107 681.949 405.967 678.404 405.947 677.317C405.766 670.106 401.717 602.795 401.717 602.795L406.571 595.927L406.551 595.947Z" fill="#C9515B"/>
<path d="M358.327 660.257L426.391 648.817L422.705 633.026L345.053 640.579L358.327 660.257Z" fill="#6863CC"/>
<path d="M425.364 647.145C425.364 647.145 435.315 643.923 438.679 644.426C442.043 644.95 440.492 633.369 422.705 633.026L425.364 647.145Z" fill="#EDBC9C"/>
<path d="M381.392 636.833C381.392 636.833 375.672 630.912 366.748 631.697C361.813 632.12 358.127 639.069 358.127 639.069L381.392 636.833Z" fill="#EDBC9C"/>
<path d="M355.326 676.853L385.601 655.705L358.328 660.257L355.326 676.853Z" fill="#6863CC"/>
<path d="M358.127 639.069L352.668 638.928L363.727 622.049L358.127 639.069Z" fill="#6863CC"/>
<path d="M438.881 644.486C438.881 644.486 444.521 644.607 445.126 643.701C445.73 642.815 438.035 623.922 438.035 623.922C438.035 623.922 443.695 642.875 438.881 644.486Z" fill="#6863CC"/>
<path d="M446.373 704.165L441.861 679.291L438.416 660.257L411.143 655.504V657.035L431.165 671.536L437.087 706.018C442.506 705.051 446.353 704.165 446.353 704.165H446.373Z" fill="#6863CC"/>
<path d="M396.962 728.697C393.155 731.879 390.597 736.31 389.751 741.204L363.686 890.772H370.554C370.554 890.772 388.885 765.897 396.962 728.697Z" fill="#2F28BA"/>
<path d="M405.623 584.023L398.754 588.213L391.422 584.023V570.287H405.623V584.023Z" fill="#EDBC9C"/>
<path d="M380.424 559.23C380.424 559.23 377.584 548.595 380.505 543.238C383.446 537.88 388.421 531.918 393.276 535.282C393.276 535.282 396.196 531.455 406.51 533.953C416.823 536.47 421.899 536.531 425.585 534.617C429.272 532.684 426.452 551.616 418.837 552.704C418.837 552.704 418.233 557.638 416.722 559.411C415.212 561.163 396.781 562.09 396.781 562.09L380.444 559.25L380.424 559.23Z" fill="#5750E4"/>
<path d="M395.25 545.413C394.727 544.829 393.679 547.407 391.202 549.542C388.281 552.079 384.373 553.711 384.373 553.711V563.963C384.373 563.963 386.508 577.9 399.057 577.9C409.411 577.9 413.117 564.023 413.117 564.023V552.019C413.117 552.019 400.79 551.576 395.25 545.413Z" fill="#EDBC9C"/>
<path d="M405.623 575.745V578.565C403.831 579.874 401.655 580.74 399.057 580.74C395.894 580.74 393.376 579.854 391.402 578.525V575.705C393.376 577.034 395.874 577.921 399.057 577.921C401.635 577.921 403.811 577.055 405.623 575.745Z" fill="#DD9F80"/>
<path d="M390.334 560.478C390.334 557.719 388.098 555.463 385.318 555.463C382.539 555.463 380.303 557.699 380.303 560.478C380.303 563.258 383.344 566.319 386.104 566.319C388.864 566.319 390.314 563.258 390.314 560.478H390.334Z" fill="#EDBC9C"/>
<path d="M408.344 560.478C408.344 557.719 410.58 555.463 413.359 555.463C416.139 555.463 418.375 557.699 418.375 560.478C418.375 563.258 415.333 566.319 412.574 566.319C409.814 566.319 408.364 563.258 408.364 560.478H408.344Z" fill="#EDBC9C"/>
<path d="M201.13 894.337V905.636C201.13 908.536 199.015 910.873 196.417 910.873H162.193C160.36 910.873 159.635 908.214 161.186 907.106C165.698 903.864 180.665 899.191 185.418 895.968L201.13 894.337Z" fill="#164FA6"/>
<path d="M210.537 781.567C208.281 811.799 202.259 890.792 200.708 895.223C198.794 900.701 183.666 897.781 184.613 896.19C184.935 895.646 187.816 895.304 189.81 890.953C190.435 889.624 190.213 881.286 190.112 879.815C189.145 866.421 184.271 797.519 182.881 776.773C190.072 778.828 199.781 780.943 210.537 781.547V781.567Z" fill="#EDBC9C"/>
<path d="M224.555 894.337V905.636C224.555 908.536 226.67 910.873 229.268 910.873H263.491C265.325 910.873 266.05 908.214 264.499 907.106C259.987 903.864 245.02 899.191 240.266 895.968L224.555 894.337Z" fill="#164FA6"/>
<path d="M241.053 896.19C241.999 897.761 226.892 900.702 224.958 895.223C223.427 890.812 217.404 812.061 215.148 781.728C224.032 781.849 233.459 780.882 242.704 777.962C241.214 800.016 236.48 866.683 235.554 879.835C235.453 881.286 235.251 889.624 235.856 890.973C237.85 895.324 240.73 895.646 241.073 896.21L241.053 896.19Z" fill="#EDBC9C"/>
<path d="M176.534 685.917L176.796 686.3L175.225 689.603C175.668 688.274 176.111 687.045 176.534 685.917Z" fill="#C9515B"/>
<path d="M255.698 772.423C217.809 793.41 170.13 772.423 170.13 772.423C163.019 735.263 169.828 705.474 175.206 689.684V689.623C175.669 688.294 176.132 687.065 176.535 685.937C178.388 681.003 179.859 678.042 180.201 677.397H180.221C182.276 678.747 207.656 694.638 242.242 677.397H242.907C242.907 677.397 242.907 677.377 242.867 677.337C242.847 677.277 242.806 677.236 242.766 677.136C242.766 677.136 242.766 677.095 242.746 677.075H242.967C260.693 722.05 255.678 772.423 255.678 772.423H255.698Z" fill="#5750E4"/>
<path d="M255.698 772.423C248.849 776.21 241.699 778.606 234.548 780.036C243.793 755.223 235.353 699.593 232.271 681.587C235.494 680.499 238.838 679.109 242.263 677.397H242.927C242.927 677.397 242.927 677.377 242.887 677.337C242.867 677.277 242.827 677.236 242.786 677.136C242.786 677.136 242.786 677.095 242.766 677.075H242.988C260.714 722.05 255.698 772.423 255.698 772.423Z" fill="#2F28BA"/>
<path d="M210.536 781.567C208.279 811.779 202.257 890.792 200.706 895.223C200.202 896.673 198.752 897.539 196.919 897.982C202.942 877.922 202.398 784.105 202.398 784.105C196.113 784.306 188.297 781.144 182.98 778.788C182.839 776.532 182.98 778.445 182.879 776.773C190.07 778.828 199.779 780.943 210.536 781.547V781.567Z" fill="#DD9F80"/>
<path d="M235.836 890.973C235.232 889.644 235.453 881.306 235.534 879.835C236.481 866.683 241.214 799.996 242.685 777.962C241.577 778.304 240.449 778.606 239.341 778.909C238.737 779.07 238.153 779.211 237.548 779.352C236.904 779.513 236.239 779.654 235.594 779.795C228.665 781.285 221.736 781.809 215.129 781.728C215.189 782.453 215.23 783.199 215.29 783.964C219.137 783.964 228.524 783.823 234.366 782.957C233.459 800.137 229.068 887.288 232.11 893.149C232.976 894.841 235.635 896.291 239.059 897.519C240.449 897.096 241.275 896.593 241.033 896.19C240.691 895.646 237.81 895.304 235.816 890.953L235.836 890.973Z" fill="#DD9F80"/>
<path d="M299.025 593.449C299.025 593.449 304.967 584.104 306.74 583.802C308.512 583.5 306.437 587.81 306.437 587.81C306.437 587.81 312.964 583.882 317.657 585.071C322.33 586.259 307.848 593.288 305.994 597.76C305.994 597.76 298.723 593.47 299.025 593.47V593.449Z" fill="#EDBC9C"/>
<path d="M184.249 694.417C184.249 693.651 177.058 687.69 176.575 687.387C176.514 687.287 176.454 687.186 176.373 687.105L171.801 696.652C171.801 696.652 182.859 705.937 183.967 705.031C184.713 704.407 182.074 700.258 180.16 694.638C182.074 694.397 184.269 694.981 184.269 694.437L184.249 694.417Z" fill="#EDBC9C"/>
<path d="M245.344 634.013C246.613 636.672 247.64 639.915 247.378 643.238C247.177 645.937 246.089 648.696 243.591 651.194C243.128 651.657 242.725 652.12 242.342 652.604C242.242 652.724 242.161 652.825 242.08 652.946C235.433 662.01 241.738 675.121 242.765 677.115C242.806 677.196 242.846 677.256 242.866 677.317C242.886 677.357 242.906 677.377 242.906 677.377H242.242C207.656 694.638 182.275 678.727 180.221 677.377H180.08C180.08 677.377 180.08 677.357 180.12 677.317C180.684 676.249 187.835 662.392 180.905 652.946C180.462 652.342 179.959 651.758 179.395 651.194C173.835 645.635 175.386 636.732 177.703 631.899L158.506 658.948L176.796 686.28L171.499 697.438C171.499 697.438 134.939 662.795 135.483 660.237C136.026 657.679 164.731 606.863 174.238 600.096C183.746 593.328 202.761 592.422 202.761 592.422H216.66C216.66 592.422 230.82 591.697 242.483 599.915L266.635 623.983L298.159 592.905L306.539 597.981C306.539 597.981 278.056 636.551 267.944 648.092C266.252 650.005 263.331 650.187 261.438 648.475L245.384 634.013H245.344Z" fill="#C9515B"/>
<path d="M266.554 645.433C260.592 650.026 235.413 618.021 239.442 625.051C243.47 632.08 236.299 641.184 229.874 656.874C224.334 670.428 230.136 679.512 231.828 681.728C235.191 680.6 238.676 679.19 242.242 677.397H242.906C242.906 677.397 242.906 677.377 242.866 677.337C242.846 677.297 242.806 677.236 242.765 677.135C241.738 675.141 235.433 662.03 242.08 652.966C242.161 652.845 242.242 652.745 242.342 652.624C242.725 652.14 243.128 651.677 243.591 651.214C246.089 648.716 247.157 645.977 247.378 643.258C247.64 639.935 246.613 636.692 245.344 634.034L261.398 648.495C263.291 650.207 266.212 650.026 267.904 648.112C278.036 636.571 306.498 598.001 306.498 598.001C306.418 597.518 273.202 640.297 266.534 645.433H266.554Z" fill="#983F46"/>
<path d="M177.723 631.919C177.723 631.919 181.269 620.862 183.585 618.243C183.585 618.243 154.901 654.92 153.552 659.089C152.202 663.279 176.817 686.3 176.817 686.3L158.527 658.968L177.723 631.919Z" fill="#983F46"/>
<path d="M177.724 631.919C177.08 633.248 176.516 634.88 176.133 636.672L177.724 631.919Z" fill="#8A6CE5"/>
<path d="M223.609 592.845H198.027C195.166 593.167 191.319 593.752 187.371 594.718H231.888C228.866 593.752 226.006 593.167 223.609 592.845Z" fill="#E17C8D"/>
<path d="M298.139 592.926L296.326 594.718H301.1L298.139 592.926Z" fill="#E17C8D"/>
<path d="M303.175 602.513H288.431L286.537 604.386H301.785C302.289 603.721 302.752 603.097 303.175 602.513Z" fill="#E17C8D"/>
<path d="M245.082 602.513H171.64C171.116 603.077 170.572 603.681 169.988 604.386H246.955L245.082 602.513Z" fill="#E17C8D"/>
<path d="M295.943 612.181H278.62L276.727 614.054H294.553C295.037 613.429 295.5 612.805 295.963 612.181H295.943Z" fill="#E17C8D"/>
<path d="M254.771 612.181H164.127C163.704 612.785 163.261 613.409 162.838 614.054H256.665L254.792 612.181H254.771Z" fill="#E17C8D"/>
<path d="M264.46 621.828H157.681C157.278 622.452 156.895 623.077 156.492 623.701H266.353L264.48 621.828H264.46Z" fill="#E17C8D"/>
<path d="M288.652 621.828H268.811L266.918 623.701H287.242C287.726 623.077 288.189 622.452 288.673 621.828H288.652Z" fill="#E17C8D"/>
<path d="M177.723 631.919C177.501 632.362 177.3 632.866 177.098 633.389H279.808C280.292 632.765 280.775 632.14 281.259 631.516H151.657C151.275 632.14 150.892 632.765 150.529 633.389H176.675L177.723 631.919Z" fill="#E17C8D"/>
<path d="M171.136 641.164H145.877C145.514 641.788 145.152 642.412 144.789 643.037H169.807L171.136 641.164Z" fill="#E17C8D"/>
<path d="M255.356 643.037H272.155C272.639 642.432 273.142 641.808 273.666 641.164H253.281L255.356 643.037Z" fill="#E17C8D"/>
<path d="M175.709 643.037H247.379C247.419 642.412 247.419 641.788 247.379 641.164H175.629C175.629 641.788 175.669 642.412 175.73 643.037H175.709Z" fill="#E17C8D"/>
<path d="M164.289 650.832H140.379C140.016 651.476 139.674 652.1 139.352 652.705H162.98L164.309 650.832H164.289Z" fill="#E17C8D"/>
<path d="M179.395 651.194C179.878 651.677 180.301 652.181 180.704 652.705H242.282C242.282 652.705 242.322 652.644 242.342 652.624C242.725 652.141 243.128 651.677 243.591 651.214C243.712 651.093 243.812 650.972 243.933 650.852H179.072C179.193 650.972 179.274 651.093 179.395 651.214V651.194Z" fill="#E17C8D"/>
<path d="M159.534 660.499H135.523C135.624 660.882 136.047 661.506 136.712 662.372H160.803L159.554 660.499H159.534Z" fill="#E17C8D"/>
<path d="M183.908 662.372H239.1C239.1 661.748 239.161 661.123 239.241 660.499H183.787C183.868 661.123 183.908 661.748 183.908 662.372Z" fill="#E17C8D"/>
<path d="M182.316 672.02H240.691C240.49 671.436 240.309 670.811 240.127 670.146H182.88C182.699 670.811 182.518 671.436 182.316 672.02Z" fill="#E17C8D"/>
<path d="M166.001 670.167H143.723C144.307 670.771 144.911 671.396 145.536 672.04H167.25L166.001 670.167Z" fill="#E17C8D"/>
<path d="M189.205 681.688H231.888C233.52 681.144 235.192 680.519 236.884 679.814H184.713C185.982 680.419 187.493 681.043 189.225 681.688H189.205Z" fill="#E17C8D"/>
<path d="M172.465 679.814H153.289C153.914 680.439 154.558 681.063 155.183 681.688H173.714L172.465 679.814Z" fill="#E17C8D"/>
<path d="M175.287 689.482H163.201C163.886 690.147 164.531 690.751 165.135 691.355H174.401L175.287 689.482Z" fill="#E17C8D"/>
<path d="M215.632 593.107L209.226 596.995L202.418 593.107V580.338H215.632V593.107Z" fill="#EDBC9C"/>
<path d="M215.632 585.393V593.107L214.041 594.074C214.101 593.752 214.162 593.429 214.202 593.107C214.827 589.603 215.37 586.843 215.612 585.393H215.632Z" fill="#EDBC9C"/>
<path d="M222.6 564.849V574.517C222.6 574.517 220.667 581.768 215.631 585.393C216.356 581.284 221.734 569.22 222.6 564.829V564.849Z" fill="#EDBC9C"/>
<path d="M215.632 585.393V588.012C213.96 589.22 211.926 590.026 209.529 590.026C206.588 590.026 204.251 589.2 202.418 587.971V585.353C204.251 586.582 206.588 587.407 209.529 587.407C211.926 587.407 213.96 586.602 215.632 585.393Z" fill="#DD9F80"/>
<path d="M222.802 566.541C222.802 566.541 222.661 566.541 222.581 566.561V563.339C222.581 563.339 204.13 564.507 200.786 557.075C200.484 556.39 195.871 564.91 195.871 564.91V566.622C193.716 567.025 192.084 568.918 192.084 571.194C192.084 573.47 194.139 575.786 196.354 576.43C197.442 580.056 200.725 587.407 209.528 587.407C216.699 587.407 220.446 580.237 221.876 576.592C221.936 576.592 221.997 576.612 222.077 576.612C224.656 576.612 227.476 573.752 227.476 571.174C227.476 568.596 225.381 566.521 222.822 566.521L222.802 566.541Z" fill="#EDBC9C"/>
<path d="M221.836 576.692C221.836 576.692 221.997 576.632 222.057 576.632C224.635 576.632 227.456 573.772 227.456 571.214C227.456 568.656 225.381 566.561 222.802 566.561C222.742 566.561 222.661 566.561 222.581 566.561V563.359C222.581 563.359 204.13 564.507 200.786 557.095C200.484 556.41 195.871 564.93 195.871 564.93V566.642C193.716 567.065 192.084 568.938 192.084 571.214C192.084 573.49 194.159 575.786 196.354 576.45C197.08 578.867 198.772 582.916 202.417 585.373V590.771C180.22 577.397 182.778 548.313 193.877 542.835C198.852 540.398 201.269 542.392 201.269 542.392C218.673 527.085 232.793 545.091 237.044 551.959C242.865 561.365 266.392 622.976 241.979 631.274C197.281 646.441 211.341 589.864 215.631 585.453C219.298 581.667 221.453 578.344 221.856 576.732L221.836 576.692Z" fill="#5750E4"/>
</g>
</svg>
