<svg width="786" height="818" viewBox="0 0 786 818" fill="none" xmlns="http://www.w3.org/2000/svg">
<g clip-path="url(#clip0_4211_14785)">
<g style="mix-blend-mode:multiply" opacity="0.18">
<path d="M151.083 819.24C64.91 776.682 11.3089 675.554 62.7949 620.488C125.037 553.942 55.2614 469.893 213.164 403.146C337.971 350.396 581.805 326.569 631.276 152.148C680.768 -22.2742 770.184 -48.7598 770.184 -48.7598L827.149 178.23L310.838 811.869L151.103 819.22L151.083 819.24Z" fill="#D2D0FF" fill-opacity="0.15"/>
</g>
<path d="M74.2892 817.682H809.496C828.632 788.437 918.611 532.827 863.097 501.87C801.297 467.409 1007.38 139.069 870.973 57.9405C581.011 -114.548 631.027 148.716 462.267 210.529C293.487 272.322 256.001 148.616 142.595 221.708C-11.823 321.245 183.284 443.884 61.9817 525.798C-65.424 611.84 37.1653 797.682 74.2892 817.702V817.682Z" fill="#F1F0FF"/>
<path d="M297.423 193.812C297.423 193.812 355.415 236.773 458.608 194.718C561.802 152.644 256.753 156.611 297.423 193.812Z" fill="#D2D0FF" fill-opacity="0.15"/>
<g style="mix-blend-mode:multiply" opacity="0.18">
<path d="M331.135 200.076C305.996 177.095 412.775 166.803 473.769 172.201C436.282 156.45 267.502 165.534 298.422 193.812C298.422 193.812 319.311 209.281 358.308 212.564C340.461 207.005 331.115 200.076 331.115 200.076H331.135Z" fill="#AFDDFD"/>
</g>
<g style="mix-blend-mode:multiply" opacity="0.18">
<path d="M141.708 540.319C241.638 467.167 93.8881 242.413 287.666 292.383C481.463 342.353 574.223 282.171 645.087 164.527C691.517 87.4673 741.371 36.0672 786.17 15.7046C589.431 -58.5556 612.273 155.564 462.247 210.509C293.467 272.302 255.98 148.595 142.574 221.687C-11.8435 321.225 183.264 443.864 61.9612 525.778C-65.4445 611.82 37.1448 797.662 74.2687 817.682H133.711C52.9572 689.263 48.7875 608.336 141.688 540.319H141.708Z" fill="#AFDDFD"/>
</g>
<path d="M459.187 732.385C669.122 732.385 839.309 721.744 839.309 708.618C839.309 695.492 669.122 684.852 459.187 684.852C249.251 684.852 79.0645 695.492 79.0645 708.618C79.0645 721.744 249.251 732.385 459.187 732.385Z" fill="#E6E5FF"/>
<path d="M265.631 716.534C317.806 716.534 360.102 713.468 360.102 709.686C360.102 705.904 317.806 702.838 265.631 702.838C213.456 702.838 171.159 705.904 171.159 709.686C171.159 713.468 213.456 716.534 265.631 716.534Z" fill="#D4ECFF"/>
<path d="M441.863 714.721C494.038 714.721 536.335 711.655 536.335 707.873C536.335 704.091 494.038 701.025 441.863 701.025C389.688 701.025 347.392 704.091 347.392 707.873C347.392 711.655 389.688 714.721 441.863 714.721Z" fill="#D4ECFF"/>
<path d="M646.377 714.721C698.552 714.721 740.848 711.655 740.848 707.873C740.848 704.091 698.552 701.025 646.377 701.025C594.202 701.025 551.905 704.091 551.905 707.873C551.905 711.655 594.202 714.721 646.377 714.721Z" fill="#D4ECFF"/>
<path d="M412.978 593.754H288.937V705.214H412.978V593.754Z" fill="#5C87C7"/>
<path d="M403.672 629.585V603.059H298.242V629.585H403.672Z" fill="#AFDDFD"/>
<path d="M403.652 662.999V636.473H298.223V662.999H403.652Z" fill="#AFDDFD"/>
<path d="M403.672 697.782V671.257H298.242V697.782H403.672Z" fill="#AFDDFD"/>
<path d="M350.938 622.354C353.852 622.354 356.215 619.991 356.215 617.077C356.215 614.163 353.852 611.8 350.938 611.8C348.023 611.8 345.66 614.163 345.66 617.077C345.66 619.991 348.023 622.354 350.938 622.354Z" fill="#6A99DE"/>
<path d="M356.215 650.35C356.215 653.251 353.858 655.627 350.938 655.627C348.017 655.627 345.66 653.271 345.66 650.35C345.66 647.43 348.017 645.073 350.938 645.073C353.858 645.073 356.215 647.43 356.215 650.35Z" fill="#6A99DE"/>
<path d="M356.215 687.128C356.215 690.028 353.858 692.405 350.938 692.405C348.017 692.405 345.66 690.048 345.66 687.128C345.66 684.207 348.017 681.851 350.938 681.851C353.858 681.851 356.215 684.207 356.215 687.128Z" fill="#6A99DE"/>
<path d="M412.434 269.281H211.083C203.451 269.281 197.265 275.467 197.265 283.098V411.537C197.265 419.168 203.451 425.354 211.083 425.354H412.434C420.066 425.354 426.253 419.168 426.253 411.537V283.098C426.253 275.467 420.066 269.281 412.434 269.281Z" fill="white"/>
<path d="M417.289 281.728V412.907C417.289 414.84 415.718 416.411 413.784 416.411H209.713C207.78 416.411 206.208 414.84 206.208 412.907V281.748C206.208 279.815 207.78 278.244 209.713 278.244H413.784C415.718 278.244 417.289 279.815 417.289 281.748V281.728Z" fill="#D4ECFF"/>
<path d="M414.247 278.223H354.644C357.866 293.712 370.013 344.548 395.353 369.885H417.309V281.265C417.309 279.593 415.939 278.223 414.267 278.223H414.247Z" fill="#6A99DE"/>
<path d="M395.333 369.885V383.36H416.927L417.289 369.885H395.333Z" fill="#5C87C7"/>
<path d="M417.289 413.35V383.561L416.926 383.36H395.333C395.333 383.36 385.04 410.006 384.436 416.23L384.798 416.391H414.247C415.919 416.391 417.289 415.022 417.289 413.35Z" fill="#6A99DE"/>
<path d="M209.713 278.223H269.317C266.094 293.712 253.948 344.548 228.607 369.885H206.651V281.265C206.651 279.593 208.021 278.223 209.693 278.223H209.713Z" fill="#6A99DE"/>
<path d="M228.628 369.885V383.36H207.034L206.672 369.885H228.628Z" fill="#5C87C7"/>
<path d="M206.672 413.35V383.561L207.034 383.36H228.628C228.628 383.36 238.921 410.006 239.525 416.23L239.163 416.391H209.714C208.042 416.391 206.672 415.022 206.672 413.35Z" fill="#6A99DE"/>
<path d="M606.452 276.37H506.844C503.073 276.37 500.016 279.427 500.016 283.198V346.743C500.016 350.514 503.073 353.571 506.844 353.571H606.452C610.224 353.571 613.281 350.514 613.281 346.743V283.198C613.281 279.427 610.224 276.37 606.452 276.37Z" fill="#6A99DE"/>
<path d="M613.281 287.589V282.292C613.281 279.009 610.623 276.35 607.339 276.35H505.938C502.655 276.35 499.996 279.009 499.996 282.292V287.589H613.261H613.281Z" fill="#5C87C7"/>
<path d="M523.443 298.405H508.315C507.414 298.405 506.684 299.135 506.684 300.036V315.122C506.684 316.023 507.414 316.753 508.315 316.753H523.443C524.344 316.753 525.074 316.023 525.074 315.122V300.036C525.074 299.135 524.344 298.405 523.443 298.405Z" fill="#AFDDFD"/>
<path d="M550.716 298.405H535.589C534.688 298.405 533.957 299.135 533.957 300.036V315.122C533.957 316.023 534.688 316.753 535.589 316.753H550.716C551.617 316.753 552.348 316.023 552.348 315.122V300.036C552.348 299.135 551.617 298.405 550.716 298.405Z" fill="white"/>
<path d="M577.85 298.405H562.722C561.821 298.405 561.091 299.135 561.091 300.036V315.122C561.091 316.023 561.821 316.753 562.722 316.753H577.85C578.751 316.753 579.482 316.023 579.482 315.122V300.036C579.482 299.135 578.751 298.405 577.85 298.405Z" fill="#C9515B"/>
<path d="M604.056 298.405H588.928C588.027 298.405 587.297 299.135 587.297 300.036V315.122C587.297 316.023 588.027 316.753 588.928 316.753H604.056C604.957 316.753 605.688 316.023 605.688 315.122V300.036C605.688 299.135 604.957 298.405 604.056 298.405Z" fill="#AFDDFD"/>
<path d="M523.443 323.984H508.315C507.414 323.984 506.684 324.715 506.684 325.616V340.701C506.684 341.602 507.414 342.333 508.315 342.333H523.443C524.344 342.333 525.074 341.602 525.074 340.701V325.616C525.074 324.715 524.344 323.984 523.443 323.984Z" fill="#C9515B"/>
<path d="M550.716 323.984H535.589C534.688 323.984 533.957 324.715 533.957 325.616V340.701C533.957 341.602 534.688 342.333 535.589 342.333H550.716C551.617 342.333 552.348 341.602 552.348 340.701V325.616C552.348 324.715 551.617 323.984 550.716 323.984Z" fill="#AFDDFD"/>
<path d="M577.85 323.984H562.722C561.821 323.984 561.091 324.715 561.091 325.616V340.701C561.091 341.602 561.821 342.333 562.722 342.333H577.85C578.751 342.333 579.482 341.602 579.482 340.701V325.616C579.482 324.715 578.751 323.984 577.85 323.984Z" fill="white"/>
<path d="M604.056 323.984H588.928C588.027 323.984 587.297 324.715 587.297 325.616V340.701C587.297 341.602 588.027 342.333 588.928 342.333H604.056C604.957 342.333 605.688 341.602 605.688 340.701V325.616C605.688 324.715 604.957 323.984 604.056 323.984Z" fill="#AFDDFD"/>
<path d="M723.962 300.959C739.812 285.11 739.812 259.413 723.962 243.564C708.111 227.715 682.412 227.715 666.561 243.564C650.71 259.413 650.71 285.11 666.561 300.959C682.412 316.808 708.111 316.808 723.962 300.959Z" fill="#5C87C7"/>
<path d="M695.265 302.151C711.774 302.151 725.157 288.769 725.157 272.262C725.157 255.754 711.774 242.372 695.265 242.372C678.755 242.372 665.372 255.754 665.372 272.262C665.372 288.769 678.755 302.151 695.265 302.151Z" fill="white"/>
<path d="M685.857 285.333C685.475 285.333 685.112 285.172 684.85 284.87C684.367 284.306 684.427 283.48 684.991 282.997L694.257 275.001V253.933C694.257 253.188 694.862 252.604 695.587 252.604C696.312 252.604 696.916 253.208 696.916 253.933V275.605C696.916 275.988 696.755 276.37 696.453 276.612L686.724 285.011C686.482 285.233 686.16 285.333 685.857 285.333Z" fill="#6A99DE"/>
<path d="M593.461 393.39H479.249C472.463 393.39 466.962 398.891 466.962 405.676V467.187C466.962 473.972 472.463 479.473 479.249 479.473H593.461C600.247 479.473 605.749 473.972 605.749 467.187V405.676C605.749 398.891 600.247 393.39 593.461 393.39Z" fill="#6A99DE"/>
<path d="M598.699 394.035C594.589 395.525 591.648 399.432 591.648 404.045V468.798C591.648 473.411 594.589 477.338 598.699 478.808C602.808 477.318 605.749 473.411 605.749 468.798V404.045C605.749 399.432 602.808 395.505 598.699 394.035Z" fill="#5C87C7"/>
<path d="M559.903 501.89H544.695V443.481H513.916V501.89C513.916 506.865 517.965 510.913 522.94 510.913H560.165C562.743 510.913 564.798 508.758 564.677 506.16C564.556 503.723 562.36 501.89 559.923 501.89H559.903Z" fill="#6A99DE"/>
<path d="M564.677 506.402C564.677 503.904 562.663 501.89 560.165 501.89H544.695V443.481H534.261V501.89C534.261 506.865 538.309 510.913 543.285 510.913H560.165C562.663 510.913 564.677 508.899 564.677 506.402Z" fill="#5C87C7"/>
<path d="M565.261 399.855H496.794C495.143 399.855 493.793 401.205 493.793 402.856C493.793 404.508 495.143 405.858 496.794 405.858H565.261C566.913 405.858 568.262 404.508 568.262 402.856C568.262 401.205 566.913 399.855 565.261 399.855Z" fill="#5C87C7"/>
<path d="M735.994 484.166H620.715V511.8H735.994V484.166Z" fill="#6A99DE"/>
<path d="M728.501 464.851H609.636V484.166H728.501V464.851Z" fill="#5C87C7"/>
<path d="M735.149 440.621H621.219V464.811H735.149V440.621Z" fill="#5C87C7"/>
<path d="M735.149 456.331H621.219V464.81H735.149V456.331Z" fill="#6A99DE"/>
<path d="M177.101 618.245L179.115 618.668C181.472 612.344 183.607 602.596 180.143 592.364C174.241 574.902 171.401 552.928 160.1 536.412C144.671 513.854 140.964 464.831 140.964 464.831C140.964 464.831 122.171 503.723 134.982 540.4C147.793 577.077 162.94 586.684 170.595 593.834C178.773 601.488 178.612 611.397 177.101 618.245Z" fill="#5C87C7"/>
<path d="M177.524 618.346L179.095 618.668C181.452 612.344 183.587 602.596 180.122 592.364C174.22 574.902 171.38 552.928 160.08 536.412C144.65 513.854 140.944 464.831 140.944 464.831C140.944 464.831 130.55 517.258 142.595 535.727C154.621 554.197 155.165 549.705 163.826 567.248C172.468 584.791 175.207 589.766 177.826 599.977C179.518 606.503 178.491 613.875 177.524 618.366V618.346Z" fill="#6A99DE"/>
<path d="M187.072 632.566C187.072 632.566 190.919 626.845 188.663 605.456C186.407 584.066 180.263 563.623 183.708 540.299C187.152 516.976 212.593 457.842 212.714 453.934C212.855 450.027 219.442 521.991 206.329 550.652C193.195 579.313 191.544 589.202 191.906 604.126C192.289 619.051 191.423 631.095 189.973 634.6L187.052 632.545L187.072 632.566Z" fill="#5C87C7"/>
<path d="M189.953 589.423C191.323 598.95 191.907 622.918 189.449 628.698C189.228 629.242 188.906 628.94 188.523 627.953C189.288 623.965 189.852 617.016 188.644 605.475C186.388 584.086 180.244 563.642 183.688 540.319C187.133 516.996 212.574 457.861 212.695 453.954C212.695 453.954 208.344 502.877 195.392 536.774C186.106 561.024 188.583 579.896 189.933 589.423H189.953Z" fill="#6A99DE"/>
<path d="M200.85 628.034C200.85 628.034 189.711 597.339 208.324 570.873C226.936 544.408 256.728 510.45 257.272 496.956C257.272 496.956 265.188 561.065 240.895 579.111C216.602 597.157 199.541 599.977 203.872 627.913L200.85 628.014V628.034Z" fill="#5C87C7"/>
<path d="M226.896 566.201C199.824 588.074 197.688 613.371 201.939 625.134C202.261 626.04 202.885 626.604 203.711 626.906C199.985 599.957 216.905 596.956 240.875 579.131C265.168 561.085 257.252 496.976 257.252 496.976C257.252 496.976 253.968 544.327 226.896 566.201Z" fill="#6A99DE"/>
<path d="M167.553 635.506L161.429 613.371C138.627 532.505 74.8135 529.806 74.8135 529.806C81.4809 531.135 116.127 557.54 121.485 581.024C124.003 592.062 135.283 599.897 145.234 605.073C152.405 608.819 157.723 615.425 159.939 623.2C161.832 629.867 162.839 635.768 162.839 635.768L167.553 635.486V635.506Z" fill="#5C87C7"/>
<path d="M132.847 582.152C140.3 596.473 149.908 602.273 158.529 604.247C133.693 532.343 74.7939 529.806 74.7939 529.806C76.1033 530.067 78.5406 531.336 81.6023 533.351C93.8696 540.198 119.653 556.875 132.826 582.152H132.847Z" fill="#6A99DE"/>
<path d="M215.695 616.09H148.981C141.025 616.09 134.982 623.28 136.372 631.115L148.357 698.648C149.203 703.402 153.332 706.866 158.167 706.866H206.51C211.345 706.866 215.474 703.402 216.32 698.648L228.305 631.115C229.695 623.28 223.672 616.09 215.695 616.09Z" fill="#AFDDFD"/>
<path opacity="0.56" d="M228.003 625.415C227.842 624.811 227.6 624.247 227.358 623.683C227.298 623.562 227.258 623.462 227.197 623.341C226.653 622.233 225.969 621.206 225.143 620.3C225.062 620.199 224.961 620.098 224.861 619.997C224.438 619.554 223.995 619.131 223.511 618.769C223.028 618.406 222.524 618.084 222 617.782C221.88 617.701 221.739 617.641 221.618 617.581C221.074 617.299 220.51 617.037 219.926 616.835C219.926 616.835 219.926 616.835 219.906 616.835C219.321 616.634 218.717 616.493 218.113 616.372C217.952 616.352 217.79 616.312 217.649 616.291C217.025 616.191 216.38 616.13 215.716 616.13H149.001C143.059 616.13 138.185 620.138 136.674 625.456H211.002C211.506 627.248 211.627 629.182 211.284 631.176L199.299 698.709C198.453 703.462 194.324 706.926 189.489 706.926H206.51C211.345 706.926 215.474 703.462 216.32 698.709L228.305 631.176C228.648 629.202 228.527 627.248 228.023 625.456L228.003 625.415Z" fill="#5C87C7"/>
<path d="M919.418 510.652H405.746V519.433H919.418V510.652Z" fill="#5C87C7"/>
<path d="M461.624 702.294L528.499 518.486H534.764L467.909 702.294H461.624Z" fill="#5C87C7"/>
<path d="M555.21 702.294L488.354 518.486H494.619L561.474 702.294H555.21Z" fill="#5C87C7"/>
<path d="M481.929 518.486H541.19V522.575C541.19 525.334 538.934 527.59 536.174 527.59H486.944C484.185 527.59 481.929 525.334 481.929 522.575V518.486Z" fill="#5C87C7"/>
<path d="M541.17 521.165C541.17 521.165 541.17 521.105 541.17 521.085V518.486H481.908V521.085C481.908 521.085 481.908 521.145 481.908 521.165H541.149H541.17Z" fill="#366DBF"/>
<path d="M748.201 702.294L815.056 518.486H821.341L754.466 702.294H748.201Z" fill="#5C87C7"/>
<path d="M841.766 702.294L774.911 518.486H781.176L848.051 702.294H841.766Z" fill="#5C87C7"/>
<path d="M768.485 518.486H827.747V522.575C827.747 525.334 825.491 527.59 822.731 527.59H773.501C770.741 527.59 768.485 525.334 768.485 522.575V518.486Z" fill="#5C87C7"/>
<path d="M827.747 521.165C827.747 521.165 827.747 521.105 827.747 521.085V518.486H768.485V521.085C768.485 521.085 768.485 521.145 768.485 521.165H827.726H827.747Z" fill="#366DBF"/>
<path d="M660.378 390.933C666.119 391.92 693.453 396.592 698.791 400.298C703.383 403.501 725.622 468.516 720.928 471.9C716.235 475.284 688.377 478.406 688.377 478.406L691.499 501.87L659.612 509.121C651.958 510.853 644.021 511.034 636.307 509.624L609.476 504.73L614.935 436.995L579.221 457.499C576.622 458.849 573.42 457.882 572.01 455.324L533.959 389.543L544.716 384.468L577.448 423.722L608.952 398.727C608.952 398.727 616.043 393.773 642.148 391.557L660.378 390.913V390.933Z" fill="#C9515B"/>
<path d="M543.909 385.172C543.909 385.172 538.39 373.833 536.396 373.269C534.422 372.705 536.215 377.841 536.215 377.841C536.215 377.841 529.326 372.564 523.887 373.309C518.448 374.055 533.938 383.863 535.469 389.14C535.469 389.14 544.232 385.213 543.909 385.172Z" fill="#EDBC9C"/>
<path d="M574.77 469.967H629.781C633.307 469.967 636.166 467.108 636.166 463.582V431.578C636.166 428.051 633.307 425.193 629.781 425.193H574.77C571.243 425.193 568.384 428.051 568.384 431.578V463.582C568.384 467.108 571.243 469.967 574.77 469.967Z" fill="white"/>
<path d="M604.44 469.946H652.422C655 469.946 657.115 467.852 657.115 465.254V465.757C657.115 463.179 655.02 461.064 652.422 461.064H604.44C601.862 461.064 599.747 463.159 599.747 465.757V465.254C599.747 467.832 601.842 469.946 604.44 469.946Z" fill="white"/>
<path d="M641.645 461.104V464.428C641.645 467.469 639.188 469.946 636.146 469.967H630.667C633.709 469.946 636.166 467.469 636.166 464.428V461.104H641.645Z" fill="#E3DFED"/>
<path d="M591.851 450.309C591.851 446.039 595.315 442.575 599.586 442.575C603.856 442.575 607.321 446.039 607.321 450.309C607.321 454.579 603.856 458.043 599.586 458.043C595.315 458.043 591.851 454.579 591.851 450.309Z" fill="#C9515B"/>
<path d="M687.127 448.516L680.661 420.641L693.11 453.128C694.238 455.948 692.505 459.09 689.524 459.634L656.973 467.006L682.434 457.056C685.999 455.888 688.054 452.142 687.127 448.516Z" fill="#983F46"/>
<path d="M687.913 478.567L649.883 481.87L649.359 468.798L689.525 459.634L687.913 478.567Z" fill="#C9515B"/>
<path d="M673.189 484.186C674.075 484.589 675.142 495.525 675.928 505.475L691.035 502.031L687.913 478.567L649.883 481.87C649.883 481.87 671.537 483.441 673.189 484.186Z" fill="#983F46"/>
<path d="M649.782 478.688C649.782 478.688 643.094 480.863 634.755 472.484C633.868 471.598 634.493 470.067 635.742 470.047L649.238 469.946L649.761 478.688H649.782Z" fill="#EDBC9C"/>
<path d="M688.417 688.115L669.583 687.833C665.997 674.842 648.029 537.923 648.029 537.923L624.603 587.913L636.105 687.792L618.52 687.893C618.52 687.893 590.903 601.568 590.903 583.603C590.903 569.907 604.701 525.616 611.268 505.314L611.792 505.173L636.326 509.645C644.041 511.054 651.957 510.893 659.632 509.141L688.336 502.615H688.396C691.237 540.138 688.437 688.115 688.437 688.115H688.417Z" fill="#5750E4"/>
<path d="M688.417 688.115C688.417 688.115 689.766 620.541 689.686 565.758C689.686 565.717 689.686 565.677 689.686 565.617C689.686 564.428 689.686 563.22 689.686 562.052C689.686 561.548 689.686 561.065 689.686 560.561C689.686 559.836 689.686 559.111 689.686 558.386C689.605 534.62 689.243 513.794 688.377 502.635L675.948 505.455L681.81 687.813L688.195 688.074H688.437L688.417 688.115Z" fill="#2F28BA"/>
<path d="M631.27 687.933L636.085 687.772L624.583 587.893L648.029 537.923L613.726 586.724L631.27 687.933Z" fill="#2F28BA"/>
<path d="M619.93 687.792C615.72 696.231 596 700.34 596 700.34C596 700.34 594.549 702.838 596.785 706.02C599.001 709.202 619.728 707.45 622.327 706.886C624.925 706.342 626.738 704.248 626.738 704.248C626.738 704.248 628.47 706.161 629.437 706.624C630.404 707.088 635.702 706.081 635.702 706.081C636.971 702.717 635.843 689.827 635.5 687.772H619.95L619.93 687.792Z" fill="#0B3E8A"/>
<path d="M670.751 687.792C666.541 696.231 646.821 700.34 646.821 700.34C646.821 700.34 645.371 702.838 647.606 706.02C649.822 709.202 670.55 707.45 673.148 706.886C675.747 706.342 677.559 704.248 677.559 704.248C677.559 704.248 679.292 706.161 680.259 706.624C681.225 707.108 686.523 706.081 686.523 706.081C687.792 702.717 686.664 689.827 686.322 687.772H670.771L670.751 687.792Z" fill="#0B3E8A"/>
<path d="M658.081 374.981V390.752L648.795 397.398L642.53 391.356L642.671 384.891C643.457 385.052 644.263 385.132 645.088 385.132C651.131 385.132 656.228 380.802 657.698 374.941C657.839 374.961 657.96 374.961 658.081 374.961V374.981Z" fill="#EDBC9C"/>
<path d="M661.848 364.81C660.015 362.856 657.88 364.427 657.88 364.427C657.88 364.427 657.86 364.467 657.8 364.528C652.341 363.239 644.747 357.458 644.747 357.458C639.61 360.56 632.057 363.339 632.057 363.339V371.517C632.057 379.049 637.878 385.152 645.089 385.152C651.152 385.152 656.228 380.822 657.699 374.961C662.191 375.585 663.661 366.743 661.848 364.81Z" fill="#EDBC9C"/>
<path d="M658.101 381.144H658.081V374.981C662.251 375.062 663.6 366.683 661.828 364.79C659.995 362.836 657.86 364.407 657.86 364.407C657.86 364.407 657.839 364.447 657.779 364.508C652.34 363.219 644.767 360.238 644.767 360.238C638.2 364.105 632.036 363.319 632.036 363.319C630.122 362.856 622.71 360.379 623.012 350.792C623.314 341.104 649.399 329.785 663.822 345.615C669.462 351.779 672.786 378.586 658.101 381.144Z" fill="#5750E4"/>
<path d="M645.088 385.132C644.263 385.132 643.457 385.032 642.671 384.87L642.53 391.356L646.559 395.243V387.63C656.973 387.63 657.698 374.941 657.698 374.941C656.248 380.802 651.152 385.132 645.088 385.132Z" fill="#DD9F80"/>
<path d="M657.86 364.427C657.86 364.427 657.84 364.467 657.779 364.528C657.034 364.347 656.248 364.085 655.422 363.762C655.684 367.066 655.785 375.303 651.353 379.734C650.286 378.365 647.788 375.464 645.472 375.001C643.276 374.578 639.993 374.88 638.281 375.102C637.576 375.182 636.931 375.485 636.407 375.988L634.131 378.123C633.567 377.378 633.043 376.512 632.58 375.485C634.192 381.084 639.167 385.172 645.069 385.172C650.971 385.172 656.208 380.842 657.678 374.981C658.061 375.041 658.424 374.981 658.766 374.921L657.86 364.447V364.427ZM647.345 380.036C641.947 382.554 638.2 380.54 637.193 379.271C636.951 378.969 636.991 378.566 637.233 378.284L638.16 377.277C639.207 376.129 642.551 376.552 643.961 376.552C645.452 376.552 646.559 377.821 647.385 378.687C647.728 379.05 647.768 379.835 647.345 380.036Z" fill="#5750E4"/>
<path d="M498.688 687.772C496.351 618.749 487.246 492.343 487.246 492.343H418.417C418.417 492.343 409.312 618.749 406.976 687.772H426.555C426.555 687.772 448.793 539.312 453.104 525.717C457.414 539.312 479.088 687.772 479.088 687.772H498.667H498.688Z" fill="#5750E4"/>
<path d="M498.688 687.772H492.565L472.562 492.343H487.267C487.267 492.343 496.392 618.749 498.708 687.772H498.688Z" fill="#275CAB"/>
<path d="M498.688 687.772H492.565L472.562 492.343H487.267C487.267 492.343 496.392 618.749 498.708 687.772H498.688Z" fill="#2F28BA"/>
<path d="M409.151 687.792C404.941 696.231 385.221 700.34 385.221 700.34C385.221 700.34 383.771 702.838 386.007 706.02C388.223 709.202 408.95 707.45 411.548 706.886C414.147 706.342 415.96 704.248 415.96 704.248C415.96 704.248 417.692 706.161 418.659 706.624C419.626 707.108 424.924 706.081 424.924 706.081C426.193 702.717 425.065 689.827 424.722 687.772H409.172L409.151 687.792Z" fill="#0B3E8A"/>
<path d="M496.19 687.792C500.4 696.231 520.121 700.34 520.121 700.34C520.121 700.34 521.571 702.838 519.335 706.02C517.119 709.202 496.392 707.45 493.793 706.886C491.195 706.342 489.382 704.248 489.382 704.248C489.382 704.248 487.65 706.161 486.683 706.624C485.716 707.088 480.418 706.081 480.418 706.081C479.149 702.717 480.277 689.827 480.62 687.772H496.17L496.19 687.792Z" fill="#0B3E8A"/>
<path d="M467.284 383.018L462.611 381.648H455.379H453.385H446.154L441.481 383.018L429.838 491.961H453.385H455.379H478.927L467.284 383.018Z" fill="white"/>
<path d="M441.481 383.018C441.481 383.018 412.596 391.054 407.943 397.761C403.592 404.025 386.933 438.204 388.041 458.567C388.162 460.782 390.116 462.414 392.311 462.132L414.328 457.278L406.371 501.185C406.371 501.185 429.053 505.737 441.864 504.972L441.481 383.018Z" fill="#6863CC"/>
<path d="M467.284 383.018C467.284 383.018 496.169 391.054 500.823 397.761C505.173 404.025 522.295 436.855 521.167 457.217C521.046 459.433 519.092 461.064 516.897 460.782L494.417 457.298L502.374 501.205C502.374 501.205 479.874 506.341 467.062 505.576L467.264 383.058L467.284 383.018Z" fill="#6863CC"/>
<path d="M462.551 392.947L454.474 388.436L446.98 392.947L451.754 399.553C451.754 399.553 447.182 467.107 447.001 474.317C446.98 475.405 449.821 478.929 452.439 481.93C453.164 482.756 453.849 483.542 454.474 484.227C455.078 483.542 455.783 482.756 456.508 481.93C459.107 478.95 461.967 475.405 461.947 474.317C461.766 467.107 457.717 399.795 457.717 399.795L462.571 392.927L462.551 392.947Z" fill="#C9515B"/>
<path d="M414.328 457.258L482.392 445.817L478.706 430.027L401.054 437.58L414.328 457.258Z" fill="#6863CC"/>
<path d="M481.365 444.146C481.365 444.146 491.316 440.923 494.68 441.427C498.044 441.95 496.492 430.369 478.706 430.027L481.365 444.146Z" fill="#EDBC9C"/>
<path d="M437.392 433.833C437.392 433.833 431.672 427.912 422.748 428.698C417.813 429.12 414.127 436.069 414.127 436.069L437.392 433.833Z" fill="#EDBC9C"/>
<path d="M411.326 473.854L441.601 452.706L414.328 457.257L411.326 473.854Z" fill="#6863CC"/>
<path d="M414.127 436.069L408.668 435.928L419.727 419.05L414.127 436.069Z" fill="#6863CC"/>
<path d="M494.88 441.487C494.88 441.487 500.52 441.608 501.125 440.702C501.729 439.815 494.034 420.923 494.034 420.923C494.034 420.923 499.694 439.876 494.88 441.487Z" fill="#6863CC"/>
<path d="M502.374 501.165L497.862 476.291L494.417 457.258L467.144 452.504V454.035L487.166 468.537L493.088 503.018C498.507 502.051 502.354 501.165 502.354 501.165H502.374Z" fill="#6863CC"/>
<path d="M452.963 525.697C449.156 528.879 446.598 533.31 445.752 538.204L419.687 687.772H426.555C426.555 687.772 444.886 562.897 452.963 525.697Z" fill="#2F28BA"/>
<path d="M461.625 381.024L454.756 385.213L447.424 381.024V367.287H461.625V381.024Z" fill="#EDBC9C"/>
<path d="M436.425 356.23C436.425 356.23 433.585 345.595 436.506 340.238C439.447 334.88 444.422 328.919 449.277 332.282C449.277 332.282 452.197 328.455 462.511 330.953C472.824 333.47 477.9 333.531 481.586 331.617C485.273 329.684 482.453 348.617 474.838 349.704C474.838 349.704 474.234 354.639 472.723 356.411C471.213 358.163 452.782 359.09 452.782 359.09L436.445 356.25L436.425 356.23Z" fill="#5750E4"/>
<path d="M451.25 342.413C450.727 341.829 449.679 344.407 447.202 346.542C444.281 349.08 440.373 350.711 440.373 350.711V360.963C440.373 360.963 442.508 374.901 455.057 374.901C465.411 374.901 469.117 361.023 469.117 361.023V349.019C469.117 349.019 456.79 348.576 451.25 342.413Z" fill="#EDBC9C"/>
<path d="M461.624 372.746V375.565C459.832 376.875 457.656 377.741 455.058 377.741C451.895 377.741 449.377 376.854 447.403 375.525V372.705C449.377 374.035 451.875 374.921 455.058 374.921C457.636 374.921 459.812 374.055 461.624 372.746Z" fill="#DD9F80"/>
<path d="M446.336 357.478C446.336 354.719 444.1 352.463 441.32 352.463C438.541 352.463 436.305 354.699 436.305 357.478C436.305 360.258 439.346 363.319 442.106 363.319C444.866 363.319 446.316 360.258 446.316 357.478H446.336Z" fill="#EDBC9C"/>
<path d="M464.344 357.478C464.344 354.719 466.58 352.463 469.359 352.463C472.139 352.463 474.375 354.699 474.375 357.478C474.375 360.258 471.333 363.319 468.574 363.319C465.814 363.319 464.364 360.258 464.364 357.478H464.344Z" fill="#EDBC9C"/>
<path d="M257.13 691.337V702.636C257.13 705.537 255.015 707.873 252.417 707.873H218.193C216.36 707.873 215.635 705.214 217.186 704.107C221.698 700.864 236.665 696.191 241.418 692.969L257.13 691.337Z" fill="#164FA6"/>
<path d="M266.537 578.567C264.28 608.799 258.258 687.792 256.707 692.223C254.793 697.702 239.665 694.781 240.612 693.19C240.934 692.646 243.815 692.304 245.809 687.953C246.434 686.624 246.212 678.286 246.111 676.815C245.144 663.422 240.27 594.519 238.88 573.774C246.071 575.828 255.78 577.943 266.537 578.547V578.567Z" fill="#EDBC9C"/>
<path d="M280.557 691.337V702.636C280.557 705.537 282.672 707.873 285.27 707.873H319.493C321.326 707.873 322.052 705.214 320.501 704.107C315.989 700.864 301.022 696.191 296.268 692.969L280.557 691.337Z" fill="#164FA6"/>
<path d="M297.054 693.19C298 694.761 282.893 697.702 280.959 692.223C279.428 687.812 273.405 609.061 271.149 578.728C280.033 578.849 289.46 577.882 298.705 574.962C297.215 597.016 292.481 663.683 291.554 676.835C291.454 678.286 291.252 686.624 291.857 687.973C293.851 692.324 296.731 692.646 297.074 693.21L297.054 693.19Z" fill="#EDBC9C"/>
<path d="M232.535 482.917L232.797 483.3L231.226 486.603C231.669 485.274 232.112 484.045 232.535 482.917Z" fill="#C9515B"/>
<path d="M311.698 569.423C273.809 590.41 226.13 569.423 226.13 569.423C219.019 532.263 225.828 502.474 231.206 486.684V486.623C231.669 485.294 232.132 484.065 232.535 482.937C234.388 478.003 235.859 475.042 236.201 474.397H236.221C238.276 475.747 263.656 491.638 298.242 474.397H298.907C298.907 474.397 298.907 474.377 298.867 474.337C298.847 474.277 298.806 474.236 298.766 474.136C298.766 474.136 298.766 474.095 298.746 474.075H298.967C316.693 519.05 311.678 569.423 311.678 569.423H311.698Z" fill="#5750E4"/>
<path d="M311.698 569.423C304.849 573.21 297.699 575.606 290.548 577.036C299.793 552.223 291.353 496.593 288.271 478.587C291.494 477.499 294.838 476.109 298.263 474.397H298.927C298.927 474.397 298.927 474.377 298.887 474.337C298.867 474.277 298.827 474.236 298.786 474.136C298.786 474.136 298.786 474.095 298.766 474.075H298.988C316.714 519.05 311.698 569.423 311.698 569.423Z" fill="#2F28BA"/>
<path d="M266.537 578.567C264.281 608.779 258.259 687.792 256.708 692.223C256.204 693.674 254.754 694.54 252.921 694.983C258.943 674.922 258.4 581.105 258.4 581.105C252.115 581.306 244.299 578.144 238.982 575.788C238.841 573.532 238.982 575.445 238.881 573.774C246.072 575.828 255.781 577.943 266.537 578.547V578.567Z" fill="#DD9F80"/>
<path d="M291.837 687.973C291.233 686.644 291.454 678.306 291.535 676.835C292.482 663.683 297.215 596.996 298.686 574.962C297.578 575.304 296.45 575.606 295.342 575.909C294.738 576.07 294.154 576.211 293.549 576.352C292.905 576.513 292.24 576.654 291.595 576.795C284.666 578.285 277.737 578.809 271.13 578.728C271.19 579.453 271.231 580.199 271.291 580.964C275.138 580.964 284.525 580.823 290.367 579.957C289.46 597.137 285.069 684.288 288.111 690.149C288.977 691.841 291.636 693.291 295.06 694.519C296.45 694.096 297.276 693.593 297.034 693.19C296.692 692.646 293.811 692.304 291.817 687.953L291.837 687.973Z" fill="#DD9F80"/>
<path d="M355.026 390.449C355.026 390.449 360.968 381.104 362.741 380.802C364.513 380.5 362.438 384.81 362.438 384.81C362.438 384.81 368.965 380.882 373.658 382.071C378.331 383.259 363.848 390.288 361.995 394.76C361.995 394.76 354.724 390.47 355.026 390.47V390.449Z" fill="#EDBC9C"/>
<path d="M240.25 491.417C240.25 490.651 233.059 484.69 232.576 484.387C232.515 484.287 232.455 484.186 232.374 484.105L227.802 493.652C227.802 493.652 238.86 502.937 239.968 502.031C240.714 501.407 238.075 497.258 236.161 491.638C238.075 491.397 240.27 491.981 240.27 491.437L240.25 491.417Z" fill="#EDBC9C"/>
<path d="M301.345 431.013C302.614 433.672 303.641 436.915 303.379 440.238C303.178 442.937 302.09 445.696 299.592 448.194C299.129 448.657 298.726 449.12 298.343 449.604C298.242 449.724 298.162 449.825 298.081 449.946C291.434 459.01 297.739 472.121 298.766 474.115C298.807 474.196 298.847 474.256 298.867 474.317C298.887 474.357 298.907 474.377 298.907 474.377H298.242C263.657 491.638 238.276 475.727 236.222 474.377H236.081C236.081 474.377 236.081 474.357 236.121 474.317C236.685 473.249 243.836 459.392 236.906 449.946C236.463 449.342 235.96 448.758 235.396 448.194C229.836 442.635 231.387 433.732 233.704 428.899L214.507 455.948L232.797 483.28L227.5 494.438C227.5 494.438 190.94 459.795 191.484 457.237C192.027 454.679 220.731 403.863 230.239 397.096C239.747 390.328 258.762 389.422 258.762 389.422H272.661C272.661 389.422 286.821 388.697 298.484 396.915L322.636 420.983L354.16 389.905L362.54 394.981C362.54 394.981 334.057 433.551 323.945 445.092C322.253 447.005 319.332 447.187 317.439 445.475L301.385 431.013H301.345Z" fill="#C9515B"/>
<path d="M322.555 442.433C316.593 447.026 291.414 415.021 295.443 422.051C299.471 429.08 292.3 438.184 285.875 453.874C280.335 467.428 286.136 476.512 287.829 478.728C291.192 477.6 294.677 476.19 298.243 474.397H298.907C298.907 474.397 298.907 474.377 298.867 474.337C298.847 474.297 298.807 474.236 298.766 474.135C297.739 472.141 291.434 459.03 298.081 449.966C298.162 449.845 298.243 449.745 298.343 449.624C298.726 449.14 299.129 448.677 299.592 448.214C302.09 445.716 303.157 442.977 303.379 440.258C303.641 436.935 302.614 433.692 301.345 431.034L317.399 445.495C319.292 447.207 322.213 447.026 323.905 445.112C334.037 433.571 362.499 395.001 362.499 395.001C362.419 394.518 329.203 437.297 322.535 442.433H322.555Z" fill="#983F46"/>
<path d="M233.723 428.919C233.723 428.919 237.269 417.861 239.585 415.243C239.585 415.243 210.901 451.92 209.552 456.089C208.202 460.278 232.817 483.3 232.817 483.3L214.527 455.968L233.723 428.919Z" fill="#983F46"/>
<path d="M233.723 428.919C233.079 430.248 232.515 431.879 232.132 433.672L233.723 428.919Z" fill="#8A6CE5"/>
<path d="M279.61 389.845H254.028C251.167 390.167 247.32 390.751 243.372 391.718H287.889C284.867 390.751 282.007 390.167 279.61 389.845Z" fill="#E17C8D"/>
<path d="M354.139 389.926L352.326 391.718H357.1L354.139 389.926Z" fill="#E17C8D"/>
<path d="M359.175 399.513H344.431L342.537 401.386H357.785C358.289 400.721 358.752 400.097 359.175 399.513Z" fill="#E17C8D"/>
<path d="M301.082 399.513H227.64C227.116 400.077 226.572 400.681 225.988 401.386H302.955L301.082 399.513Z" fill="#E17C8D"/>
<path d="M351.944 409.18H334.621L332.728 411.054H350.554C351.038 410.429 351.501 409.805 351.964 409.18H351.944Z" fill="#E17C8D"/>
<path d="M310.771 409.18H220.127C219.704 409.785 219.261 410.409 218.838 411.054H312.665L310.792 409.18H310.771Z" fill="#E17C8D"/>
<path d="M320.46 418.828H213.681C213.278 419.452 212.895 420.077 212.492 420.701H322.353L320.48 418.828H320.46Z" fill="#E17C8D"/>
<path d="M344.652 418.828H324.811L322.918 420.701H343.242C343.726 420.077 344.189 419.452 344.673 418.828H344.652Z" fill="#E17C8D"/>
<path d="M233.724 428.919C233.502 429.362 233.301 429.865 233.099 430.389H335.809C336.293 429.765 336.776 429.14 337.26 428.516H207.658C207.276 429.14 206.893 429.765 206.53 430.389H232.676L233.724 428.919Z" fill="#E17C8D"/>
<path d="M227.136 438.163H201.877C201.514 438.788 201.152 439.412 200.789 440.036H225.807L227.136 438.163Z" fill="#E17C8D"/>
<path d="M311.355 440.036H328.154C328.638 439.432 329.141 438.808 329.665 438.163H309.28L311.355 440.036Z" fill="#E17C8D"/>
<path d="M231.709 440.036H303.379C303.419 439.412 303.419 438.788 303.379 438.163H231.629C231.629 438.788 231.669 439.412 231.73 440.036H231.709Z" fill="#E17C8D"/>
<path d="M220.288 447.831H196.378C196.015 448.476 195.673 449.1 195.351 449.704H218.979L220.308 447.831H220.288Z" fill="#E17C8D"/>
<path d="M235.396 448.194C235.879 448.677 236.302 449.181 236.705 449.704H298.283C298.283 449.704 298.323 449.644 298.343 449.624C298.726 449.14 299.129 448.677 299.592 448.214C299.713 448.093 299.813 447.972 299.934 447.851H235.073C235.194 447.972 235.275 448.093 235.396 448.214V448.194Z" fill="#E17C8D"/>
<path d="M215.534 457.499H191.523C191.624 457.881 192.047 458.506 192.712 459.372H216.803L215.554 457.499H215.534Z" fill="#E17C8D"/>
<path d="M239.907 459.372H295.099C295.099 458.748 295.16 458.123 295.24 457.499H239.786C239.867 458.123 239.907 458.748 239.907 459.372Z" fill="#E17C8D"/>
<path d="M238.316 469.02H296.691C296.49 468.436 296.309 467.811 296.127 467.146H238.88C238.699 467.811 238.518 468.436 238.316 469.02Z" fill="#E17C8D"/>
<path d="M222 467.167H199.722C200.306 467.771 200.91 468.395 201.535 469.04H223.249L222 467.167Z" fill="#E17C8D"/>
<path d="M245.205 478.687H287.888C289.52 478.144 291.192 477.519 292.884 476.814H240.713C241.982 477.418 243.493 478.043 245.225 478.687H245.205Z" fill="#E17C8D"/>
<path d="M228.466 476.814H209.29C209.914 477.439 210.559 478.063 211.184 478.687H229.715L228.466 476.814Z" fill="#E17C8D"/>
<path d="M231.286 486.482H219.2C219.885 487.147 220.53 487.751 221.134 488.355H230.4L231.286 486.482Z" fill="#E17C8D"/>
<path d="M271.633 390.107L265.227 393.994L258.419 390.107V377.338H271.633V390.107Z" fill="#EDBC9C"/>
<path d="M271.633 382.393V390.107L270.042 391.074C270.102 390.752 270.163 390.429 270.203 390.107C270.828 386.603 271.371 383.843 271.613 382.393H271.633Z" fill="#EDBC9C"/>
<path d="M278.603 361.849V371.517C278.603 371.517 276.67 378.768 271.634 382.393C272.359 378.284 277.737 366.22 278.603 361.829V361.849Z" fill="#EDBC9C"/>
<path d="M271.633 382.393V385.011C269.961 386.22 267.927 387.025 265.53 387.025C262.589 387.025 260.252 386.2 258.419 384.971V382.353C260.252 383.581 262.589 384.407 265.53 384.407C267.927 384.407 269.961 383.602 271.633 382.393Z" fill="#DD9F80"/>
<path d="M278.804 363.541C278.804 363.541 278.663 363.541 278.583 363.561V360.338C278.583 360.338 260.132 361.507 256.788 354.075C256.486 353.39 251.873 361.909 251.873 361.909V363.621C249.718 364.024 248.086 365.918 248.086 368.193C248.086 370.469 250.141 372.786 252.356 373.43C253.444 377.056 256.727 384.407 265.53 384.407C272.701 384.407 276.448 377.237 277.878 373.591C277.938 373.591 277.999 373.611 278.079 373.611C280.657 373.611 283.478 370.751 283.478 368.173C283.478 365.595 281.383 363.521 278.824 363.521L278.804 363.541Z" fill="#EDBC9C"/>
<path d="M277.837 373.692C277.837 373.692 277.999 373.632 278.059 373.632C280.637 373.632 283.457 370.772 283.457 368.214C283.457 365.656 281.383 363.561 278.804 363.561C278.744 363.561 278.663 363.561 278.583 363.561V360.359C278.583 360.359 260.132 361.507 256.788 354.095C256.486 353.41 251.873 361.93 251.873 361.93V363.642C249.718 364.065 248.086 365.938 248.086 368.214C248.086 370.49 250.161 372.786 252.356 373.45C253.082 375.867 254.774 379.916 258.419 382.373V387.771C236.222 374.397 238.78 345.313 249.879 339.835C254.854 337.398 257.271 339.392 257.271 339.392C274.675 324.085 288.795 342.091 293.046 348.959C298.867 358.365 322.394 419.976 297.981 428.274C253.283 443.441 267.343 386.864 271.633 382.453C275.299 378.667 277.455 375.344 277.858 373.732L277.837 373.692Z" fill="#5750E4"/>
</g>
<defs>
<clipPath id="clip0_4211_14785">
<rect width="786" height="818" fill="white"/>
</clipPath>
</defs>
</svg>
