<svg width="500" height="500" viewBox="0 0 500 500" fill="none" xmlns="http://www.w3.org/2000/svg">
<mask id="mask0_3545_17357" style="mask-type:alpha" maskUnits="userSpaceOnUse" x="0" y="0" width="500" height="500">
<rect width="500" height="500" fill="#F6F7FF"/>
</mask>
<g mask="url(#mask0_3545_17357)">
<g opacity="0.4">
<path d="M459.523 251.623C459.523 251.623 459.47 251.623 459.444 251.61C459.339 251.571 459.287 251.44 459.326 251.335C461.474 246.084 462.535 240.309 462.378 234.625C462.378 234.507 462.47 234.403 462.588 234.403C462.706 234.403 462.811 234.494 462.811 234.612C462.968 240.348 461.894 246.189 459.719 251.493C459.68 251.571 459.601 251.623 459.523 251.623Z" fill="white"/>
<path d="M40.8198 481.688C40.6888 481.688 40.5578 481.648 40.4531 481.57C40.309 481.478 40.2173 481.321 40.1911 481.151L28.245 412.87C28.2188 412.713 28.245 412.543 28.3367 412.412L40.6495 393.423C40.7412 393.279 40.8984 393.174 41.0687 393.135L93.8175 383.483C93.9878 383.457 94.1581 383.483 94.3022 383.588C94.4463 383.68 94.538 383.837 94.5642 384.007L98.782 408.129C98.8475 408.483 98.6117 408.81 98.258 408.876C97.9043 408.941 97.5769 408.706 97.5114 408.352L93.3984 384.872L41.5534 394.353L29.5287 412.896L41.3176 480.286L107.781 468.068L104.087 446.984C104.021 446.631 104.257 446.303 104.611 446.238C104.965 446.172 105.292 446.408 105.358 446.762L109.156 468.474C109.222 468.828 108.986 469.155 108.632 469.221L40.9115 481.661C40.9115 481.661 40.8329 481.661 40.7936 481.661L40.8198 481.688Z" fill="#D1D1D1"/>
<path d="M28.8738 412.765L44.1077 409.609L41.1735 393.777L28.8738 412.765Z" fill="white"/>
<path d="M28.8736 413.407C28.6641 413.407 28.4676 413.302 28.3366 413.132C28.1925 412.922 28.1925 412.634 28.3366 412.412L40.6494 393.423C40.7935 393.2 41.0555 393.096 41.3175 393.135C41.5795 393.187 41.7759 393.397 41.8283 393.646L44.7625 409.478C44.828 409.819 44.6053 410.159 44.2647 410.225L29.0177 413.381C29.0177 413.381 28.926 413.394 28.8867 413.394L28.8736 413.407ZM40.8459 395.479L30.249 411.809L43.3609 409.099L40.8328 395.479H40.8459Z" fill="#D1D1D1"/>
<path d="M70.8684 401.307C70.7636 401.307 70.672 401.228 70.6589 401.136C70.6327 401.019 70.7112 400.914 70.8291 400.888L83.2206 398.622C83.3385 398.609 83.4433 398.675 83.4695 398.792C83.4957 398.91 83.4171 399.015 83.2992 399.041L70.9077 401.307C70.9077 401.307 70.8815 401.307 70.8684 401.307Z" fill="#D1D1D1"/>
<path d="M66.4541 406.205C66.3493 406.205 66.2576 406.126 66.2445 406.034C66.2184 405.916 66.2969 405.812 66.4148 405.785L83.9148 402.59C84.0327 402.577 84.1375 402.643 84.1637 402.76C84.1899 402.878 84.1113 402.983 83.9934 403.009L66.4934 406.205C66.4934 406.205 66.4672 406.205 66.4541 406.205Z" fill="#D1D1D1"/>
<path d="M44.0159 428.415C43.9111 428.415 43.8194 428.336 43.8063 428.244C43.7801 428.127 43.8587 428.022 43.9766 427.996L82.9717 420.858C83.0896 420.845 83.1944 420.911 83.2206 421.029C83.2468 421.147 83.1682 421.251 83.0503 421.278L44.0552 428.415C44.0552 428.415 44.029 428.415 44.0159 428.415Z" fill="#D1D1D1"/>
<path d="M46.282 441.392C46.1772 441.392 46.0855 441.314 46.0724 441.222C46.0462 441.104 46.1248 441 46.2427 440.973L85.2378 433.836C85.3557 433.823 85.4605 433.889 85.4867 434.006C85.5129 434.124 85.4343 434.229 85.3164 434.255L46.3213 441.392C46.3213 441.392 46.2951 441.392 46.282 441.392Z" fill="#D1D1D1"/>
<path d="M48.5481 454.357C48.4433 454.357 48.3516 454.278 48.3385 454.187C48.3123 454.069 48.3909 453.964 48.5088 453.938L87.5039 446.801C87.6218 446.788 87.7266 446.853 87.7528 446.971C87.779 447.089 87.7004 447.194 87.5825 447.22L48.5874 454.357C48.5874 454.357 48.5612 454.357 48.5481 454.357Z" fill="#D1D1D1"/>
<path d="M99.4238 415.529L91.9968 429.436L97.2625 428.48L99.45 440.986L108.03 439.415L105.842 426.909L111.095 425.94L99.4238 415.529Z" fill="#D1D1D1"/>
<path d="M99.45 441.628C99.319 441.628 99.188 441.589 99.0832 441.51C98.9391 441.406 98.8474 441.262 98.8213 441.091L96.7385 429.214L92.1147 430.065C91.8658 430.104 91.63 430.012 91.4728 429.816C91.3287 429.619 91.3025 429.344 91.4204 429.135L98.8474 415.227C98.9391 415.057 99.1094 414.926 99.3059 414.9C99.5024 414.861 99.6989 414.926 99.843 415.057L111.527 425.468C111.71 425.625 111.789 425.887 111.724 426.123C111.658 426.359 111.462 426.542 111.213 426.581L106.576 427.433L108.658 439.323C108.724 439.677 108.488 440.004 108.134 440.07L99.5548 441.641C99.5548 441.641 99.4762 441.641 99.4369 441.641L99.45 441.628ZM97.2625 427.825C97.3935 427.825 97.5245 427.865 97.6293 427.943C97.7733 428.035 97.865 428.192 97.8912 428.362L99.9739 440.24L107.283 438.904L105.2 427.013C105.135 426.66 105.371 426.332 105.724 426.267L109.693 425.547L99.6072 416.55L93.2019 428.559L97.1577 427.838C97.1577 427.838 97.2363 427.838 97.2756 427.838L97.2625 427.825Z" fill="#D1D1D1"/>
<path d="M375.857 140.514L365.678 142.889L366.782 147.621L376.962 145.245L375.857 140.514Z" fill="#D1D1D1"/>
<path d="M366.796 148.233C366.508 148.233 366.233 148.037 366.168 147.736L365.067 143.008C365.028 142.838 365.067 142.668 365.146 142.524C365.238 142.38 365.382 142.275 365.552 142.236L375.73 139.865C375.9 139.826 376.07 139.865 376.214 139.944C376.359 140.036 376.463 140.18 376.503 140.35L377.603 145.077C377.682 145.418 377.472 145.772 377.118 145.85L366.941 148.22C366.941 148.22 366.836 148.233 366.796 148.233ZM366.469 143.336L367.281 146.819L376.201 144.737L375.389 141.254L366.469 143.336Z" fill="#D1D1D1"/>
<path d="M385.842 89.0674C382.449 74.5443 367.753 65.5869 353.226 69.3454C339.616 72.8681 331.011 86.5923 333.801 100.369C335.32 107.899 339.852 114.015 345.865 117.747C352.453 121.833 357.313 124.373 359.068 131.929L376.948 127.752C375.206 120.3 378.245 115.887 382.358 109.431C386.065 103.604 387.519 96.3355 385.829 89.0805L385.842 89.0674Z" fill="white"/>
<path d="M359.068 132.571C358.78 132.571 358.505 132.375 358.439 132.073C356.855 125.277 352.624 122.671 346.768 119.07C346.362 118.821 345.943 118.559 345.511 118.297C339.053 114.29 334.652 107.964 333.146 100.5C330.277 86.3042 339.014 72.3443 353.043 68.7168C360.221 66.8572 367.674 67.9442 374.001 71.7812C380.341 75.6182 384.755 81.6946 386.445 88.9103C388.121 96.1129 386.864 103.512 382.895 109.759L382.489 110.4C378.546 116.568 375.953 120.641 377.564 127.582C377.603 127.752 377.564 127.922 377.485 128.066C377.393 128.21 377.249 128.315 377.079 128.354L359.199 132.532C359.199 132.532 359.094 132.545 359.055 132.545L359.068 132.571ZM359.959 69.1359C357.771 69.1359 355.571 69.4109 353.383 69.974C340.023 73.4312 331.692 86.7233 334.429 100.251C335.87 107.362 340.049 113.386 346.205 117.197C346.624 117.459 347.043 117.721 347.45 117.969C353.161 121.492 357.719 124.282 359.54 131.157L376.188 127.267C374.747 120.17 377.564 115.756 381.415 109.719L381.821 109.078C385.606 103.132 386.811 96.0736 385.213 89.2115C383.602 82.3363 379.398 76.548 373.359 72.8943C369.246 70.4061 364.635 69.1359 359.959 69.1359Z" fill="#D1D1D1"/>
<path d="M358.269 135.924L356.317 127.582L377.485 122.645L379.437 130.987C380.799 136.827 377.171 142.681 371.329 144.043C365.487 145.405 359.631 141.777 358.269 135.937V135.924Z" fill="white"/>
<path d="M367.478 145.326C365.696 145.326 363.928 144.829 362.382 143.86C360.182 142.498 358.649 140.35 358.06 137.822L355.702 127.713C355.623 127.372 355.833 127.019 356.186 126.94L377.354 122.003C377.524 121.964 377.695 122.003 377.839 122.081C377.983 122.173 378.088 122.317 378.127 122.487L380.485 132.597C381.074 135.125 380.642 137.718 379.28 139.918C377.917 142.118 375.769 143.65 373.241 144.239L369.704 145.064C368.971 145.235 368.224 145.326 367.478 145.326ZM357.09 128.053L359.304 137.534C359.815 139.721 361.151 141.581 363.05 142.759C364.963 143.951 367.216 144.318 369.403 143.807L372.94 142.982C375.127 142.471 376.987 141.136 378.166 139.237C379.358 137.325 379.725 135.072 379.214 132.885L377 123.404L357.077 128.053H357.09Z" fill="#D1D1D1"/>
<path d="M359.631 131.052C359.54 131.052 359.448 130.987 359.422 130.882C359.396 130.764 359.461 130.646 359.579 130.62L375.9 126.809C376.018 126.783 376.136 126.848 376.162 126.966C376.188 127.084 376.123 127.202 376.005 127.228L359.684 131.039C359.684 131.039 359.644 131.039 359.631 131.039V131.052Z" fill="#D1D1D1"/>
<path d="M353.776 105.974C353.685 105.974 353.593 105.908 353.567 105.804C353.541 105.686 353.606 105.568 353.724 105.542L370.045 101.731C370.163 101.705 370.281 101.77 370.307 101.888C370.333 102.006 370.268 102.124 370.15 102.15L353.829 105.961C353.829 105.961 353.789 105.961 353.776 105.961V105.974Z" fill="#D1D1D1"/>
<path d="M351.405 59.3796C351.117 59.3796 350.842 59.1831 350.777 58.8819L348.432 48.8507C348.353 48.5102 348.563 48.1566 348.917 48.078C349.257 47.9995 349.611 48.209 349.689 48.5626L352.034 58.5938C352.113 58.9343 351.903 59.2879 351.55 59.3665C351.497 59.3665 351.445 59.3796 351.405 59.3796Z" fill="#D1D1D1"/>
<path d="M381.886 62.5749C381.768 62.5749 381.65 62.5487 381.546 62.4832C381.244 62.2999 381.153 61.8939 381.336 61.5927L386.772 52.8449C386.955 52.5437 387.361 52.452 387.663 52.6353C387.964 52.8187 388.056 53.2246 387.872 53.5258L382.436 62.2737C382.318 62.4702 382.109 62.5749 381.886 62.5749Z" fill="#D1D1D1"/>
<path d="M398.155 84.9161C397.867 84.9161 397.592 84.7196 397.526 84.4184C397.448 84.078 397.657 83.7244 398.011 83.6458L408.045 81.3017C408.385 81.2231 408.739 81.4326 408.817 81.7862C408.896 82.1267 408.686 82.4803 408.333 82.5589L398.299 84.903C398.299 84.903 398.194 84.9161 398.155 84.9161Z" fill="#D1D1D1"/>
<path d="M327.068 75.3694C326.95 75.3694 326.832 75.3432 326.727 75.2777L317.977 69.843C317.676 69.6597 317.584 69.2537 317.768 68.9525C317.951 68.6513 318.357 68.5597 318.658 68.743L327.408 74.1777C327.71 74.361 327.801 74.767 327.618 75.0682C327.5 75.2646 327.29 75.3694 327.068 75.3694Z" fill="#D1D1D1"/>
<path d="M312.332 104.952C312.044 104.952 311.768 104.756 311.703 104.455C311.624 104.114 311.834 103.761 312.188 103.682L322.221 101.338C322.562 101.259 322.916 101.469 322.994 101.823C323.073 102.163 322.863 102.517 322.509 102.595L312.476 104.939C312.476 104.939 312.371 104.952 312.332 104.952Z" fill="#D1D1D1"/>
<path d="M363.024 126.154C362.736 126.154 362.487 125.971 362.408 125.683C362.356 125.499 357.195 107.349 346.939 101.587C346.624 101.417 346.519 101.024 346.69 100.709C346.86 100.395 347.253 100.29 347.567 100.461C358.295 106.485 363.443 124.57 363.653 125.329C363.744 125.67 363.548 126.023 363.207 126.128C363.155 126.141 363.089 126.154 363.037 126.154H363.024Z" fill="#D1D1D1"/>
<path d="M370.569 124.386C370.268 124.386 369.993 124.177 369.94 123.863C369.796 123.077 366.39 104.599 373.346 94.4366C373.542 94.1485 373.948 94.0699 374.237 94.2664C374.525 94.4628 374.603 94.8688 374.407 95.1569C367.753 104.861 371.172 123.417 371.211 123.614C371.276 123.967 371.054 124.295 370.7 124.36C370.661 124.36 370.621 124.36 370.582 124.36L370.569 124.386Z" fill="#D1D1D1"/>
<path d="M347.214 101.561C346.925 101.561 346.65 101.364 346.585 101.063C346.506 100.723 346.716 100.369 347.069 100.29C347.895 100.094 348.196 99.5439 348.576 98.8368C348.995 98.051 349.532 97.0688 350.921 96.7414C352.309 96.4141 353.226 97.0558 353.959 97.5796C354.614 98.0379 355.125 98.4046 355.95 98.2082C356.776 98.0117 357.077 97.4617 357.457 96.7545C357.876 95.9688 358.413 94.9866 359.801 94.6592C361.19 94.3319 362.107 94.9735 362.827 95.4974C363.482 95.9557 363.993 96.3224 364.818 96.126C365.644 95.9295 365.945 95.3795 366.325 94.6723C366.744 93.8866 367.281 92.9044 368.669 92.577C370.058 92.2496 370.975 92.8913 371.695 93.4152C372.35 93.8735 372.861 94.2402 373.686 94.0437C374.027 93.9652 374.38 94.1747 374.459 94.5283C374.538 94.8688 374.328 95.2224 373.974 95.3009C372.586 95.6283 371.669 94.9866 370.949 94.4628C370.294 94.0045 369.783 93.6378 368.958 93.8342C368.132 94.0307 367.831 94.5807 367.451 95.2878C367.032 96.0736 366.495 97.0557 365.107 97.3831C363.718 97.7105 362.801 97.0688 362.081 96.545C361.426 96.0867 360.915 95.72 360.09 95.9164C359.264 96.1129 358.963 96.6629 358.583 97.37C358.164 98.1558 357.627 99.138 356.239 99.4653C354.85 99.7927 353.933 99.151 353.2 98.6272C352.545 98.1689 352.034 97.8022 351.209 97.9986C350.383 98.1951 350.082 98.7451 349.702 99.4522C349.283 100.238 348.746 101.22 347.358 101.548C347.305 101.548 347.253 101.561 347.214 101.561Z" fill="#D1D1D1"/>
<path d="M194.076 339.875L197.599 337.793C196.303 333.38 196.473 333.956 195.176 329.543L191.089 329.7C189.282 327.984 188.299 327.041 186.492 325.313L186.452 321.227C181.986 320.14 182.562 320.284 178.095 319.21L176.183 322.824C173.786 323.532 172.476 323.911 170.092 324.619L166.529 322.615C163.359 325.941 163.778 325.509 160.595 328.835L162.77 332.293C162.18 334.715 161.866 336.038 161.277 338.474L157.753 340.556C159.05 344.969 158.879 344.393 160.176 348.806L164.263 348.649C166.071 350.365 167.053 351.308 168.861 353.036L168.9 357.122C173.367 358.209 172.79 358.065 177.257 359.139L179.169 355.524C181.567 354.817 182.876 354.437 185.26 353.73L188.823 355.734C191.993 352.408 191.574 352.84 194.757 349.513L192.583 346.056C193.172 343.633 193.486 342.311 194.076 339.875ZM177.663 347.222C173.223 347.222 169.62 343.62 169.62 339.181C169.62 334.742 173.223 331.14 177.663 331.14C182.104 331.14 185.706 334.742 185.706 339.181C185.706 343.62 182.104 347.222 177.663 347.222Z" fill="white"/>
<path d="M177.244 359.78C177.244 359.78 177.139 359.78 177.087 359.767L168.73 357.751C168.441 357.685 168.245 357.423 168.232 357.135L168.193 353.311L163.988 349.304L160.176 349.448C159.875 349.448 159.613 349.265 159.534 348.99L157.111 340.739C157.032 340.451 157.15 340.15 157.399 340.006L160.687 338.055L162.049 332.41L160.019 329.176C159.862 328.927 159.901 328.6 160.098 328.39L166.031 322.17C166.241 321.96 166.555 321.908 166.817 322.052L170.144 323.925L175.724 322.288L177.506 318.909C177.637 318.647 177.938 318.516 178.226 318.582L186.583 320.598C186.871 320.664 187.068 320.926 187.081 321.214L187.12 325.038L191.325 329.045L195.137 328.901C195.425 328.888 195.7 329.084 195.779 329.359L198.202 337.609C198.281 337.898 198.163 338.199 197.914 338.343L194.626 340.294L193.264 345.938L195.294 349.173C195.451 349.422 195.412 349.749 195.215 349.959L189.282 356.179C189.072 356.389 188.758 356.441 188.496 356.297L185.169 354.424L179.589 356.061L177.807 359.44C177.689 359.649 177.467 359.78 177.244 359.78ZM169.529 356.611L176.916 358.392L178.593 355.223C178.672 355.066 178.816 354.961 178.986 354.909L185.077 353.115C185.247 353.062 185.418 353.088 185.575 353.167L188.705 354.922L193.945 349.422L192.032 346.384C191.941 346.239 191.915 346.056 191.954 345.886L193.447 339.705C193.486 339.535 193.591 339.39 193.748 339.299L196.84 337.465L194.691 330.184L191.102 330.315C190.932 330.315 190.762 330.263 190.631 330.132L186.033 325.745C185.902 325.627 185.837 325.457 185.837 325.286L185.797 321.698L178.41 319.917L176.733 323.086C176.654 323.244 176.51 323.348 176.34 323.401L170.249 325.195C170.079 325.247 169.909 325.221 169.751 325.142L166.621 323.388L161.381 328.888L163.294 331.926C163.385 332.07 163.412 332.253 163.372 332.424L161.879 338.605C161.84 338.775 161.735 338.919 161.578 339.011L158.486 340.844L160.635 348.125L164.224 347.994C164.407 347.994 164.564 348.047 164.695 348.178L169.293 352.565C169.424 352.683 169.489 352.853 169.489 353.023L169.529 356.611ZM177.663 347.863C172.869 347.863 168.979 343.961 168.979 339.181C168.979 334.401 172.882 330.499 177.663 330.499C182.444 330.499 186.348 334.401 186.348 339.181C186.348 343.961 182.444 347.863 177.663 347.863ZM177.663 331.782C173.576 331.782 170.262 335.095 170.262 339.181C170.262 343.267 173.576 346.58 177.663 346.58C181.75 346.58 185.064 343.267 185.064 339.181C185.064 335.095 181.75 331.782 177.663 331.782Z" fill="#D1D1D1"/>
<path d="M501.701 29.8359C503.654 29.8359 505.237 28.2528 505.237 26.3C505.237 24.3473 503.654 22.7642 501.701 22.7642C499.748 22.7642 498.164 24.3473 498.164 26.3C498.164 28.2528 499.748 29.8359 501.701 29.8359Z" fill="#D1D1D1"/>
<path d="M501.701 30.4776C499.396 30.4776 497.522 28.6049 497.522 26.3001C497.522 23.9952 499.396 22.1226 501.701 22.1226C504.006 22.1226 505.879 23.9952 505.879 26.3001C505.879 28.6049 504.006 30.4776 501.701 30.4776ZM501.701 23.4059C500.103 23.4059 498.806 24.7024 498.806 26.3001C498.806 27.8977 500.103 29.1942 501.701 29.1942C503.299 29.1942 504.596 27.8977 504.596 26.3001C504.596 24.7024 503.299 23.4059 501.701 23.4059Z" fill="#D1D1D1"/>
<path d="M237.839 23.7988C239.791 23.7988 241.376 25.3833 241.376 27.3346C241.376 29.2858 239.791 30.8704 237.839 30.8704C235.887 30.8704 234.302 29.2858 234.302 27.3346C234.302 25.3833 235.887 23.7988 237.839 23.7988Z" fill="#D1D1D1"/>
<path d="M237.839 31.5252C235.534 31.5252 233.66 29.6525 233.66 27.3477C233.66 25.0428 235.534 23.1702 237.839 23.1702C240.144 23.1702 242.017 25.0428 242.017 27.3477C242.017 29.6525 240.144 31.5252 237.839 31.5252ZM237.839 24.4535C236.241 24.4535 234.944 25.75 234.944 27.3477C234.944 28.9453 236.241 30.2418 237.839 30.2418C239.437 30.2418 240.734 28.9453 240.734 27.3477C240.734 25.75 239.437 24.4535 237.839 24.4535Z" fill="#D1D1D1"/>
<path d="M73.5276 216.239C75.4809 216.239 77.0643 214.656 77.0643 212.703C77.0643 210.751 75.4809 209.167 73.5276 209.167C71.5744 209.167 69.991 210.751 69.991 212.703C69.991 214.656 71.5744 216.239 73.5276 216.239Z" fill="#D1D1D1"/>
<path d="M73.5276 216.881C71.2222 216.881 69.3491 215.008 69.3491 212.703C69.3491 210.398 71.2222 208.526 73.5276 208.526C75.833 208.526 77.7061 210.398 77.7061 212.703C77.7061 215.008 75.833 216.881 73.5276 216.881ZM73.5276 209.809C71.9296 209.809 70.6328 211.106 70.6328 212.703C70.6328 214.301 71.9296 215.597 73.5276 215.597C75.1257 215.597 76.4225 214.301 76.4225 212.703C76.4225 211.106 75.1257 209.809 73.5276 209.809Z" fill="#D1D1D1"/>
<path d="M356.894 438.642C358.846 438.642 360.431 440.227 360.431 442.178C360.431 444.129 358.846 445.714 356.894 445.714C354.942 445.714 353.357 444.129 353.357 442.178C353.357 440.227 354.942 438.642 356.894 438.642Z" fill="#D1D1D1"/>
<path d="M356.894 446.369C354.588 446.369 352.715 444.496 352.715 442.191C352.715 439.886 354.588 438.014 356.894 438.014C359.199 438.014 361.072 439.886 361.072 442.191C361.072 444.496 359.199 446.369 356.894 446.369ZM356.894 439.297C355.296 439.297 353.999 440.594 353.999 442.191C353.999 443.789 355.296 445.085 356.894 445.085C358.492 445.085 359.789 443.789 359.789 442.191C359.789 440.594 358.492 439.297 356.894 439.297Z" fill="#D1D1D1"/>
<path d="M201.32 293.006C203.7 293.006 205.629 291.077 205.629 288.697C205.629 286.318 203.7 284.389 201.32 284.389C198.939 284.389 197.01 286.318 197.01 288.697C197.01 291.077 198.939 293.006 201.32 293.006Z" fill="#D1D1D1"/>
<path d="M201.32 293.647C198.582 293.647 196.368 291.421 196.368 288.697C196.368 285.973 198.595 283.747 201.32 283.747C204.044 283.747 206.271 285.973 206.271 288.697C206.271 291.421 204.044 293.647 201.32 293.647ZM201.32 285.03C199.302 285.03 197.652 286.68 197.652 288.697C197.652 290.714 199.302 292.364 201.32 292.364C203.337 292.364 204.987 290.714 204.987 288.697C204.987 286.68 203.337 285.03 201.32 285.03Z" fill="#D1D1D1"/>
<path d="M133.795 486.428C136.179 486.428 138.105 488.353 138.105 490.737C138.105 493.12 136.179 495.045 133.795 495.045C131.411 495.045 129.486 493.12 129.486 490.737C129.486 488.353 131.411 486.428 133.795 486.428Z" fill="#D1D1D1"/>
<path d="M133.795 495.687C131.057 495.687 128.844 493.461 128.844 490.737C128.844 488.013 131.071 485.787 133.795 485.787C136.52 485.787 138.746 488.013 138.746 490.737C138.746 493.461 136.52 495.687 133.795 495.687ZM133.795 487.07C131.778 487.07 130.127 488.72 130.127 490.737C130.127 492.753 131.778 494.404 133.795 494.404C135.812 494.404 137.463 492.753 137.463 490.737C137.463 488.72 135.812 487.07 133.795 487.07Z" fill="#D1D1D1"/>
<path d="M465.443 137.835C466.391 137.835 467.159 137.067 467.159 136.12C467.159 135.172 466.391 134.404 465.443 134.404C464.496 134.404 463.728 135.172 463.728 136.12C463.728 137.067 464.496 137.835 465.443 137.835Z" fill="#D1D1D1"/>
<path d="M465.443 138.477C464.147 138.477 463.086 137.416 463.086 136.12C463.086 134.823 464.147 133.763 465.443 133.763C466.74 133.763 467.801 134.823 467.801 136.12C467.801 137.416 466.74 138.477 465.443 138.477ZM465.443 135.046C464.854 135.046 464.369 135.531 464.369 136.12C464.369 136.709 464.854 137.194 465.443 137.194C466.033 137.194 466.518 136.709 466.518 136.12C466.518 135.531 466.033 135.046 465.443 135.046Z" fill="#D1D1D1"/>
<path d="M400.159 241.291C401.102 241.291 401.875 242.064 401.875 243.007C401.875 243.949 401.102 244.722 400.159 244.722C399.216 244.722 398.443 243.949 398.443 243.007C398.443 242.064 399.216 241.291 400.159 241.291Z" fill="#D1D1D1"/>
<path d="M400.159 245.364C398.862 245.364 397.801 244.303 397.801 243.007C397.801 241.71 398.862 240.649 400.159 240.649C401.456 240.649 402.517 241.71 402.517 243.007C402.517 244.303 401.456 245.364 400.159 245.364ZM400.159 241.933C399.57 241.933 399.085 242.417 399.085 243.007C399.085 243.596 399.57 244.08 400.159 244.08C400.748 244.08 401.233 243.596 401.233 243.007C401.233 242.417 400.748 241.933 400.159 241.933Z" fill="#D1D1D1"/>
<path d="M0.357787 385.199C1.30547 385.199 2.07373 384.431 2.07373 383.483C2.07373 382.536 1.30547 381.768 0.357787 381.768C-0.589901 381.768 -1.35815 382.536 -1.35815 383.483C-1.35815 384.431 -0.589901 385.199 0.357787 385.199Z" fill="#D1D1D1"/>
<path d="M0.357782 385.841C-0.938998 385.841 -2 384.78 -2 383.483C-2 382.187 -0.938998 381.126 0.357782 381.126C1.65456 381.126 2.71556 382.187 2.71556 383.483C2.71556 384.78 1.65456 385.841 0.357782 385.841ZM0.357782 382.41C-0.231664 382.41 -0.716319 382.894 -0.716319 383.483C-0.716319 384.073 -0.231664 384.557 0.357782 384.557C0.947227 384.557 1.43188 384.073 1.43188 383.483C1.43188 382.894 0.947227 382.41 0.357782 382.41Z" fill="#D1D1D1"/>
<path d="M469.517 189.38C469.517 186.735 471.665 184.587 474.311 184.587C476.957 184.587 479.105 186.735 479.105 189.38C479.105 192.025 476.957 194.173 474.311 194.173C471.665 194.173 469.517 192.025 469.517 189.38Z" fill="white"/>
<path d="M474.311 194.815C471.312 194.815 468.862 192.379 468.862 189.367C468.862 186.355 471.299 183.919 474.311 183.919C477.324 183.919 479.761 186.355 479.761 189.367C479.761 192.379 477.324 194.815 474.311 194.815ZM474.311 185.215C472.019 185.215 470.159 187.075 470.159 189.367C470.159 191.658 472.019 193.518 474.311 193.518C476.604 193.518 478.464 191.658 478.464 189.367C478.464 187.075 476.604 185.215 474.311 185.215Z" fill="#D1D1D1"/>
<path d="M27.9832 31.4727C27.9832 28.8274 30.1314 26.6797 32.7773 26.6797C35.4233 26.6797 37.5715 28.8274 37.5715 31.4727C37.5715 34.118 35.4233 36.2657 32.7773 36.2657C30.1314 36.2657 27.9832 34.118 27.9832 31.4727Z" fill="white"/>
<path d="M32.7772 36.9074C29.7776 36.9074 27.3281 34.4716 27.3281 31.4596C27.3281 28.4476 29.7645 26.0118 32.7772 26.0118C35.7899 26.0118 38.2263 28.4476 38.2263 31.4596C38.2263 34.4716 35.7899 36.9074 32.7772 36.9074ZM32.7772 27.3083C30.4849 27.3083 28.6249 29.1679 28.6249 31.4596C28.6249 33.7514 30.4849 35.6109 32.7772 35.6109C35.0695 35.6109 36.9295 33.7514 36.9295 31.4596C36.9295 29.1679 35.0695 27.3083 32.7772 27.3083Z" fill="#D1D1D1"/>
<path d="M6.43555 206.588C6.43555 203.942 8.58375 201.795 11.2297 201.795C13.8757 201.795 16.0239 203.942 16.0239 206.588C16.0239 209.233 13.8757 211.381 11.2297 211.381C8.58375 211.381 6.43555 209.233 6.43555 206.588Z" fill="white"/>
<path d="M11.2299 212.035C8.23024 212.035 5.78076 209.6 5.78076 206.588C5.78076 203.576 8.21714 201.14 11.2299 201.14C14.2426 201.14 16.679 203.576 16.679 206.588C16.679 209.6 14.2426 212.035 11.2299 212.035ZM11.2299 202.436C8.93757 202.436 7.07754 204.296 7.07754 206.588C7.07754 208.879 8.93757 210.739 11.2299 210.739C13.5221 210.739 15.3822 208.879 15.3822 206.588C15.3822 204.296 13.5221 202.436 11.2299 202.436Z" fill="#D1D1D1"/>
<path d="M211.104 376.621C211.104 374.919 212.479 373.544 214.182 373.544C215.885 373.544 217.26 374.919 217.26 376.621C217.26 378.324 215.885 379.699 214.182 379.699C212.479 379.699 211.104 378.324 211.104 376.621Z" fill="white"/>
<path d="M214.195 380.354C212.139 380.354 210.462 378.677 210.462 376.621C210.462 374.565 212.139 372.889 214.195 372.889C216.252 372.889 217.928 374.565 217.928 376.621C217.928 378.677 216.252 380.354 214.195 380.354ZM214.195 374.186C212.846 374.186 211.759 375.286 211.759 376.621C211.759 377.957 212.859 379.057 214.195 379.057C215.531 379.057 216.632 377.957 216.632 376.621C216.632 375.286 215.531 374.186 214.195 374.186Z" fill="#D1D1D1"/>
<path d="M97.4328 302.382C88.434 302.382 79.9852 296.803 76.776 287.859C75.2828 283.708 75.0863 279.268 76.1735 275.012C76.2652 274.672 76.6188 274.462 76.9594 274.554C77.3 274.646 77.5096 274.999 77.4179 275.34C76.3831 279.347 76.5796 283.524 77.9811 287.427C81.8191 298.126 93.6604 303.718 104.362 299.881C115.064 296.044 120.657 284.205 116.819 273.506C112.981 262.807 101.14 257.215 90.4381 261.052C86.5739 262.441 83.2468 264.902 80.8236 268.189C80.614 268.478 80.2079 268.53 79.9197 268.32C79.6316 268.111 79.5792 267.705 79.7888 267.417C82.3692 263.92 85.9059 261.301 90.0058 259.834C101.376 255.762 113.95 261.694 118.037 273.061C122.111 284.428 116.177 297 104.807 301.086C102.371 301.963 99.8823 302.369 97.4328 302.369V302.382Z" fill="#D1D1D1"/>
<path d="M97.446 315.583C83.0374 315.583 69.4932 306.638 64.3585 292.325C61.6863 284.873 61.5815 276.977 64.0572 269.486C64.1751 269.145 64.5288 268.962 64.8693 269.08C65.2099 269.198 65.3933 269.551 65.2754 269.892C62.8914 277.108 62.9962 284.716 65.5636 291.893C71.8641 309.454 91.2634 318.608 108.829 312.309C117.33 309.257 124.141 303.076 128.005 294.918C131.87 286.746 132.315 277.566 129.263 269.067C126.211 260.568 120.028 253.758 111.868 249.895C103.694 246.032 94.5119 245.586 86.0108 248.638C78.8065 251.218 72.8465 255.997 68.7859 262.467C68.6025 262.768 68.1964 262.86 67.8952 262.663C67.5939 262.48 67.5022 262.074 67.6987 261.773C71.9165 255.068 78.0991 250.104 85.5785 247.42C94.4071 244.251 103.943 244.722 112.431 248.716C120.919 252.724 127.324 259.782 130.494 268.622C133.664 277.448 133.193 286.982 129.197 295.468C125.189 303.954 118.129 310.357 109.287 313.527C105.384 314.928 101.389 315.583 97.4722 315.596L97.446 315.583Z" fill="#D1D1D1"/>
<path d="M106.091 277.343C104.375 272.55 99.0835 270.049 94.2893 271.765C89.4952 273.48 86.9933 278.771 88.7092 283.564C90.4252 288.357 95.7171 290.858 100.511 289.142C105.305 287.427 107.807 282.136 106.091 277.343Z" fill="white"/>
<path d="M97.4199 290.334C93.3723 290.334 89.5606 287.82 88.1197 283.786C87.229 281.298 87.36 278.627 88.4865 276.243C89.613 273.86 91.604 272.053 94.0797 271.162C96.5685 270.272 99.2406 270.403 101.625 271.529C104.009 272.655 105.816 274.646 106.707 277.121C108.541 282.241 105.869 287.911 100.747 289.745C99.6467 290.138 98.5333 290.321 97.4199 290.321V290.334ZM97.4199 271.869C96.4375 271.869 95.4682 272.04 94.5119 272.38C92.3506 273.153 90.6216 274.724 89.6392 276.793C88.6568 278.862 88.552 281.193 89.3248 283.354C90.9229 287.807 95.848 290.138 100.302 288.54C104.755 286.942 107.087 282.018 105.489 277.566C104.716 275.405 103.144 273.677 101.074 272.694C99.9086 272.144 98.6643 271.869 97.4199 271.869Z" fill="#D1D1D1"/>
<path d="M97.4065 281.102C97.3148 281.102 97.2231 281.076 97.1314 281.036L48.2467 257.962C47.9192 257.805 47.7883 257.425 47.9454 257.111C48.1026 256.783 48.4825 256.652 48.7969 256.809L97.6815 279.884C98.009 280.041 98.14 280.421 97.9828 280.735C97.878 280.971 97.6422 281.102 97.3934 281.102H97.4065Z" fill="#D1D1D1"/>
<path d="M60.6906 263.252L48.4825 257.49L40.3875 261.354L52.5955 267.116L60.6906 263.252Z" fill="#D1D1D1"/>
<path d="M52.5957 267.77C52.504 267.77 52.4123 267.744 52.3206 267.705L40.0994 261.943C39.8768 261.838 39.7327 261.615 39.7327 261.367C39.7327 261.118 39.8768 260.895 40.0994 260.79L48.1945 256.927C48.3648 256.849 48.5743 256.849 48.7446 256.927L60.9658 262.689C61.1885 262.794 61.3326 263.017 61.3326 263.265C61.3326 263.514 61.1885 263.737 60.9658 263.842L52.8707 267.705C52.7791 267.744 52.6874 267.77 52.5957 267.77ZM41.8809 261.354L52.5957 266.408L59.1975 263.265L48.4827 258.211L41.8809 261.354Z" fill="#D1D1D1"/>
<path d="M60.7431 263.161L48.5219 257.386L46.3213 248.782L58.5294 254.557L60.7431 263.161Z" fill="#D1D1D1"/>
<path d="M60.7432 263.802C60.6515 263.802 60.5598 263.776 60.4681 263.737L48.2469 257.975C48.0766 257.896 47.9456 257.739 47.8932 257.556L45.6795 248.952C45.6141 248.716 45.7057 248.454 45.8891 248.297C46.0856 248.14 46.3476 248.101 46.5703 248.206L58.7914 253.968C58.9617 254.046 59.0927 254.203 59.1451 254.387L61.3588 262.991C61.4243 263.226 61.3326 263.488 61.1492 263.645C61.0313 263.737 60.8872 263.789 60.7432 263.789V263.802ZM49.0721 256.94L59.7738 261.995L57.9793 255.015L47.2776 249.96L49.0721 256.94Z" fill="#D1D1D1"/>
<path d="M153.338 115.913C147.994 115.913 142.899 113.988 138.864 110.426C134.476 106.55 131.856 101.207 131.49 95.3664C130.743 83.3053 139.938 72.8812 152.002 72.1347C164.066 71.3883 174.493 80.5814 175.24 92.6425C175.371 94.6985 175.213 96.7545 174.768 98.7581C174.69 99.1117 174.349 99.3213 173.995 99.2427C173.642 99.1641 173.432 98.8236 173.511 98.47C173.93 96.5974 174.074 94.6592 173.956 92.721C173.249 81.3671 163.438 72.7109 152.081 73.4181C140.724 74.1252 132.066 83.9339 132.773 95.2878C133.114 100.788 135.577 105.817 139.716 109.47C143.842 113.111 149.147 114.931 154.648 114.591C158.408 114.355 162.036 113.098 165.114 110.963C165.402 110.767 165.809 110.832 166.005 111.12C166.201 111.409 166.136 111.814 165.848 112.011C162.573 114.29 158.722 115.612 154.727 115.861C154.255 115.887 153.797 115.9 153.338 115.9V115.913Z" fill="#D1D1D1"/>
<path d="M153.338 129.114C134.961 129.114 119.465 114.774 118.312 96.1914C117.723 86.8281 120.827 77.8052 127.036 70.7728C133.245 63.7404 141.825 59.5498 151.177 58.9605C170.498 57.7557 187.212 72.5014 188.417 91.8175C188.849 98.7189 187.251 105.529 183.819 111.5C183.636 111.815 183.243 111.919 182.942 111.736C182.627 111.553 182.523 111.16 182.706 110.859C186.02 105.11 187.553 98.5486 187.133 91.8961C185.968 73.2872 169.882 59.0784 151.269 60.2439C132.655 61.4094 118.443 77.4909 119.609 96.0998C120.775 114.709 136.86 128.917 155.474 127.752C161.695 127.359 167.669 125.277 172.751 121.715C173.039 121.505 173.445 121.584 173.642 121.872C173.851 122.16 173.773 122.566 173.484 122.762C168.206 126.455 162.01 128.629 155.539 129.022C154.806 129.075 154.059 129.088 153.338 129.088V129.114Z" fill="#D1D1D1"/>
<path d="M152.788 84.7852C157.871 84.4709 162.259 88.3341 162.573 93.4283C162.888 98.5094 159.023 102.896 153.928 103.211C148.833 103.525 144.458 99.6618 144.143 94.5676C143.829 89.4865 147.693 85.0995 152.788 84.7852Z" fill="white"/>
<path d="M153.352 103.879C150.941 103.879 148.649 103.014 146.828 101.403C144.85 99.6618 143.672 97.2522 143.501 94.62C143.331 91.9877 144.209 89.4472 145.951 87.4697C147.693 85.4923 150.103 84.3137 152.736 84.1434C155.369 83.9863 157.91 84.8506 159.888 86.5923C161.866 88.334 163.045 90.7436 163.215 93.3759C163.556 98.8105 159.403 103.499 153.967 103.839C153.758 103.839 153.548 103.852 153.339 103.852L153.352 103.879ZM152.828 85.4399C150.535 85.584 148.44 86.6054 146.92 88.3209C145.401 90.0365 144.641 92.2496 144.785 94.5414C144.929 96.8331 145.951 98.9284 147.667 100.448C149.383 101.967 151.596 102.726 153.889 102.582C158.617 102.294 162.219 98.2082 161.931 93.4806C161.643 88.7531 157.556 85.1518 152.828 85.4399Z" fill="#D1D1D1"/>
<path d="M214.772 134.339C215.754 128.394 204.162 111.553 200.769 109.719C198.778 108.645 195.634 111.304 196.486 113.582C195.097 111.526 192.36 111.016 191.089 111.54C189.819 112.063 189.426 113.046 189.295 114.486C187.867 113.674 186.19 112.797 184.749 113.425C183.309 114.054 182.549 116.058 182.64 117.721C172.371 102.582 170.013 98.1165 167.249 99.8452C162.639 102.739 173.917 116.778 182.562 132.074C182.824 132.545 183.819 134.601 183.872 135.125C182.981 134.811 179.981 132.519 170.825 133.92C168.166 134.326 164.459 137.639 165.953 138.294C168.861 139.577 170.524 139.289 173.864 139.957C180.034 141.188 189.006 148.941 191.823 149.491C195.936 151.39 212.178 150.054 214.785 134.326L214.772 134.339Z" fill="white"/>
<path d="M195.923 150.826C194.076 150.826 192.556 150.551 191.613 150.132C190.356 149.844 188.273 148.482 185.653 146.78C181.933 144.344 177.296 141.319 173.733 140.612C172.607 140.389 171.703 140.271 170.812 140.167C169.136 139.957 167.682 139.787 165.691 138.909C165.167 138.687 164.905 138.215 164.983 137.652C165.193 136.107 168.415 133.671 170.734 133.304C177.414 132.283 180.951 133.213 182.745 133.933C182.483 133.344 182.169 132.715 181.999 132.414C179.601 128.171 177.047 124.098 174.585 120.17C167.878 109.484 163.031 101.757 166.909 99.3213C168.782 98.1427 170.406 99.5046 171.742 101.011C173.471 102.949 175.803 106.432 179.339 111.684C180.217 112.98 181.16 114.394 182.195 115.94C182.536 114.63 183.308 113.386 184.487 112.862C185.941 112.221 187.526 112.849 188.784 113.504C189.006 112.482 189.517 111.513 190.84 110.976C192.032 110.492 194.18 110.728 195.818 111.972C196.014 111.225 196.473 110.505 197.167 109.903C198.398 108.829 199.944 108.541 201.083 109.169C204.463 111.003 216.488 127.988 215.427 134.457C214.104 142.419 209.44 146.413 205.76 148.364C202.341 150.172 198.765 150.826 195.949 150.826H195.923ZM166.267 137.744C168.075 138.53 169.358 138.687 170.969 138.883C171.834 138.988 172.816 139.106 173.982 139.342C177.794 140.101 182.536 143.205 186.36 145.693C188.705 147.225 190.932 148.679 191.941 148.875C191.993 148.875 192.032 148.901 192.085 148.928C194.285 149.949 200.049 149.91 205.131 147.225C208.563 145.405 212.899 141.686 214.13 134.247C215.034 128.76 203.808 112.116 200.455 110.295C199.695 109.876 198.66 110.295 197.992 110.872C197.35 111.435 196.722 112.417 197.075 113.373C197.193 113.674 197.049 114.028 196.761 114.172C196.473 114.316 196.119 114.224 195.936 113.962C194.678 112.09 192.216 111.788 191.312 112.155C190.395 112.535 190.041 113.163 189.923 114.565C189.91 114.787 189.779 114.984 189.583 115.075C189.386 115.18 189.15 115.18 188.967 115.075C187.513 114.25 186.112 113.556 185.011 114.041C183.832 114.565 183.217 116.319 183.282 117.708C183.295 117.996 183.125 118.258 182.85 118.349C182.575 118.441 182.274 118.349 182.116 118.1C180.689 115.992 179.418 114.106 178.278 112.404C171.284 101.98 169.384 99.3082 167.603 100.421C164.813 102.176 170.092 110.584 175.685 119.489C178.161 123.43 180.715 127.503 183.138 131.785C183.243 131.982 184.461 134.326 184.527 135.099C184.54 135.321 184.448 135.531 184.278 135.662C184.107 135.793 183.872 135.832 183.675 135.766C183.531 135.714 183.361 135.636 183.164 135.544C181.959 134.955 178.737 133.409 170.943 134.601C168.834 134.928 166.463 137.05 166.28 137.77L166.267 137.744Z" fill="#D1D1D1"/>
<path d="M184.867 121.82C184.658 121.82 184.461 121.715 184.33 121.531L181.566 117.433C181.37 117.131 181.449 116.738 181.737 116.542C182.038 116.346 182.431 116.424 182.627 116.712L185.391 120.811C185.588 121.112 185.509 121.505 185.221 121.702C185.116 121.78 184.985 121.806 184.867 121.806V121.82Z" fill="#D1D1D1"/>
<path d="M190.88 117.524C190.644 117.524 190.408 117.393 190.303 117.158C189.95 116.411 189.072 115.232 188.378 114.735C188.09 114.525 188.024 114.119 188.234 113.831C188.443 113.543 188.849 113.478 189.137 113.687C190.028 114.329 191.037 115.691 191.469 116.594C191.626 116.922 191.482 117.302 191.168 117.459C191.076 117.498 190.984 117.524 190.893 117.524H190.88Z" fill="#D1D1D1"/>
<path d="M102.882 359.689C99.1881 359.689 96.1885 356.69 96.1885 352.997C96.1885 349.304 99.1881 346.305 102.882 346.305C106.576 346.305 109.575 349.304 109.575 352.997C109.575 356.69 106.576 359.689 102.882 359.689ZM102.882 347.601C99.9085 347.601 97.4853 350.024 97.4853 352.997C97.4853 355.97 99.9085 358.392 102.882 358.392C105.855 358.392 108.279 355.97 108.279 352.997C108.279 350.024 105.855 347.601 102.882 347.601Z" fill="#D1D1D1"/>
<path d="M11.2297 485.878C8.92431 485.878 7.03809 483.993 7.03809 481.688C7.03809 479.383 8.92431 477.497 11.2297 477.497C13.5351 477.497 15.4213 479.383 15.4213 481.688C15.4213 483.993 13.5351 485.878 11.2297 485.878ZM11.2297 478.78C9.63165 478.78 8.32177 480.077 8.32177 481.688C8.32177 483.298 9.61855 484.595 11.2297 484.595C12.8409 484.595 14.1376 483.298 14.1376 481.688C14.1376 480.077 12.8409 478.78 11.2297 478.78Z" fill="#D1D1D1"/>
<path d="M505.683 474.983C505.604 474.983 505.526 474.97 505.447 474.943L446.751 451.659C446.424 451.528 446.254 451.149 446.385 450.821C446.516 450.494 446.896 450.337 447.223 450.455L505.552 473.595L550.677 433.692C550.939 433.456 551.345 433.483 551.581 433.744C551.817 434.006 551.791 434.412 551.529 434.648L506.102 474.812C505.984 474.917 505.827 474.97 505.67 474.97L505.683 474.983Z" fill="#D1D1D1"/>
<path d="M495.846 477.68C494.104 472.102 497.208 466.182 502.788 464.441C508.368 462.699 514.289 465.803 516.031 471.381C517.773 476.96 514.669 482.879 509.089 484.621C503.509 486.363 497.588 483.259 495.846 477.68Z" fill="white"/>
<path d="M505.945 485.747C501.164 485.747 496.723 482.67 495.23 477.877C493.383 471.971 496.684 465.672 502.592 463.825C508.499 461.979 514.8 465.279 516.647 471.185C517.537 474.04 517.262 477.078 515.874 479.736C514.485 482.395 512.141 484.346 509.285 485.236C508.172 485.577 507.058 485.747 505.945 485.747ZM496.461 477.484C498.099 482.709 503.679 485.629 508.905 484.005C511.433 483.22 513.503 481.491 514.734 479.134C515.965 476.79 516.214 474.092 515.415 471.565C513.778 466.339 508.198 463.419 502.971 465.043C497.745 466.68 494.824 472.259 496.448 477.484H496.461Z" fill="#D1D1D1"/>
<path d="M445.913 455.496C444.721 451.699 446.843 447.652 450.642 446.473C454.44 445.282 458.488 447.403 459.667 451.201C460.859 454.999 458.737 459.045 454.938 460.224C451.139 461.416 447.092 459.294 445.913 455.496Z" fill="#D1D1D1"/>
<path d="M452.803 461.206C449.463 461.206 446.358 459.045 445.31 455.693C444.014 451.568 446.332 447.154 450.458 445.858C454.598 444.561 458.999 446.879 460.296 451.005C461.592 455.13 459.274 459.543 455.148 460.839C454.375 461.075 453.589 461.193 452.816 461.193L452.803 461.206ZM446.529 455.313C447.603 458.77 451.297 460.695 454.755 459.621C458.213 458.548 460.138 454.855 459.064 451.397C457.99 447.94 454.296 446.015 450.838 447.089C449.162 447.613 447.799 448.752 446.987 450.31C446.175 451.869 446.018 453.637 446.542 455.313H446.529Z" fill="#D1D1D1"/>
<path d="M461.422 70.93C461.186 70.93 460.976 70.799 460.859 70.6026L435.722 25.3179L374.341 13.1651C373.987 13.0996 373.765 12.7591 373.83 12.4056C373.896 12.052 374.236 11.8293 374.59 11.8948L436.272 24.1131C436.456 24.1523 436.613 24.2702 436.704 24.4273L461.802 69.6204L516.895 67.5382C517.249 67.5382 517.55 67.8001 517.563 68.1537C517.576 68.5073 517.301 68.8085 516.948 68.8216L461.461 70.9169C461.461 70.9169 461.448 70.9169 461.435 70.9169L461.422 70.93Z" fill="#D1D1D1"/>
<path d="M452.502 66.9489C454.506 61.9857 460.151 59.6023 465.103 61.5928C470.067 63.5964 472.451 69.2407 470.46 74.1908C468.456 79.154 462.81 81.5375 457.859 79.5469C452.895 77.5433 450.511 71.8991 452.502 66.9489Z" fill="white"/>
<path d="M461.488 80.8957C460.178 80.8957 458.868 80.6469 457.623 80.1362C455.069 79.1016 453.065 77.1373 451.991 74.5967C450.917 72.0562 450.891 69.2537 451.925 66.7001C454.061 61.4225 460.086 58.8558 465.365 60.9904C467.919 62.0249 469.923 63.9893 470.997 66.5298C472.071 69.0704 472.098 71.8729 471.063 74.4265C470.028 76.9802 468.063 78.9838 465.522 80.0576C464.225 80.6076 462.85 80.8827 461.488 80.8827V80.8957ZM461.488 61.5273C460.282 61.5273 459.091 61.763 457.951 62.2476C455.724 63.1904 454.008 64.9453 453.104 67.1846C452.201 69.424 452.227 71.8729 453.17 74.0991C454.113 76.3254 455.868 78.0409 458.108 78.9445C460.348 79.8481 462.797 79.8219 465.024 78.879C467.251 77.9361 468.967 76.1813 469.871 73.942C471.731 69.3192 469.491 64.0417 464.88 62.1821C463.793 61.7368 462.64 61.5142 461.501 61.5142L461.488 61.5273Z" fill="#D1D1D1"/>
<path d="M430.011 22.2796C431.373 18.901 435.224 17.264 438.604 18.626C441.983 19.9879 443.621 23.838 442.259 27.2167C440.896 30.5954 437.045 32.2323 433.666 30.8704C430.286 29.5084 428.649 25.6583 430.011 22.2796Z" fill="#D1D1D1"/>
<path d="M436.141 31.9966C435.224 31.9966 434.307 31.8133 433.43 31.4728C431.635 30.7526 430.234 29.3644 429.474 27.5834C428.714 25.8024 428.701 23.8381 429.421 22.044C430.142 20.2499 431.53 18.8486 433.312 18.0891C435.093 17.3295 437.058 17.3164 438.853 18.0367C440.647 18.757 442.049 20.1451 442.808 21.9261C443.568 23.7071 443.581 25.6715 442.861 27.4656C442.14 29.2597 440.752 30.6609 438.97 31.4204C438.054 31.8133 437.097 31.9966 436.141 31.9966ZM436.141 18.7962C433.783 18.7962 431.543 20.2106 430.613 22.5154C430.024 23.9952 430.037 25.606 430.653 27.0727C431.268 28.5394 432.434 29.6656 433.901 30.268C435.381 30.8573 436.993 30.8442 438.46 30.2287C439.927 29.6132 441.053 28.4477 441.656 26.981C442.245 25.5012 442.232 23.8904 441.616 22.4237C441.001 20.957 439.835 19.8308 438.368 19.2284C437.634 18.9403 436.888 18.7962 436.141 18.7962Z" fill="#D1D1D1"/>
<path d="M369.167 10.9519C368.054 13.7151 369.39 16.8449 372.141 17.9581C374.905 19.0712 378.035 17.7354 379.149 14.9854C380.262 12.2222 378.926 9.09233 376.175 7.9792C373.411 6.86607 370.281 8.20183 369.167 10.9519Z" fill="white"/>
<path d="M374.158 18.9927C373.411 18.9927 372.652 18.8486 371.905 18.5605C370.412 17.9581 369.246 16.8057 368.617 15.3259C367.988 13.8461 367.975 12.2091 368.578 10.7162C369.18 9.22333 370.333 8.05782 371.813 7.42923C373.293 6.80064 374.931 6.78754 376.424 7.38994C379.502 8.63403 381.009 12.1568 379.764 15.2342C378.821 17.5783 376.555 19.0058 374.158 19.0058V18.9927ZM374.158 8.21497C373.529 8.21497 372.9 8.34592 372.298 8.59474C371.132 9.09237 370.228 10.0091 369.757 11.1877C369.285 12.3663 369.298 13.6497 369.783 14.8152C370.281 15.9807 371.198 16.8843 372.376 17.3557C373.555 17.8272 374.839 17.8141 376.005 17.3295C377.171 16.8319 378.074 15.9152 378.546 14.7366C379.528 12.3139 378.349 9.53763 375.926 8.56855C375.35 8.33283 374.747 8.21497 374.145 8.21497H374.158Z" fill="#D1D1D1"/>
<path d="M169.476 18.9271C167.629 12.6543 171.624 5.96239 178.397 3.95876C185.169 1.96822 192.163 5.42547 194.01 11.6983C195.857 17.9711 191.862 24.663 185.09 26.6666C178.318 28.6571 171.323 25.1999 169.476 18.9271Z" fill="white"/>
<path d="M181.226 27.8714C175.567 27.8714 170.432 24.4534 168.861 19.1104C166.922 12.5102 171.114 5.43857 178.213 3.34327C185.313 1.24797 192.674 4.91475 194.626 11.528C195.569 14.7365 195.111 18.1413 193.329 21.1271C191.561 24.0999 188.692 26.2868 185.26 27.2952C183.911 27.6881 182.549 27.8845 181.213 27.8845L181.226 27.8714ZM182.274 4.03734C181.056 4.03734 179.824 4.20758 178.593 4.57426C172.175 6.46003 168.363 12.8245 170.105 18.7437C171.847 24.663 178.488 27.9369 184.92 26.0511C188.037 25.1344 190.644 23.1439 192.242 20.4593C193.84 17.7878 194.246 14.7496 193.408 11.8816C191.993 7.10172 187.395 4.03734 182.287 4.03734H182.274Z" fill="#D1D1D1"/>
<path d="M181.894 22.07C180.217 22.07 179.3 21.4545 179.248 21.4152C178.96 21.2188 178.881 20.8128 179.078 20.5247C179.274 20.2366 179.68 20.158 179.968 20.3544C180.021 20.3806 181.318 21.2188 183.806 20.4854C184.946 20.1449 185.889 19.0056 185.496 17.6567C185.051 16.1377 183.846 15.915 181.907 15.6924C180.165 15.4829 178.187 15.2602 177.453 13.1518C177.191 12.4054 177.309 11.4494 177.755 10.5851C178.239 9.65531 179.025 8.98744 179.955 8.71243C182.955 7.82192 184.199 9.30173 184.252 9.36721C184.474 9.64222 184.435 10.0482 184.16 10.2708C183.885 10.4934 183.492 10.4541 183.269 10.1922C183.217 10.1399 182.431 9.32792 180.322 9.95651C179.51 10.1922 179.091 10.8208 178.894 11.1744C178.619 11.7113 178.528 12.3399 178.658 12.7328C179.104 14.0162 180.243 14.2126 182.051 14.4221C183.819 14.6317 186.007 14.8805 186.727 17.3032C187.356 19.4116 185.915 21.2188 184.16 21.7295C183.282 21.9914 182.523 22.0831 181.868 22.0831L181.894 22.07Z" fill="#D1D1D1"/>
<path d="M180.204 9.95657C179.929 9.95657 179.667 9.77323 179.589 9.49822L179.104 7.84817C178.999 7.50768 179.196 7.1541 179.536 7.04934C179.877 6.94457 180.23 7.14101 180.335 7.48149L180.82 9.13154C180.925 9.47203 180.728 9.82561 180.388 9.93038C180.322 9.94347 180.27 9.95657 180.204 9.95657Z" fill="#D1D1D1"/>
<path d="M183.977 23.5498C183.702 23.5498 183.44 23.3665 183.361 23.0915L182.876 21.4414C182.772 21.1009 182.968 20.7474 183.309 20.6426C183.649 20.5378 184.003 20.7343 184.108 21.0748L184.592 22.7248C184.697 23.0653 184.501 23.4189 184.16 23.5236C184.095 23.5367 184.042 23.5498 183.977 23.5498Z" fill="#D1D1D1"/>
<path d="M242.607 490.03C240.76 483.757 244.755 477.065 251.527 475.061C258.299 473.071 265.294 476.528 267.141 482.801C268.988 489.074 264.993 495.765 258.221 497.769C251.449 499.76 244.454 496.302 242.607 490.03Z" fill="white"/>
<path d="M254.33 498.987C252.234 498.987 250.165 498.515 248.278 497.586C245.174 496.04 242.934 493.421 241.991 490.226C240.052 483.626 244.244 476.554 251.344 474.459C258.443 472.363 265.805 476.03 267.756 482.644C269.695 489.244 265.503 496.315 258.404 498.411C257.055 498.804 255.692 499 254.33 499V498.987ZM243.222 489.846C244.061 492.701 246.065 495.045 248.842 496.42C251.645 497.808 254.906 498.07 258.024 497.153C264.442 495.268 268.254 488.903 266.512 482.984C264.77 477.065 258.129 473.791 251.697 475.677C245.279 477.562 241.467 483.927 243.209 489.846H243.222Z" fill="#D1D1D1"/>
<path d="M255.037 493.172C253.361 493.172 252.444 492.557 252.392 492.518C252.103 492.321 252.025 491.915 252.221 491.627C252.418 491.339 252.824 491.261 253.112 491.457C253.164 491.483 254.461 492.321 256.95 491.588C257.552 491.405 258.076 491.025 258.404 490.514C258.64 490.147 258.875 489.532 258.64 488.759C258.194 487.24 256.989 487.018 255.051 486.795C253.308 486.585 251.33 486.363 250.597 484.254C250.335 483.508 250.453 482.552 250.898 481.688C251.383 480.758 252.169 480.09 253.099 479.815C256.112 478.924 257.343 480.404 257.395 480.47C257.618 480.745 257.579 481.151 257.304 481.373C257.028 481.596 256.636 481.557 256.4 481.295C256.347 481.242 255.561 480.43 253.453 481.059C252.64 481.295 252.221 481.923 252.025 482.277C251.75 482.814 251.658 483.442 251.789 483.835C252.234 485.119 253.374 485.315 255.182 485.525C256.95 485.734 259.137 485.983 259.858 488.406C260.146 489.375 260.002 490.37 259.465 491.221C258.98 491.981 258.181 492.57 257.29 492.832C256.413 493.094 255.653 493.186 254.998 493.186L255.037 493.172Z" fill="#D1D1D1"/>
<path d="M253.335 481.059C253.059 481.059 252.798 480.876 252.719 480.601L252.234 478.951C252.129 478.61 252.326 478.257 252.667 478.152C253.007 478.047 253.361 478.243 253.466 478.584L253.95 480.234C254.055 480.574 253.859 480.928 253.518 481.033C253.452 481.046 253.4 481.059 253.335 481.059Z" fill="#D1D1D1"/>
<path d="M257.107 494.665C256.832 494.665 256.57 494.482 256.491 494.207L256.007 492.557C255.902 492.216 256.098 491.863 256.439 491.758C256.78 491.653 257.133 491.85 257.238 492.19L257.723 493.84C257.827 494.181 257.631 494.534 257.29 494.639C257.225 494.652 257.173 494.665 257.107 494.665Z" fill="#D1D1D1"/>
<path d="M102.266 175.119C102.188 175.119 102.096 175.106 102.018 175.066L38.8945 148.024C38.7242 147.945 38.5932 147.801 38.5277 147.618L21.8529 93.2318C21.7481 92.8913 21.9446 92.5378 22.2852 92.433C22.6258 92.3282 22.9794 92.5247 23.0842 92.8652L39.6804 146.976L102.528 173.901C102.856 174.045 103.013 174.425 102.869 174.752C102.764 175.001 102.528 175.145 102.279 175.145L102.266 175.119Z" fill="#D1D1D1"/>
<path d="M22.4555 103.289C28.2935 103.289 33.0262 98.5578 33.0262 92.7211C33.0262 86.8845 28.2935 82.153 22.4555 82.153C16.6174 82.153 11.8848 86.8845 11.8848 92.7211C11.8848 98.5578 16.6174 103.289 22.4555 103.289Z" fill="white"/>
<path d="M22.4425 103.944C20.2812 103.944 18.1068 103.329 16.1944 102.032C11.0596 98.5749 9.69736 91.5949 13.1554 86.4614C16.6135 81.3279 23.5952 79.966 28.7299 83.4232C33.8646 86.8805 35.2269 93.8604 31.7688 98.9939C29.6075 102.202 26.0577 103.944 22.4425 103.944ZM22.4818 82.7946C21.8399 82.7946 21.1981 82.8601 20.5563 82.978C17.9496 83.4887 15.6966 84.9816 14.2164 87.1686C12.7363 89.3686 12.1992 92.014 12.7101 94.62C13.2209 97.226 14.7142 99.4785 16.9148 100.958C21.4601 104.023 27.6427 102.818 30.6947 98.2737C33.7598 93.7295 32.5547 87.5484 28.0095 84.4971C26.3459 83.3839 24.4335 82.7946 22.4818 82.7946Z" fill="#D1D1D1"/>
<path d="M45.1164 151.455C42.8896 154.755 38.4098 155.633 35.1089 153.406C31.808 151.18 30.9304 146.701 33.1572 143.401C35.384 140.101 39.8638 139.224 43.1647 141.45C46.4655 143.676 47.3432 148.155 45.1164 151.455Z" fill="#D1D1D1"/>
<path d="M39.1303 155.279C37.6239 155.279 36.0913 154.847 34.7553 153.943C33.0131 152.778 31.8342 150.997 31.4413 148.941C31.0352 146.885 31.4675 144.789 32.6333 143.048C33.7991 141.306 35.5805 140.127 37.637 139.735C39.6935 139.329 41.7893 139.761 43.5315 140.926C45.2736 142.092 46.4525 143.873 46.8455 145.929C47.2515 147.985 46.8193 150.08 45.6535 151.822C44.134 154.074 41.6583 155.279 39.1303 155.279ZM39.1565 140.874C38.7373 140.874 38.305 140.913 37.8859 140.992C36.1699 141.332 34.6767 142.314 33.6943 143.768C32.7119 145.222 32.3582 146.963 32.6988 148.692C33.0393 150.407 34.0217 151.9 35.4757 152.883C36.9297 153.865 38.6718 154.218 40.4008 153.878C42.1168 153.537 43.61 152.555 44.5925 151.102C45.5749 149.648 45.9285 147.906 45.588 146.178C45.2474 144.462 44.265 142.969 42.811 141.987C41.7107 141.254 40.4532 140.861 39.1565 140.861V140.874Z" fill="#D1D1D1"/>
<path d="M107.558 177.358C109.379 174.661 108.659 171.007 105.96 169.187C103.262 167.366 99.6075 168.086 97.7867 170.784C95.966 173.482 96.6864 177.136 99.3848 178.956C102.083 180.776 105.738 180.056 107.558 177.358Z" fill="white"/>
<path d="M102.673 180.606C101.415 180.606 100.144 180.252 99.0311 179.493C96.0445 177.476 95.2586 173.416 97.2627 170.431C98.232 168.99 99.7122 168.008 101.428 167.667C103.144 167.34 104.873 167.694 106.327 168.663C107.768 169.632 108.75 171.112 109.091 172.827C109.431 174.543 109.078 176.271 108.095 177.725C106.838 179.598 104.768 180.606 102.673 180.606ZM102.699 168.846C102.358 168.846 102.018 168.872 101.69 168.951C100.315 169.213 99.1228 169.998 98.3499 171.164C96.7388 173.56 97.3675 176.821 99.7646 178.432C102.162 180.043 105.423 179.414 107.034 177.018C107.82 175.852 108.095 174.464 107.833 173.089C107.571 171.714 106.772 170.522 105.62 169.75C104.742 169.16 103.734 168.859 102.699 168.859V168.846Z" fill="#D1D1D1"/>
<path d="M234.171 81.0005C234.014 81.0005 233.87 80.9481 233.739 80.8433C233.477 80.6076 233.451 80.2016 233.687 79.9397L251.095 60.3879C251.278 60.1784 251.593 60.1129 251.841 60.2308L270.52 68.8346L282.768 44.647C282.912 44.3589 283.252 44.2279 283.554 44.3327L295.591 48.4447L309.07 25.9857C309.253 25.6845 309.646 25.5797 309.948 25.7631C310.249 25.9464 310.354 26.3393 310.17 26.6405L296.417 49.5447C296.259 49.8067 295.945 49.9245 295.657 49.8198L283.658 45.7208L271.385 69.9608C271.228 70.2751 270.861 70.4061 270.547 70.2489L251.737 61.5927L234.643 80.7778C234.512 80.9219 234.341 80.9874 234.158 80.9874L234.171 81.0005Z" fill="#D1D1D1"/>
<path d="M22.0099 349.029C22.0099 349.029 21.9706 349.029 21.9575 349.029C20.2022 348.885 18.447 348.544 16.7704 348.021C16.4298 347.916 16.2464 347.549 16.3512 347.209C16.456 346.868 16.8228 346.685 17.1633 346.79C18.7483 347.287 20.3987 347.601 22.0754 347.746C22.429 347.772 22.691 348.086 22.6648 348.44C22.6386 348.78 22.3504 349.029 22.023 349.029H22.0099ZM27.1446 348.898C26.8302 348.898 26.5552 348.662 26.5028 348.335C26.4504 347.981 26.6992 347.654 27.0529 347.615C28.7165 347.392 30.3407 346.986 31.9126 346.41C32.24 346.292 32.6199 346.462 32.7378 346.79C32.8557 347.117 32.6854 347.497 32.3579 347.615C30.7075 348.217 28.9784 348.649 27.2232 348.885C27.197 348.885 27.1708 348.885 27.1315 348.885L27.1446 348.898ZM12.2382 345.991C12.1334 345.991 12.0155 345.965 11.9238 345.899C10.3912 345.022 8.96348 343.974 7.6536 342.795C7.39163 342.56 7.36543 342.154 7.61431 341.892C7.85008 341.63 8.25615 341.604 8.51812 341.852C9.74941 342.979 11.1117 343.974 12.5656 344.799C12.88 344.982 12.9848 345.375 12.8014 345.676C12.6835 345.886 12.4609 346.004 12.2382 346.004V345.991ZM36.7329 345.375C36.5233 345.375 36.3138 345.27 36.1959 345.074C35.9994 344.773 36.0911 344.38 36.3923 344.184C37.7939 343.28 39.1038 342.219 40.2827 341.041C40.5316 340.792 40.9376 340.792 41.1996 341.041C41.4485 341.289 41.4485 341.695 41.1996 341.957C39.9552 343.201 38.5798 344.328 37.0866 345.27C36.9818 345.336 36.8639 345.375 36.7329 345.375ZM4.66708 339.116C4.4706 339.116 4.26102 339.024 4.14313 338.841C3.12142 337.4 2.2569 335.842 1.57576 334.218C1.43168 333.89 1.58886 333.511 1.91633 333.38C2.2438 333.236 2.62367 333.393 2.75465 333.72C3.3965 335.252 4.22172 336.732 5.17793 338.094C5.38751 338.382 5.30892 338.788 5.02075 338.998C4.90286 339.076 4.77187 339.116 4.65398 339.116H4.66708ZM43.9372 338.133C43.8194 338.133 43.7015 338.107 43.5967 338.029C43.2954 337.832 43.2037 337.439 43.4002 337.138C44.2909 335.724 45.0375 334.218 45.6008 332.646C45.7187 332.306 46.0855 332.136 46.426 332.253C46.7666 332.371 46.9369 332.738 46.819 333.078C46.2164 334.742 45.4436 336.326 44.4874 337.819C44.3695 338.015 44.1599 338.12 43.9372 338.12V338.133ZM0.711243 329.7C0.409971 329.7 0.134897 329.477 0.0825017 329.176C-0.166375 327.762 -0.297363 326.308 -0.297363 324.854C-0.297363 323.086 -0.100881 321.319 0.265885 319.603C0.344477 319.249 0.685046 319.04 1.03871 319.118C1.39238 319.197 1.60196 319.538 1.52337 319.891C1.1697 321.515 0.986318 323.191 0.986318 324.867C0.986318 326.242 1.10421 327.618 1.35308 328.953C1.41858 329.307 1.1828 329.634 0.829133 329.7C0.789836 329.7 0.75054 329.7 0.711243 329.7ZM47.4084 328.521C47.4084 328.521 47.356 328.521 47.3298 328.521C46.9762 328.482 46.7273 328.154 46.7666 327.801C46.8845 326.832 46.95 325.837 46.95 324.854C46.95 324.173 46.9238 323.479 46.8583 322.798C46.8321 322.445 47.0941 322.13 47.4477 322.104C47.8014 322.078 48.1158 322.34 48.142 322.694C48.2075 323.414 48.2337 324.134 48.2337 324.854C48.2337 325.889 48.1682 326.937 48.0372 327.971C47.9979 328.299 47.7228 328.534 47.3953 328.534L47.4084 328.521ZM46.5046 318.346C46.2295 318.346 45.9807 318.176 45.889 317.901C45.3912 316.316 44.697 314.771 43.8587 313.33C43.6753 313.016 43.7801 312.623 44.0944 312.453C44.3957 312.269 44.8018 312.374 44.9721 312.689C45.8628 314.221 46.5832 315.845 47.1072 317.521C47.2119 317.861 47.0286 318.228 46.688 318.333C46.6225 318.359 46.557 318.359 46.4915 318.359L46.5046 318.346ZM2.54507 315.517C2.45338 315.517 2.36169 315.504 2.27 315.452C1.94253 315.308 1.81154 314.915 1.95563 314.6C2.70226 313.003 3.61918 311.484 4.69328 310.082C4.91596 309.794 5.30892 309.742 5.59709 309.965C5.88527 310.187 5.93766 310.58 5.71498 310.868C4.69328 312.191 3.82876 313.631 3.12142 315.137C3.01663 315.373 2.78085 315.504 2.53198 315.504L2.54507 315.517ZM41.3699 309.506C41.1996 309.506 41.0162 309.441 40.8983 309.297C39.7718 308.066 38.5013 306.953 37.139 306.01C36.8508 305.8 36.7722 305.407 36.9818 305.119C37.1914 304.831 37.5843 304.753 37.8725 304.962C39.3134 305.97 40.6495 307.136 41.8414 308.446C42.0772 308.707 42.0641 309.113 41.8021 309.349C41.6843 309.467 41.5271 309.519 41.3699 309.519V309.506ZM8.7801 307.411C8.59671 307.411 8.41333 307.332 8.28234 307.175C8.05966 306.9 8.08586 306.494 8.36094 306.272C9.71011 305.132 11.1903 304.15 12.749 303.338C13.0634 303.168 13.4564 303.299 13.6136 303.613C13.7838 303.928 13.6528 304.32 13.3385 304.478C11.8583 305.25 10.4567 306.18 9.18616 307.267C9.06827 307.372 8.92418 307.424 8.767 307.424L8.7801 307.411ZM32.9998 303.653C32.9212 303.653 32.8295 303.639 32.7509 303.6C31.2052 302.958 29.5941 302.5 27.9436 302.212C27.59 302.147 27.3542 301.819 27.4197 301.466C27.4852 301.112 27.8126 300.876 28.1663 300.942C29.9084 301.243 31.6113 301.741 33.2486 302.408C33.5761 302.539 33.7333 302.919 33.6023 303.247C33.4975 303.495 33.2617 303.639 33.0129 303.639L32.9998 303.653ZM17.8445 302.683C17.5563 302.683 17.2943 302.5 17.2288 302.212C17.1371 301.872 17.3467 301.518 17.6873 301.426C19.3901 300.968 21.1454 300.706 22.9137 300.627C23.2805 300.627 23.5686 300.889 23.5817 301.243C23.5948 301.597 23.3198 301.898 22.9661 301.911C21.2894 301.989 19.6259 302.238 18.0278 302.67C17.9754 302.683 17.91 302.697 17.8576 302.697L17.8445 302.683Z" fill="#D1D1D1"/>
<path d="M271.909 155.318C271.555 155.318 271.267 155.03 271.267 154.677C271.267 154.323 271.555 154.035 271.909 154.035C273.572 154.035 275.183 153.734 276.716 153.157C277.044 153.027 277.423 153.197 277.541 153.524C277.672 153.852 277.502 154.231 277.175 154.349C275.498 154.991 273.716 155.318 271.909 155.318ZM266.866 154.402C266.787 154.402 266.709 154.388 266.643 154.362C264.953 153.721 263.408 152.791 262.058 151.599C261.797 151.363 261.77 150.957 262.006 150.695C262.242 150.434 262.648 150.407 262.91 150.643C264.154 151.743 265.556 152.594 267.102 153.171C267.429 153.302 267.599 153.668 267.481 153.996C267.39 154.257 267.141 154.415 266.879 154.415L266.866 154.402ZM281.327 151.73C281.143 151.73 280.973 151.651 280.842 151.507C280.606 151.245 280.633 150.84 280.895 150.604C282.126 149.504 283.148 148.207 283.907 146.754C284.078 146.439 284.457 146.322 284.772 146.479C285.086 146.649 285.204 147.029 285.047 147.343C284.209 148.941 283.095 150.355 281.746 151.56C281.628 151.665 281.471 151.717 281.314 151.717L281.327 151.73ZM259.308 147.723C259.072 147.723 258.849 147.592 258.731 147.382C257.893 145.785 257.356 144.069 257.133 142.275C257.094 141.921 257.343 141.607 257.697 141.555C258.05 141.515 258.365 141.764 258.417 142.118C258.614 143.755 259.111 145.326 259.871 146.78C260.041 147.094 259.91 147.487 259.596 147.644C259.504 147.697 259.399 147.723 259.295 147.723H259.308ZM286.003 142.799C286.003 142.799 285.951 142.799 285.924 142.799C285.571 142.76 285.322 142.432 285.361 142.079C285.427 141.542 285.453 140.992 285.453 140.455C285.453 139.355 285.322 138.255 285.06 137.194C284.981 136.853 285.191 136.5 285.532 136.408C285.872 136.33 286.226 136.539 286.317 136.88C286.606 138.045 286.75 139.237 286.75 140.442C286.75 141.031 286.71 141.633 286.645 142.223C286.606 142.55 286.331 142.786 286.003 142.786V142.799ZM257.67 141.096C257.317 141.096 257.029 140.808 257.029 140.455C257.029 138.634 257.356 136.866 257.985 135.19C258.116 134.863 258.483 134.693 258.81 134.81C259.137 134.941 259.308 135.308 259.19 135.636C258.614 137.168 258.312 138.792 258.312 140.442C258.312 140.795 258.024 141.083 257.67 141.083V141.096ZM283.58 133.016C283.37 133.016 283.174 132.925 283.056 132.741C282.113 131.379 280.947 130.227 279.598 129.284C279.31 129.088 279.231 128.682 279.428 128.394C279.624 128.106 280.03 128.027 280.318 128.223C281.798 129.245 283.082 130.528 284.104 132.008C284.3 132.296 284.235 132.702 283.947 132.899C283.829 132.977 283.711 133.016 283.58 133.016ZM261.246 131.668C261.089 131.668 260.945 131.615 260.814 131.51C260.552 131.275 260.526 130.869 260.762 130.607C261.967 129.258 263.381 128.145 264.98 127.307C265.294 127.136 265.687 127.267 265.844 127.582C266.014 127.896 265.883 128.289 265.569 128.446C264.115 129.219 262.818 130.227 261.718 131.471C261.587 131.615 261.417 131.694 261.233 131.694L261.246 131.668ZM275.288 127.294C275.288 127.294 275.183 127.294 275.131 127.28C273.546 126.888 271.869 126.796 270.245 126.992C269.892 127.032 269.577 126.783 269.525 126.429C269.486 126.076 269.734 125.761 270.088 125.709C271.856 125.499 273.703 125.604 275.432 126.023C275.773 126.102 275.996 126.455 275.904 126.796C275.838 127.084 275.563 127.28 275.275 127.28L275.288 127.294Z" fill="#D1D1D1"/>
<path d="M395.47 496.656C395.116 496.656 394.828 496.368 394.828 496.014C394.828 495.661 395.116 495.372 395.47 495.372C397.133 495.372 398.744 495.071 400.277 494.495C400.604 494.364 400.984 494.534 401.102 494.862C401.233 495.189 401.063 495.569 400.735 495.687C399.059 496.328 397.277 496.656 395.47 496.656ZM390.427 495.739C390.348 495.739 390.269 495.726 390.204 495.7C388.514 495.058 386.969 494.128 385.619 492.937C385.357 492.701 385.331 492.295 385.567 492.033C385.803 491.771 386.209 491.745 386.471 491.981C387.715 493.081 389.117 493.932 390.662 494.508C390.99 494.639 391.16 495.006 391.042 495.333C390.951 495.595 390.702 495.752 390.44 495.752L390.427 495.739ZM404.888 493.068C404.704 493.068 404.534 492.989 404.403 492.845C404.167 492.583 404.193 492.177 404.455 491.941C405.687 490.841 406.708 489.545 407.468 488.091C407.638 487.777 408.018 487.659 408.333 487.816C408.647 487.986 408.765 488.366 408.608 488.681C407.769 490.278 406.656 491.693 405.307 492.897C405.189 493.002 405.032 493.054 404.875 493.054L404.888 493.068ZM382.869 489.06C382.633 489.06 382.41 488.929 382.292 488.72C381.454 487.122 380.917 485.407 380.694 483.613C380.655 483.259 380.904 482.945 381.257 482.892C381.611 482.853 381.925 483.102 381.978 483.455C382.174 485.092 382.672 486.664 383.432 488.117C383.602 488.432 383.471 488.825 383.157 488.982C383.065 489.034 382.96 489.06 382.855 489.06H382.869ZM409.564 484.136C409.564 484.136 409.512 484.136 409.485 484.136C409.132 484.097 408.883 483.77 408.922 483.416C408.988 482.879 409.014 482.329 409.014 481.792C409.014 480.692 408.883 479.592 408.621 478.531C408.529 478.191 408.752 477.837 409.092 477.759C409.433 477.667 409.787 477.89 409.878 478.23C410.166 479.396 410.311 480.587 410.311 481.792C410.311 482.382 410.271 482.984 410.206 483.573C410.166 483.901 409.891 484.136 409.564 484.136ZM381.231 482.434C380.878 482.434 380.589 482.146 380.589 481.792C380.589 479.972 380.917 478.204 381.546 476.528C381.677 476.2 382.043 476.03 382.371 476.148C382.698 476.279 382.869 476.646 382.751 476.973C382.174 478.505 381.873 480.129 381.873 481.779C381.873 482.133 381.585 482.421 381.231 482.421V482.434ZM407.141 474.354C406.931 474.354 406.735 474.262 406.617 474.079C405.674 472.717 404.508 471.565 403.159 470.622C402.87 470.425 402.792 470.019 403.001 469.731C403.198 469.443 403.604 469.364 403.892 469.561C405.372 470.582 406.656 471.866 407.678 473.346C407.874 473.634 407.809 474.04 407.521 474.236C407.403 474.315 407.285 474.354 407.154 474.354H407.141ZM384.807 473.005C384.65 473.005 384.506 472.953 384.375 472.848C384.113 472.612 384.087 472.206 384.323 471.944C385.528 470.595 386.942 469.482 388.54 468.644C388.855 468.474 389.248 468.605 389.405 468.919C389.575 469.234 389.444 469.626 389.13 469.784C387.676 470.556 386.379 471.565 385.279 472.809C385.148 472.953 384.977 473.031 384.794 473.031L384.807 473.005ZM398.849 468.618C398.849 468.618 398.744 468.618 398.692 468.605C397.107 468.212 395.417 468.12 393.806 468.317C393.452 468.356 393.138 468.107 393.086 467.754C393.046 467.4 393.295 467.086 393.649 467.033C395.417 466.824 397.264 466.929 398.993 467.348C399.334 467.426 399.556 467.78 399.465 468.12C399.386 468.409 399.124 468.605 398.836 468.605L398.849 468.618Z" fill="#D1D1D1"/>
<path d="M487.462 375.521C487.174 375.521 486.912 375.325 486.834 375.037C486.742 374.696 486.952 374.343 487.305 374.251C488.838 373.858 490.226 372.968 491.235 371.737C491.457 371.462 491.864 371.422 492.139 371.645C492.414 371.868 492.453 372.274 492.23 372.549C491.051 373.989 489.414 375.037 487.62 375.495C487.567 375.508 487.515 375.521 487.462 375.521ZM482.406 375.168C482.328 375.168 482.236 375.155 482.157 375.115C480.441 374.408 478.961 373.151 478.005 371.566C477.822 371.265 477.913 370.872 478.215 370.676C478.516 370.493 478.909 370.584 479.105 370.885C479.931 372.234 481.188 373.321 482.655 373.91C482.983 374.041 483.14 374.421 483.009 374.749C482.904 374.997 482.668 375.155 482.406 375.155V375.168ZM493.54 368.057H493.514C493.16 368.044 492.885 367.742 492.898 367.389C492.898 367.271 492.898 367.166 492.898 367.048C492.898 365.569 492.466 364.128 491.641 362.91C491.444 362.609 491.523 362.216 491.811 362.02C492.112 361.823 492.505 361.902 492.702 362.19C493.671 363.63 494.182 365.307 494.182 367.048C494.182 367.179 494.182 367.323 494.182 367.454C494.169 367.795 493.881 368.07 493.54 368.07V368.057ZM477.389 367.69C477.036 367.69 476.748 367.402 476.748 367.048C476.748 365.163 477.337 363.368 478.463 361.849C478.673 361.561 479.079 361.509 479.367 361.718C479.655 361.928 479.708 362.334 479.498 362.622C478.542 363.905 478.044 365.438 478.044 367.048C478.044 367.402 477.756 367.69 477.402 367.69H477.389ZM488.183 360.081C488.117 360.081 488.039 360.081 487.973 360.042C486.48 359.518 484.816 359.479 483.31 359.937C482.969 360.042 482.616 359.846 482.511 359.505C482.406 359.165 482.603 358.811 482.943 358.706C484.712 358.17 486.663 358.209 488.419 358.837C488.759 358.955 488.929 359.322 488.812 359.662C488.72 359.924 488.471 360.095 488.209 360.095L488.183 360.081Z" fill="#D1D1D1"/>
<path d="M149.304 422.77C149.016 422.77 148.754 422.574 148.675 422.286C148.584 421.945 148.793 421.592 149.147 421.5C150.68 421.107 152.068 420.217 153.077 418.986C153.299 418.711 153.705 418.671 153.98 418.894C154.256 419.117 154.295 419.523 154.072 419.798C152.893 421.238 151.256 422.286 149.461 422.744C149.409 422.757 149.357 422.77 149.304 422.77ZM144.248 422.417C144.169 422.417 144.078 422.404 143.999 422.364C142.283 421.657 140.803 420.4 139.847 418.815C139.663 418.514 139.755 418.121 140.056 417.925C140.358 417.742 140.751 417.833 140.947 418.135C141.772 419.483 143.03 420.57 144.497 421.16C144.824 421.291 144.982 421.67 144.851 421.998C144.746 422.247 144.51 422.404 144.248 422.404V422.417ZM155.382 415.306H155.356C155.002 415.293 154.727 414.992 154.74 414.638C154.74 414.52 154.74 414.415 154.74 414.298C154.74 412.818 154.308 411.377 153.483 410.146C153.286 409.845 153.365 409.452 153.653 409.256C153.954 409.059 154.347 409.138 154.544 409.426C155.513 410.866 156.024 412.543 156.024 414.284C156.024 414.415 156.024 414.559 156.024 414.69C156.011 415.031 155.723 415.306 155.382 415.306ZM139.231 414.939C138.878 414.939 138.589 414.651 138.589 414.298C138.589 412.412 139.179 410.618 140.305 409.099C140.515 408.81 140.921 408.758 141.209 408.968C141.497 409.177 141.55 409.583 141.34 409.871C140.384 411.155 139.886 412.687 139.886 414.298C139.886 414.651 139.598 414.939 139.244 414.939H139.231ZM150.025 407.331C149.959 407.331 149.881 407.331 149.815 407.291C148.322 406.768 146.658 406.728 145.152 407.187C144.811 407.291 144.458 407.095 144.353 406.754C144.248 406.414 144.445 406.06 144.785 405.956C146.553 405.419 148.505 405.458 150.26 406.087C150.601 406.204 150.771 406.571 150.653 406.912C150.562 407.173 150.313 407.344 150.051 407.344L150.025 407.331Z" fill="#D1D1D1"/>
<path d="M154.753 181.994H262.491C265.556 181.994 267.901 184.731 267.442 187.756L261.233 228.182C260.854 230.631 258.758 232.425 256.282 232.425H250.191L249.982 255.081L234.512 232.425H160.936C158.46 232.425 156.364 230.618 155.985 228.182L149.789 187.756C149.33 184.718 151.675 181.994 154.74 181.994H154.753Z" fill="white"/>
<path d="M249.981 255.735C249.772 255.735 249.575 255.631 249.444 255.46L234.171 233.08H160.936C158.12 233.08 155.775 231.063 155.343 228.287L149.147 187.861C148.898 186.224 149.37 184.574 150.444 183.33C151.518 182.073 153.077 181.365 154.727 181.365H262.464C264.115 181.365 265.674 182.086 266.748 183.33C267.822 184.587 268.293 186.237 268.045 187.874L261.836 228.3C261.403 231.076 259.059 233.093 256.243 233.093H250.793L250.597 255.107C250.597 255.382 250.414 255.631 250.139 255.722C250.073 255.735 250.008 255.749 249.955 255.749L249.981 255.735ZM154.74 182.636C153.469 182.636 152.264 183.186 151.426 184.155C150.601 185.124 150.234 186.394 150.417 187.651L156.613 228.077C156.941 230.225 158.761 231.784 160.923 231.784H234.499C234.708 231.784 234.905 231.888 235.036 232.059L249.353 253.025L249.536 232.425C249.536 232.072 249.824 231.784 250.178 231.784H256.269C258.443 231.784 260.251 230.225 260.578 228.077L266.787 187.651C266.984 186.394 266.617 185.111 265.778 184.142C264.953 183.173 263.735 182.623 262.464 182.623H154.727L154.74 182.636Z" fill="#D1D1D1"/>
<path d="M186.74 206.588C186.74 205.527 187.605 204.649 188.679 204.649C189.753 204.649 190.618 205.514 190.618 206.588C190.618 207.661 189.753 208.526 188.679 208.526C187.605 208.526 186.74 207.661 186.74 206.588Z" fill="#D1D1D1"/>
<path d="M188.666 209.167C187.251 209.167 186.085 208.015 186.085 206.588C186.085 205.16 187.238 204.008 188.666 204.008C190.094 204.008 191.246 205.16 191.246 206.588C191.246 208.015 190.094 209.167 188.666 209.167ZM188.666 205.304C187.959 205.304 187.382 205.88 187.382 206.588C187.382 207.295 187.959 207.871 188.666 207.871C189.373 207.871 189.95 207.295 189.95 206.588C189.95 205.88 189.373 205.304 188.666 205.304Z" fill="#D1D1D1"/>
<path d="M208.314 208.526C209.385 208.526 210.253 207.658 210.253 206.588C210.253 205.517 209.385 204.649 208.314 204.649C207.243 204.649 206.375 205.517 206.375 206.588C206.375 207.658 207.243 208.526 208.314 208.526Z" fill="#D1D1D1"/>
<path d="M208.314 209.167C206.899 209.167 205.734 208.015 205.734 206.588C205.734 205.16 206.886 204.008 208.314 204.008C209.742 204.008 210.895 205.16 210.895 206.588C210.895 208.015 209.742 209.167 208.314 209.167ZM208.314 205.304C207.607 205.304 207.03 205.88 207.03 206.588C207.03 207.295 207.607 207.871 208.314 207.871C209.021 207.871 209.598 207.295 209.598 206.588C209.598 205.88 209.021 205.304 208.314 205.304Z" fill="#D1D1D1"/>
<path d="M227.962 208.526C229.033 208.526 229.901 207.658 229.901 206.588C229.901 205.517 229.033 204.649 227.962 204.649C226.892 204.649 226.024 205.517 226.024 206.588C226.024 207.658 226.892 208.526 227.962 208.526Z" fill="#D1D1D1"/>
<path d="M227.962 209.167C226.548 209.167 225.382 208.015 225.382 206.588C225.382 205.16 226.535 204.008 227.962 204.008C229.39 204.008 230.543 205.16 230.543 206.588C230.543 208.015 229.39 209.167 227.962 209.167ZM227.962 205.304C227.255 205.304 226.679 205.88 226.679 206.588C226.679 207.295 227.255 207.871 227.962 207.871C228.67 207.871 229.246 207.295 229.246 206.588C229.246 205.88 228.67 205.304 227.962 205.304Z" fill="#D1D1D1"/>
<path d="M67.856 72.8287L94.119 23.5498L104.664 29.1809L78.4005 78.4598L68.9956 82.9254L67.856 72.8287Z" fill="white"/>
<path d="M68.9955 83.5671C68.8907 83.5671 68.7859 83.5409 68.6811 83.4885C68.4977 83.3838 68.3798 83.2004 68.3536 83.004L67.214 72.9073C67.2009 72.7763 67.214 72.6454 67.2795 72.5275L93.5426 23.2486C93.6212 23.0915 93.7653 22.9867 93.9225 22.9343C94.0797 22.8819 94.263 22.895 94.4071 22.9867L104.952 28.6178C105.266 28.7881 105.384 29.1809 105.214 29.4952L78.9506 78.7741C78.8851 78.892 78.7803 78.9967 78.6624 79.0491L69.2575 83.5147C69.1658 83.554 69.0741 83.5802 68.9824 83.5802L68.9955 83.5671ZM68.5239 72.9466L69.5456 81.9564L77.9419 77.9622L103.812 29.4429L94.4071 24.4272L68.537 72.9597L68.5239 72.9466Z" fill="#D1D1D1"/>
<path d="M78.1645 78.6694C78.0597 78.6694 77.9549 78.6432 77.8632 78.5908L67.6461 73.143C67.3318 72.9728 67.2139 72.5799 67.3842 72.2656C67.5545 71.9513 67.9474 71.8335 68.2618 72.0037L78.4788 77.4515C78.7932 77.6217 78.9111 78.0146 78.7408 78.3289C78.6229 78.5515 78.4002 78.6694 78.1776 78.6694H78.1645Z" fill="#D1D1D1"/>
<path d="M67.6068 86.1863C67.5021 86.1863 67.3973 86.1601 67.3056 86.1077C66.9912 85.9374 66.8733 85.5446 67.0436 85.2303L68.4976 82.4933C68.6678 82.179 69.0608 82.0611 69.3752 82.2314C69.6896 82.4016 69.8074 82.7945 69.6372 83.1088L68.1832 85.8458C68.0653 86.0684 67.8426 86.1863 67.6199 86.1863H67.6068Z" fill="#D1D1D1"/>
<path d="M100.486 15.3232L95.5378 24.603L103.121 28.644L108.068 19.3643L100.486 15.3232Z" fill="#D1D1D1"/>
<path d="M285.885 438.93L330.932 471.931L323.859 481.57L278.812 448.569L275.72 438.629L285.885 438.93Z" fill="white"/>
<path d="M323.859 482.211C323.728 482.211 323.597 482.172 323.479 482.08L278.432 449.079C278.327 449.001 278.235 448.883 278.196 448.752L275.105 438.812C275.039 438.616 275.079 438.393 275.21 438.236C275.341 438.066 275.524 437.974 275.747 437.987L285.911 438.302C286.042 438.302 286.173 438.354 286.278 438.42L331.325 471.421C331.469 471.525 331.561 471.669 331.587 471.84C331.613 472.01 331.574 472.18 331.469 472.324L324.396 481.963C324.265 482.133 324.068 482.224 323.872 482.224L323.859 482.211ZM279.362 448.176L323.714 480.679L330.028 472.088L285.662 439.585L276.598 439.31L279.362 448.189V448.176Z" fill="#D1D1D1"/>
<path d="M279.27 449.04C279.139 449.04 279.008 449.001 278.89 448.909C278.602 448.7 278.537 448.294 278.746 448.006L285.597 438.668C285.807 438.38 286.213 438.315 286.501 438.524C286.789 438.734 286.855 439.14 286.645 439.428L279.794 448.765C279.663 448.935 279.467 449.027 279.27 449.027V449.04Z" fill="#D1D1D1"/>
<path d="M275.838 439.349C275.707 439.349 275.576 439.31 275.458 439.218L272.957 437.385C272.668 437.176 272.603 436.77 272.813 436.481C273.022 436.193 273.428 436.128 273.716 436.337L276.218 438.171C276.506 438.38 276.572 438.786 276.362 439.074C276.231 439.245 276.035 439.336 275.838 439.336V439.349Z" fill="#D1D1D1"/>
<path d="M329.706 473.208L324.626 480.137L333.11 486.353L338.189 479.424L329.706 473.208Z" fill="#D1D1D1"/>
<path d="M202.171 477.34C201.896 477.34 201.608 477.314 201.333 477.274C199.892 477.052 198.49 476.318 197.049 475.009C193.84 472.102 192.059 468.16 191.914 463.603C191.875 462.411 191.954 461.193 192.124 459.975C183.977 457.88 175.122 457.893 167.014 460.093C166.673 460.185 166.319 459.988 166.228 459.635C166.136 459.294 166.333 458.94 166.686 458.849C174.978 456.596 184.029 456.583 192.373 458.705C193.29 454.292 195.582 449.97 198.922 446.526C203.612 441.667 209.375 438.812 215.139 438.472C217.352 438.341 219.54 438.629 221.531 439.271C223.207 436.337 225.867 433.849 228.814 432.317C236.071 428.545 244.624 429.109 250.532 430.261C250.885 430.327 251.108 430.667 251.042 431.021C250.977 431.374 250.636 431.597 250.283 431.531C244.585 430.431 236.319 429.868 229.403 433.469C226.731 434.858 224.308 437.097 222.749 439.716C226.391 441.183 229.272 443.815 230.359 447.05C230.91 448.66 230.805 450.52 230.111 451.908C229.56 452.982 228.683 453.741 227.569 454.095C224.478 455.077 221.413 452.55 220.339 449.656C219.186 446.565 219.579 443.344 220.915 440.463C219.121 439.912 217.169 439.664 215.204 439.768C209.768 440.083 204.306 442.807 199.839 447.429C196.656 450.729 194.469 454.855 193.604 459.058C195.53 459.595 197.403 460.263 199.224 461.036C204.201 463.144 207.214 465.803 208.196 468.946C208.825 470.949 208.249 473.372 206.729 475.14C205.498 476.567 203.874 477.353 202.184 477.353L202.171 477.34ZM193.368 460.329C193.211 461.416 193.159 462.502 193.185 463.576C193.329 467.767 194.953 471.394 197.901 474.066C199.145 475.192 200.324 475.834 201.516 476.004C203.062 476.24 204.607 475.611 205.734 474.289C206.965 472.848 207.437 470.897 206.952 469.312C206.087 466.549 203.324 464.166 198.713 462.201C196.984 461.468 195.202 460.839 193.368 460.315V460.329ZM222.107 440.882C220.863 443.501 220.483 446.408 221.531 449.21C222.291 451.253 224.675 453.663 227.163 452.877C227.949 452.628 228.552 452.105 228.945 451.332C229.495 450.258 229.56 448.778 229.115 447.469C228.146 444.601 225.474 442.217 222.107 440.882Z" fill="#D1D1D1"/>
</g>
</g>
</svg>
