<svg width="17" height="17" viewBox="0 0 17 17" fill="none" xmlns="http://www.w3.org/2000/svg">
<path fill-rule="evenodd" clip-rule="evenodd" d="M3.5695 16.978C1.61023 16.978 0.0214996 15.3895 0.0214996 13.4308L0.0214996 9.5308C0.0214996 7.57142 1.61013 5.98279 3.5695 5.98279H4.3159C4.64727 5.98279 4.9159 6.25142 4.9159 6.5828C4.9159 6.91417 4.64727 7.18279 4.3159 7.18279H3.5695C2.27287 7.18279 1.2215 8.23417 1.2215 9.5308L1.2215 13.4308C1.2215 14.7265 2.27276 15.778 3.5695 15.778H12.4735C13.7702 15.778 14.8215 14.7265 14.8215 13.4308V9.5228C14.8215 8.23075 13.7739 7.18279 12.4823 7.18279H11.7279C11.3965 7.18279 11.1279 6.91417 11.1279 6.5828C11.1279 6.25142 11.3965 5.98279 11.7279 5.98279H12.4823C14.4371 5.98279 16.0215 7.56844 16.0215 9.5228V13.4308C16.0215 15.3895 14.4328 16.978 12.4735 16.978H3.5695Z" fill="white"/>
<path fill-rule="evenodd" clip-rule="evenodd" d="M8.02142 11.3808C7.69005 11.3808 7.42142 11.1122 7.42142 10.7808L7.42142 1.14799C7.42142 0.816618 7.69005 0.547989 8.02142 0.547989C8.35279 0.547989 8.62142 0.816618 8.62142 1.14799V10.7808C8.62142 11.1122 8.35279 11.3808 8.02142 11.3808Z" fill="white"/>
<path fill-rule="evenodd" clip-rule="evenodd" d="M5.26601 3.91584C5.03117 3.68204 5.03033 3.30215 5.26412 3.06731L7.59612 0.72491C7.7087 0.611823 7.8617 0.548243 8.02127 0.548229C8.18085 0.548216 8.33385 0.61177 8.44646 0.724838L10.7793 3.06724C11.0131 3.30203 11.0123 3.68193 10.7775 3.91576C10.5427 4.1496 10.1628 4.14882 9.92899 3.91402L8.0214 1.99858L6.11453 3.91395C5.88074 4.14878 5.50084 4.14963 5.26601 3.91584Z" fill="white"/>
</svg>
