<svg width="152" height="157" viewBox="0 0 152 157" fill="none" xmlns="http://www.w3.org/2000/svg">
<path d="M14.0013 62.6734C14.0013 27.9776 42.1316 0 76.6747 0C111.218 0 139.348 27.9569 139.348 62.6734C139.348 77.4011 134.266 90.9448 125.755 101.639C114.013 116.45 96.0865 125.348 76.6734 125.348C57.2604 125.348 39.3108 116.394 27.5825 101.639C19.0723 90.9461 14 77.4024 14 62.6734H14.0013Z" fill="#D6DCE8"/>
<path d="M21.2825 112.239C21.9657 110.732 21.276 108.948 19.7686 108.264C18.2611 107.581 16.4858 108.25 15.8026 109.758C15.1194 111.265 15.7793 113.061 17.2868 113.743C18.7942 114.426 20.5993 113.746 21.2825 112.238V112.239Z" fill="#D6DCE8"/>
<path d="M25.7015 118.136C26.1363 117.177 25.6976 116.041 24.7388 115.606C23.78 115.172 22.6491 115.597 22.2143 116.558C21.7796 117.516 22.2001 118.66 23.1589 119.095C24.1177 119.53 25.2667 119.096 25.7015 118.137V118.136Z" fill="#D6DCE8"/>
<path d="M132.1 7.99262C133.178 6.7375 133.018 4.83023 131.762 3.75237C130.507 2.67452 128.616 2.81815 127.538 4.07327C126.46 5.3284 126.589 7.23696 127.844 8.31611C129.1 9.39396 131.024 9.24775 132.102 7.99262H132.1Z" fill="#D6DCE8"/>
<path d="M134.688 14.8949C135.374 14.0952 135.272 12.8828 134.473 12.1957C133.674 11.5099 132.47 11.6018 131.784 12.4002C131.099 13.1998 131.18 14.4135 131.98 15.1006C132.78 15.7864 134.004 15.6932 134.689 14.8949H134.688Z" fill="#D6DCE8"/>
<path d="M25.0514 13.9345C26.1292 12.6794 25.9688 10.7721 24.7137 9.69427C23.4585 8.61641 21.5668 8.76004 20.4889 10.0152C19.4111 11.2703 19.5405 13.1789 20.7956 14.258C22.0507 15.3359 23.9748 15.1896 25.0527 13.9345H25.0514Z" fill="#D6DCE8"/>
<path d="M125.44 31.043V115.975C125.44 121.156 121.249 125.347 116.068 125.347H38.9892C33.8083 125.347 29.6172 121.156 29.6172 115.975V9.37203C29.6172 4.19108 33.8083 0 38.9892 0H92.4588C92.9479 0 93.428 0.0388185 93.8977 0.107398C95.7092 0.390771 97.4133 1.20466 98.7836 2.46755L122.403 24.1385C123.814 25.4312 124.783 27.1159 125.194 28.9468C125.361 29.6326 125.439 30.3274 125.439 31.043H125.44Z" fill="white"/>
<path d="M125.199 28.9478H98.4389C95.9338 28.9478 93.9023 26.9163 93.9023 24.4112V0.108398C95.7139 0.391772 97.418 1.20566 98.7883 2.46855L122.408 24.1395C123.818 25.4322 124.787 27.1169 125.199 28.9478Z" fill="url(#paint0_linear_3120_66734)"/>
<path d="M79.9322 10.2197H46.947C46.7519 10.2197 46.5938 10.3779 46.5938 10.573V13.9929C46.5938 14.188 46.7519 14.3461 46.947 14.3461H79.9322C80.1273 14.3461 80.2854 14.188 80.2854 13.9929V10.573C80.2854 10.3779 80.1273 10.2197 79.9322 10.2197Z" fill="#E0E4ED"/>
<path d="M66.4403 20.0015H46.947C46.7519 20.0015 46.5938 20.1596 46.5938 20.3547V23.7746C46.5938 23.9697 46.7519 24.1279 46.947 24.1279H66.4403C66.6353 24.1279 66.7935 23.9697 66.7935 23.7746V20.3547C66.7935 20.1596 66.6353 20.0015 66.4403 20.0015Z" fill="#E0E4ED"/>
<path d="M87.1873 106.826H47.3041C46.9118 106.826 46.5938 107.144 46.5938 107.537V110.294C46.5938 110.686 46.9118 111.004 47.3041 111.004H87.1873C87.5797 111.004 87.8977 110.686 87.8977 110.294V107.537C87.8977 107.144 87.5797 106.826 87.1873 106.826Z" fill="#E0E4ED"/>
<path d="M95.9695 80.5428C86.701 89.8036 71.6809 89.8036 62.4201 80.5428C53.1516 71.2743 53.1516 56.2619 62.4201 46.9934C71.6809 37.7327 86.701 37.7327 95.9695 46.9934C105.23 56.2619 105.23 71.2743 95.9695 80.5428Z" fill="url(#paint1_linear_3120_66734)"/>
<path d="M57.5197 42.0924C45.5481 54.064 45.5481 73.4706 57.5197 85.4421C69.4912 97.4137 88.8978 97.4137 100.869 85.4421C112.841 73.4706 112.841 54.064 100.869 42.0924C88.8978 30.1209 69.4912 30.1209 57.5197 42.0924ZM94.8512 79.424C86.2025 88.0727 72.1852 88.0727 63.5378 79.424C54.8891 70.7753 54.8891 56.7593 63.5378 48.1106C72.1865 39.4619 86.2025 39.4619 94.8512 48.1106C103.5 56.7593 103.5 70.7766 94.8512 79.424Z" fill="url(#paint2_linear_3120_66734)"/>
<path d="M110.278 89.0459L104.481 94.8428L97.7734 88.144C100.005 86.4593 102.014 84.4227 103.581 82.3472L110.279 89.0459H110.278Z" fill="url(#paint3_linear_3120_66734)"/>
<path d="M114.611 88.062L127.586 101.036C130.659 104.11 130.659 109.094 127.586 112.167C124.513 115.24 119.528 115.24 116.455 112.167L103.481 99.1925C102.556 98.2674 102.556 96.7664 103.481 95.8412L111.26 88.062C112.185 87.1369 113.686 87.1369 114.611 88.062Z" fill="url(#paint4_linear_3120_66734)"/>
<path d="M81.9693 69.0967C81.4285 69.0967 80.9898 68.6581 80.9898 68.1172C80.9898 65.9459 77.7071 65.9459 77.7071 68.1172C77.7071 68.6581 77.2684 69.0967 76.7276 69.0967C76.1867 69.0967 75.748 68.6581 75.748 68.1172C75.748 63.3529 82.9488 63.3581 82.9488 68.1172C82.9488 68.6581 82.5102 69.0967 81.9693 69.0967Z" fill="#AAB2C5"/>
<path d="M90.3133 60.7774H86.249C85.7082 60.7774 85.2695 60.3387 85.2695 59.7979C85.2695 59.257 85.7069 58.8184 86.249 58.8184H90.3133C90.8542 58.8184 91.2928 59.257 91.2928 59.7979C91.2928 60.3387 90.8555 60.7774 90.3133 60.7774Z" fill="#AAB2C5"/>
<path d="M72.4566 60.7774H68.3936C67.8527 60.7774 67.4141 60.3387 67.4141 59.7979C67.4141 59.257 67.8527 58.8184 68.3936 58.8184H72.4566C72.9974 58.8184 73.4361 59.257 73.4361 59.7979C73.4361 60.3387 72.9974 60.7774 72.4566 60.7774Z" fill="#AAB2C5"/>
<path d="M105.007 36.7691C105.007 37.5661 104.36 38.2144 103.561 38.2144C102.763 38.2144 102.109 37.5661 102.109 36.7691C102.109 35.972 102.756 35.3237 103.561 35.3237C104.366 35.3237 105.007 35.972 105.007 36.7691Z" fill="#989FB0"/>
<path d="M110.018 36.7691C110.018 37.5661 109.371 38.2144 108.573 38.2144C107.775 38.2144 107.121 37.5661 107.121 36.7691C107.121 35.972 107.768 35.3237 108.573 35.3237C109.378 35.3237 110.018 35.972 110.018 36.7691Z" fill="#989FB0"/>
<path d="M115.042 36.7691C115.042 37.5661 114.395 38.2144 113.596 38.2144C112.798 38.2144 112.145 37.5661 112.145 36.7691C112.145 35.972 112.792 35.3237 113.596 35.3237C114.401 35.3237 115.042 35.972 115.042 36.7691Z" fill="#989FB0"/>
<path d="M15.9955 140.909V154H14.1801L7.52601 144.399H7.40456V154H5.42942V140.909H7.25755L13.9181 150.523H14.0395V140.909H15.9955ZM22.8589 154.198C21.9385 154.198 21.1352 153.987 20.4491 153.565C19.7631 153.143 19.2304 152.553 18.8511 151.795C18.4719 151.036 18.2822 150.15 18.2822 149.136C18.2822 148.117 18.4719 147.227 18.8511 146.464C19.2304 145.701 19.7631 145.109 20.4491 144.687C21.1352 144.265 21.9385 144.054 22.8589 144.054C23.7794 144.054 24.5827 144.265 25.2687 144.687C25.9548 145.109 26.4875 145.701 26.8667 146.464C27.246 147.227 27.4356 148.117 27.4356 149.136C27.4356 150.15 27.246 151.036 26.8667 151.795C26.4875 152.553 25.9548 153.143 25.2687 153.565C24.5827 153.987 23.7794 154.198 22.8589 154.198ZM22.8653 152.594C23.4619 152.594 23.9562 152.436 24.3483 152.121C24.7403 151.805 25.0301 151.386 25.2176 150.862C25.4094 150.337 25.5052 149.76 25.5052 149.129C25.5052 148.503 25.4094 147.928 25.2176 147.403C25.0301 146.875 24.7403 146.451 24.3483 146.131C23.9562 145.812 23.4619 145.652 22.8653 145.652C22.2645 145.652 21.7659 145.812 21.3696 146.131C20.9775 146.451 20.6856 146.875 20.4939 147.403C20.3064 147.928 20.2126 148.503 20.2126 149.129C20.2126 149.76 20.3064 150.337 20.4939 150.862C20.6856 151.386 20.9775 151.805 21.3696 152.121C21.7659 152.436 22.2645 152.594 22.8653 152.594ZM38.724 154H34.4861V140.909H38.8582C40.1409 140.909 41.2425 141.171 42.1629 141.695C43.0834 142.215 43.7886 142.963 44.2787 143.939C44.773 144.911 45.0202 146.076 45.0202 147.435C45.0202 148.799 44.7709 149.971 44.2723 150.951C43.778 151.931 43.0621 152.685 42.1246 153.214C41.1871 153.738 40.0535 154 38.724 154ZM36.4612 152.274H38.6153C39.6125 152.274 40.4413 152.087 41.1018 151.712C41.7623 151.332 42.2567 150.785 42.5848 150.069C42.9129 149.349 43.077 148.471 43.077 147.435C43.077 146.408 42.9129 145.537 42.5848 144.821C42.2609 144.105 41.7773 143.562 41.1338 143.191C40.4903 142.82 39.6913 142.635 38.7368 142.635H36.4612V152.274ZM50.1801 154.217C49.558 154.217 48.9955 154.102 48.4926 153.872C47.9898 153.638 47.5914 153.299 47.2973 152.856C47.0075 152.413 46.8627 151.869 46.8627 151.226C46.8627 150.672 46.9692 150.216 47.1823 149.858C47.3953 149.5 47.683 149.217 48.0452 149.008C48.4074 148.799 48.8122 148.641 49.2597 148.535C49.7071 148.428 50.1631 148.347 50.6276 148.292C51.2156 148.224 51.6929 148.168 52.0594 148.126C52.4259 148.079 52.6922 148.004 52.8584 147.902C53.0246 147.8 53.1077 147.634 53.1077 147.403V147.359C53.1077 146.8 52.95 146.368 52.6347 146.061C52.3236 145.754 51.8591 145.601 51.2412 145.601C50.5977 145.601 50.0906 145.744 49.7199 146.029C49.3534 146.31 49.0999 146.624 48.9593 146.969L47.1631 146.56C47.3762 145.963 47.6872 145.482 48.0963 145.115C48.5097 144.744 48.9848 144.476 49.5218 144.31C50.0587 144.139 50.6233 144.054 51.2156 144.054C51.6077 144.054 52.0232 144.101 52.4621 144.195C52.9053 144.284 53.3186 144.45 53.7021 144.693C54.0899 144.936 54.4074 145.283 54.6546 145.735C54.9017 146.183 55.0253 146.764 55.0253 147.48V154H53.1588V152.658H53.0821C52.9585 152.905 52.7732 153.148 52.526 153.386C52.2789 153.625 51.9614 153.823 51.5736 153.981C51.1858 154.138 50.7213 154.217 50.1801 154.217ZM50.5956 152.683C51.124 152.683 51.5757 152.579 51.9507 152.37C52.33 152.161 52.6176 151.888 52.8137 151.552C53.0139 151.211 53.1141 150.847 53.1141 150.459V149.193C53.0459 149.261 52.9138 149.325 52.7178 149.385C52.526 149.44 52.3066 149.489 52.0594 149.532C51.8122 149.57 51.5715 149.607 51.3371 149.641C51.1027 149.67 50.9067 149.696 50.749 149.717C50.3783 149.764 50.0395 149.843 49.7327 149.954C49.4301 150.065 49.1872 150.224 49.004 150.433C48.825 150.638 48.7355 150.911 48.7355 151.251C48.7355 151.724 48.9102 152.082 49.2597 152.325C49.6091 152.564 50.0544 152.683 50.5956 152.683ZM62.154 144.182V145.716H56.7911V144.182H62.154ZM58.2293 141.83H60.1405V151.117C60.1405 151.488 60.1959 151.767 60.3067 151.955C60.4175 152.138 60.5603 152.263 60.735 152.332C60.914 152.396 61.1079 152.428 61.3167 152.428C61.4701 152.428 61.6043 152.417 61.7194 152.396C61.8344 152.374 61.9239 152.357 61.9878 152.344L62.333 153.923C62.2222 153.966 62.0645 154.009 61.86 154.051C61.6555 154.098 61.3998 154.124 61.093 154.128C60.5901 154.136 60.1214 154.047 59.6867 153.859C59.252 153.672 58.9005 153.382 58.632 152.99C58.3635 152.598 58.2293 152.106 58.2293 151.513V141.83ZM67.1254 154.217C66.5033 154.217 65.9408 154.102 65.4379 153.872C64.9351 153.638 64.5367 153.299 64.2426 152.856C63.9529 152.413 63.808 151.869 63.808 151.226C63.808 150.672 63.9145 150.216 64.1276 149.858C64.3406 149.5 64.6283 149.217 64.9905 149.008C65.3527 148.799 65.7575 148.641 66.205 148.535C66.6524 148.428 67.1084 148.347 67.5729 148.292C68.161 148.224 68.6382 148.168 69.0047 148.126C69.3712 148.079 69.6375 148.004 69.8037 147.902C69.9699 147.8 70.053 147.634 70.053 147.403V147.359C70.053 146.8 69.8953 146.368 69.58 146.061C69.2689 145.754 68.8044 145.601 68.1865 145.601C67.5431 145.601 67.036 145.744 66.6652 146.029C66.2987 146.31 66.0452 146.624 65.9046 146.969L64.1084 146.56C64.3215 145.963 64.6325 145.482 65.0416 145.115C65.455 144.744 65.9301 144.476 66.4671 144.31C67.004 144.139 67.5686 144.054 68.161 144.054C68.553 144.054 68.9685 144.101 69.4074 144.195C69.8506 144.284 70.2639 144.45 70.6475 144.693C71.0352 144.936 71.3527 145.283 71.5999 145.735C71.847 146.183 71.9706 146.764 71.9706 147.48V154H70.1041V152.658H70.0274C69.9039 152.905 69.7185 153.148 69.4713 153.386C69.2242 153.625 68.9067 153.823 68.5189 153.981C68.1311 154.138 67.6666 154.217 67.1254 154.217ZM67.5409 152.683C68.0693 152.683 68.521 152.579 68.896 152.37C69.2753 152.161 69.5629 151.888 69.759 151.552C69.9593 151.211 70.0594 150.847 70.0594 150.459V149.193C69.9912 149.261 69.8591 149.325 69.6631 149.385C69.4713 149.44 69.2519 149.489 69.0047 149.532C68.7575 149.57 68.5168 149.607 68.2824 149.641C68.048 149.67 67.852 149.696 67.6943 149.717C67.3236 149.764 66.9848 149.843 66.678 149.954C66.3754 150.065 66.1325 150.224 65.9493 150.433C65.7703 150.638 65.6808 150.911 65.6808 151.251C65.6808 151.724 65.8556 152.082 66.205 152.325C66.5544 152.564 66.9997 152.683 67.5409 152.683ZM83.863 144.182V145.716H78.5001V144.182H83.863ZM79.9383 141.83H81.8495V151.117C81.8495 151.488 81.9049 151.767 82.0157 151.955C82.1265 152.138 82.2693 152.263 82.444 152.332C82.623 152.396 82.8169 152.428 83.0257 152.428C83.1791 152.428 83.3133 152.417 83.4284 152.396C83.5434 152.374 83.6329 152.357 83.6968 152.344L84.042 153.923C83.9312 153.966 83.7735 154.009 83.569 154.051C83.3644 154.098 83.1088 154.124 82.8019 154.128C82.2991 154.136 81.8303 154.047 81.3957 153.859C80.961 153.672 80.6095 153.382 80.341 152.99C80.0725 152.598 79.9383 152.106 79.9383 151.513V141.83ZM90.0074 154.198C89.0869 154.198 88.2836 153.987 87.5976 153.565C86.9115 153.143 86.3788 152.553 85.9996 151.795C85.6203 151.036 85.4307 150.15 85.4307 149.136C85.4307 148.117 85.6203 147.227 85.9996 146.464C86.3788 145.701 86.9115 145.109 87.5976 144.687C88.2836 144.265 89.0869 144.054 90.0074 144.054C90.9278 144.054 91.7311 144.265 92.4172 144.687C93.1032 145.109 93.6359 145.701 94.0152 146.464C94.3944 147.227 94.5841 148.117 94.5841 149.136C94.5841 150.15 94.3944 151.036 94.0152 151.795C93.6359 152.553 93.1032 153.143 92.4172 153.565C91.7311 153.987 90.9278 154.198 90.0074 154.198ZM90.0138 152.594C90.6104 152.594 91.1047 152.436 91.4967 152.121C91.8888 151.805 92.1785 151.386 92.366 150.862C92.5578 150.337 92.6537 149.76 92.6537 149.129C92.6537 148.503 92.5578 147.928 92.366 147.403C92.1785 146.875 91.8888 146.451 91.4967 146.131C91.1047 145.812 90.6104 145.652 90.0138 145.652C89.4129 145.652 88.9143 145.812 88.518 146.131C88.126 146.451 87.8341 146.875 87.6423 147.403C87.4548 147.928 87.3611 148.503 87.3611 149.129C87.3611 149.76 87.4548 150.337 87.6423 150.862C87.8341 151.386 88.126 151.805 88.518 152.121C88.9143 152.436 89.4129 152.594 90.0138 152.594ZM108.774 144.348C108.706 143.743 108.425 143.274 107.931 142.942C107.436 142.605 106.814 142.437 106.064 142.437C105.527 142.437 105.063 142.522 104.671 142.692C104.279 142.859 103.974 143.089 103.757 143.383C103.544 143.673 103.437 144.003 103.437 144.374C103.437 144.685 103.509 144.953 103.654 145.179C103.804 145.405 103.997 145.594 104.236 145.748C104.479 145.897 104.739 146.023 105.016 146.125C105.293 146.223 105.559 146.304 105.815 146.368L107.093 146.7C107.511 146.803 107.939 146.941 108.378 147.116C108.817 147.29 109.224 147.521 109.599 147.806C109.974 148.092 110.277 148.445 110.507 148.867C110.741 149.289 110.858 149.794 110.858 150.382C110.858 151.124 110.666 151.782 110.283 152.357C109.904 152.933 109.352 153.386 108.627 153.719C107.907 154.051 107.036 154.217 106.013 154.217C105.033 154.217 104.185 154.062 103.469 153.751C102.753 153.44 102.193 152.999 101.788 152.428C101.383 151.852 101.159 151.17 101.117 150.382H103.098C103.137 150.855 103.29 151.249 103.559 151.565C103.831 151.876 104.179 152.108 104.6 152.261C105.027 152.411 105.493 152.485 106 152.485C106.559 152.485 107.055 152.398 107.49 152.223C107.929 152.044 108.274 151.797 108.525 151.482C108.777 151.162 108.902 150.789 108.902 150.363C108.902 149.975 108.791 149.658 108.57 149.411C108.353 149.163 108.056 148.959 107.681 148.797C107.311 148.635 106.891 148.492 106.422 148.369L104.875 147.947C103.827 147.661 102.996 147.241 102.382 146.688C101.773 146.134 101.468 145.401 101.468 144.489C101.468 143.734 101.673 143.076 102.082 142.513C102.491 141.951 103.045 141.514 103.744 141.203C104.443 140.888 105.231 140.73 106.109 140.73C106.995 140.73 107.777 140.886 108.455 141.197C109.137 141.508 109.674 141.936 110.066 142.482C110.458 143.023 110.662 143.645 110.679 144.348H108.774ZM114.976 148.17V154H113.065V140.909H114.951V145.78H115.072C115.302 145.251 115.654 144.832 116.127 144.521C116.6 144.21 117.218 144.054 117.981 144.054C118.654 144.054 119.242 144.192 119.745 144.469C120.252 144.746 120.644 145.16 120.921 145.71C121.202 146.255 121.343 146.937 121.343 147.755V154H119.432V147.985C119.432 147.265 119.246 146.707 118.875 146.31C118.505 145.91 117.989 145.71 117.329 145.71C116.877 145.71 116.472 145.805 116.114 145.997C115.76 146.189 115.481 146.47 115.277 146.841C115.076 147.207 114.976 147.651 114.976 148.17ZM128.029 154.198C127.108 154.198 126.305 153.987 125.619 153.565C124.933 153.143 124.4 152.553 124.021 151.795C123.642 151.036 123.452 150.15 123.452 149.136C123.452 148.117 123.642 147.227 124.021 146.464C124.4 145.701 124.933 145.109 125.619 144.687C126.305 144.265 127.108 144.054 128.029 144.054C128.949 144.054 129.753 144.265 130.439 144.687C131.125 145.109 131.657 145.701 132.037 146.464C132.416 147.227 132.606 148.117 132.606 149.136C132.606 150.15 132.416 151.036 132.037 151.795C131.657 152.553 131.125 153.143 130.439 153.565C129.753 153.987 128.949 154.198 128.029 154.198ZM128.035 152.594C128.632 152.594 129.126 152.436 129.518 152.121C129.91 151.805 130.2 151.386 130.388 150.862C130.579 150.337 130.675 149.76 130.675 149.129C130.675 148.503 130.579 147.928 130.388 147.403C130.2 146.875 129.91 146.451 129.518 146.131C129.126 145.812 128.632 145.652 128.035 145.652C127.434 145.652 126.936 145.812 126.54 146.131C126.147 146.451 125.856 146.875 125.664 147.403C125.476 147.928 125.383 148.503 125.383 149.129C125.383 149.76 125.476 150.337 125.664 150.862C125.856 151.386 126.147 151.805 126.54 152.121C126.936 152.436 127.434 152.594 128.035 152.594ZM136.569 154L133.679 144.182H135.655L137.579 151.392H137.674L139.605 144.182H141.58L143.498 151.36H143.593L145.505 144.182H147.48L144.597 154H142.647L140.653 146.911H140.506L138.512 154H136.569Z" fill="#898989"/>
<defs>
<linearGradient id="paint0_linear_3120_66734" x1="93.9023" y1="14.5281" x2="125.199" y2="14.5281" gradientUnits="userSpaceOnUse">
<stop stop-color="#D6DCE8"/>
<stop offset="1" stop-color="white"/>
</linearGradient>
<linearGradient id="paint1_linear_3120_66734" x1="55.4691" y1="63.7681" x2="102.915" y2="63.7681" gradientUnits="userSpaceOnUse">
<stop stop-color="#D6DCE8"/>
<stop offset="1" stop-color="white"/>
</linearGradient>
<linearGradient id="paint2_linear_3120_66734" x1="48.5397" y1="63.7673" x2="109.848" y2="63.7673" gradientUnits="userSpaceOnUse">
<stop stop-color="#989FB0"/>
<stop offset="1" stop-color="#AAB2C5"/>
</linearGradient>
<linearGradient id="paint3_linear_3120_66734" x1="97.7734" y1="88.5956" x2="110.278" y2="88.5956" gradientUnits="userSpaceOnUse">
<stop stop-color="#989FB0"/>
<stop offset="1" stop-color="#AAB2C5"/>
</linearGradient>
<linearGradient id="paint4_linear_3120_66734" x1="102.787" y1="100.92" x2="129.892" y2="100.92" gradientUnits="userSpaceOnUse">
<stop stop-color="#989FB0"/>
<stop offset="1" stop-color="#AAB2C5"/>
</linearGradient>
</defs>
</svg>
