<svg width="14" height="14" viewBox="0 0 14 14" fill="none" xmlns="http://www.w3.org/2000/svg">
<path fill-rule="evenodd" clip-rule="evenodd" d="M5.6 1.4C4.48609 1.4 3.4178 1.8425 2.63015 2.63015C1.8425 3.4178 1.4 4.48609 1.4 5.6C1.4 6.15155 1.50864 6.6977 1.71971 7.20727C1.93078 7.71684 2.24015 8.17984 2.63015 8.56985C3.02016 8.95985 3.48316 9.26923 3.99273 9.48029C4.5023 9.69136 5.04845 9.8 5.6 9.8C6.15155 9.8 6.6977 9.69136 7.20727 9.48029C7.71684 9.26923 8.17984 8.95985 8.56985 8.56985C8.95985 8.17984 9.26923 7.71684 9.48029 7.20727C9.69136 6.6977 9.8 6.15155 9.8 5.6C9.8 4.48609 9.3575 3.4178 8.56985 2.63015C7.7822 1.8425 6.71391 1.4 5.6 1.4ZM1.6402 1.6402C2.69041 0.589998 4.11479 0 5.6 0C7.08521 0 8.50959 0.589998 9.5598 1.6402C10.61 2.69041 11.2 4.11479 11.2 5.6C11.2 6.3354 11.0552 7.0636 10.7737 7.74303C10.582 8.20579 10.3296 8.63975 10.0237 9.03377L13.795 12.805C14.0683 13.0784 14.0683 13.5216 13.795 13.795C13.5216 14.0683 13.0784 14.0683 12.805 13.795L9.03377 10.0237C8.63975 10.3296 8.20579 10.582 7.74303 10.7737C7.0636 11.0552 6.3354 11.2 5.6 11.2C4.8646 11.2 4.1364 11.0552 3.45697 10.7737C2.77755 10.4923 2.16021 10.0798 1.6402 9.5598C1.12019 9.03979 0.707701 8.42245 0.426275 7.74303C0.144848 7.0636 0 6.3354 0 5.6C4.17233e-08 4.11479 0.589998 2.69041 1.6402 1.6402Z" fill="#B9B9B9"/>
</svg>
