<svg width="18" height="16" viewBox="0 0 18 16" fill="none" xmlns="http://www.w3.org/2000/svg">
<path fill-rule="evenodd" clip-rule="evenodd" d="M8.77917 5.15833C7.47434 5.15833 6.42083 6.21185 6.42083 7.51667C6.42083 7.94198 6.53244 8.33875 6.72941 8.68254L9.94504 5.46691C9.60125 5.26994 9.20448 5.15833 8.77917 5.15833ZM5.17083 7.51667C5.17083 5.52149 6.78399 3.90833 8.77917 3.90833C9.77734 3.90833 10.6759 4.31286 11.3294 4.96639C11.5735 5.21047 11.5735 5.6062 11.3294 5.85028L7.11278 10.0669C6.8687 10.311 6.47297 10.311 6.22889 10.0669C5.57536 9.41341 5.17083 8.51484 5.17083 7.51667Z" fill="#383E47"/>
<path fill-rule="evenodd" clip-rule="evenodd" d="M0.660412 5.02247C2.65284 1.8905 5.57252 0 8.77917 0C10.6539 0 12.4504 0.653007 14.0055 1.82603C14.2811 2.03389 14.336 2.42579 14.1281 2.70137C13.9203 2.97694 13.5284 3.03183 13.2528 2.82397C11.8913 1.79699 10.3545 1.25 8.77917 1.25C6.10262 1.25 3.53908 2.826 1.71485 5.69379L1.71433 5.69461C1.41884 6.15754 1.25 6.8202 1.25 7.52083C1.25 8.22146 1.41884 8.88413 1.71433 9.34706C2.34247 10.333 3.07009 11.1775 3.85336 11.8511C4.11507 12.0762 4.14477 12.4708 3.9197 12.7325C3.69463 12.9942 3.30002 13.0239 3.03831 12.7989C2.15491 12.0391 1.34891 11.0999 0.660387 10.0192C0.206075 9.30715 0 8.39502 0 7.52083C0 6.64663 0.206082 5.73448 0.660412 5.02247Z" fill="#383E47"/>
<path fill-rule="evenodd" clip-rule="evenodd" d="M15.0958 3.63799C15.3647 3.42165 15.7582 3.46431 15.9745 3.73328C16.2944 4.131 16.6087 4.55838 16.8985 5.01511C17.3524 5.72698 17.5583 6.63869 17.5583 7.5125C17.5583 8.3867 17.3523 9.29885 16.8979 10.0109C14.9055 13.1428 11.9858 15.0333 8.77917 15.0333C7.66539 15.0333 6.57486 14.7978 5.5533 14.3677C5.23517 14.2337 5.08586 13.8673 5.21981 13.5491C5.35376 13.231 5.72024 13.0817 6.03837 13.2156C6.91681 13.5855 7.84295 13.7833 8.77917 13.7833C11.4557 13.7833 14.0193 12.2073 15.8435 9.33955L15.844 9.33873C16.1395 8.8758 16.3083 8.21313 16.3083 7.5125C16.3083 6.81187 16.1395 6.1492 15.844 5.68627L15.8431 5.68489C15.583 5.27496 15.2973 4.88567 15.0005 4.51672C14.7841 4.24776 14.8268 3.85434 15.0958 3.63799Z" fill="#383E47"/>
<path fill-rule="evenodd" clip-rule="evenodd" d="M11.8175 7.48536C12.157 7.54796 12.3814 7.87388 12.3188 8.21334C12.0551 9.64321 10.8974 10.801 9.4675 11.0646C9.12805 11.1272 8.80212 10.9028 8.73953 10.5633C8.67693 10.2239 8.90137 9.89796 9.24083 9.83536C10.161 9.66569 10.9199 8.90679 11.0895 7.98666C11.1521 7.64721 11.478 7.42277 11.8175 7.48536Z" fill="#383E47"/>
<path fill-rule="evenodd" clip-rule="evenodd" d="M6.72111 9.57473C6.96519 9.8188 6.96519 10.2145 6.72111 10.4586L2.55444 14.6253C2.31036 14.8694 1.91464 14.8694 1.67056 14.6253C1.42648 14.3812 1.42648 13.9855 1.67056 13.7414L5.83723 9.57473C6.0813 9.33065 6.47703 9.33065 6.72111 9.57473Z" fill="#383E47"/>
<path fill-rule="evenodd" clip-rule="evenodd" d="M15.8878 0.408058C16.1319 0.652136 16.1319 1.04786 15.8878 1.29194L11.7211 5.45861C11.477 5.70269 11.0813 5.70269 10.8372 5.45861C10.5931 5.21453 10.5931 4.8188 10.8372 4.57473L15.0039 0.408058C15.248 0.163981 15.6437 0.163981 15.8878 0.408058Z" fill="#383E47"/>
</svg>
