<svg width="8" height="10" viewBox="0 0 8 10" fill="none" xmlns="http://www.w3.org/2000/svg">
<path d="M3.56713 3.92922C2.52275 3.92922 1.47837 3.92952 0.433985 3.92833C0.371692 3.92833 0.30612 3.92594 0.247403 3.90746C0.0119397 3.83325 -0.073602 3.5498 0.0772137 3.35457C0.101952 3.32238 0.132354 3.29436 0.161265 3.26545C1.19671 2.22971 2.23215 1.19427 3.26789 0.158829C3.47891 -0.0518954 3.66341 -0.0530876 3.87264 0.156147C4.91106 1.19427 5.95008 2.2312 6.98463 3.2729C7.05378 3.34265 7.11518 3.4416 7.13336 3.53579C7.17449 3.75068 6.99506 3.92803 6.75632 3.92833C6.05768 3.92952 5.35874 3.92892 4.6601 3.92892C4.29588 3.92892 3.93166 3.92892 3.56743 3.92892L3.56713 3.92922Z" fill="#B7B7B7"/>
<path d="M3.56816 6.07084C4.60896 6.07084 5.64947 6.07084 6.69028 6.07084C6.72754 6.07084 6.76479 6.06906 6.80175 6.07204C6.94303 6.08366 7.04824 6.15192 7.10726 6.28127C7.16866 6.41569 7.1463 6.54237 7.0551 6.65682C7.02976 6.68871 6.99936 6.71673 6.97045 6.74534C5.94276 7.77303 4.91536 8.80073 3.88767 9.82842C3.66026 10.0558 3.48351 10.0567 3.25908 9.83229C2.2287 8.80192 1.19862 7.77184 0.16825 6.74147C0.152453 6.72567 0.136656 6.70987 0.120859 6.69408C0.00521384 6.57694 -0.0344274 6.44013 0.0326349 6.28664C0.0973127 6.1388 0.218323 6.07025 0.378676 6.07055C0.713093 6.07055 1.04781 6.07055 1.38223 6.07055C2.11067 6.07055 2.83912 6.07055 3.56786 6.07055L3.56816 6.07084Z" fill="#B7B7B7"/>
</svg>
